<svg xmlns="http://www.w3.org/2000/svg" id="prefix__AEG-ICONOGRAPHY_campus" width="126.797" height="126.797" viewBox="0 0 126.797 126.797">
    <defs>
        <style>
            .prefix__cls-1{fill:#fff}.prefix__cls-2{fill:none}
        </style>
    </defs>
    <path id="prefix__Shape" d="M41.38 60.228a122.965 122.965 0 0 0-17.241-1.219c-.669 0-1.346.006-2.013.017-10.863 0-21.01.736-21.112.743 0-.1-.1-11.268-.3-12.853a41.776 41.776 0 0 1-.369-13.03A182.233 182.233 0 0 0 .345 12a178.835 178.835 0 0 0 19.7-12l.65.365c.752.475 2.682 1.387 5.126 2.543 4.262 2.015 10.1 4.775 12.72 6.712l.4.3A11.956 11.956 0 0 1 41.174 12c-.524.824-.2 12.951 0 14.517a2.906 2.906 0 0 1 .095.856v11.585a5.66 5.66 0 0 1-.158.84c-.488 2.08-.123 10.776.269 17.7v2.726zm-19.226-5.88c5.519 0 10.318.182 14.265.54-.716-13.187-.214-15.231 0-16.1v-11.2a1.559 1.559 0 0 0 0-.3.254.254 0 0 0 0-.111c-.175-1.27-.316-5.809-.316-8.1V13.8l-.191-.142-.095-.1a.642.642 0 0 1-.174-.127A100.385 100.385 0 0 0 23.93 7.323C22.236 6.52 21.155 6 20.315 5.579l.033.08c-3.162 2.141-9.324 6.177-15.073 9.256A154.034 154.034 0 0 1 5.1 34.489a35.819 35.819 0 0 0 .205 10.872c.022.146.048.281.073.411a3.549 3.549 0 0 1 .085.619c.147 1.133.271 4.981.271 8.4 3.983-.202 10.066-.444 16.42-.444z" class="prefix__cls-1" transform="translate(42.702 33.284)"/>
    <path id="prefix__Path" d="M1.594 10.943h1.585a.808.808 0 0 0 .919-.65A24.282 24.282 0 0 0 4.1.5C4 .181 1.23-.041.929.006S.263.387.295.656c-.269.127.127 3.883 0 5.468a5.389 5.389 0 0 0 .428 4.454 1.141 1.141 0 0 0 .808.365" class="prefix__cls-1" transform="translate(53.166 51.584)"/>
    <path id="prefix__Path-2" d="M.265 10.667l2.821.127c.475 0 1.125-.111 1.252-.412.523-1.316.127-6.118.1-7.18a17.72 17.72 0 0 0-.143-2.045C4.2.586 3.578.1 2.516 0 2.31 0 .361.254.456.792.995 3.8-.606 10.635.265 10.667" class="prefix__cls-1" data-name="Path" transform="translate(62.372 52.114)"/>
    <path id="prefix__Path-3" d="M1.546 10.016a2.076 2.076 0 0 0 2.488.84c1.094-.349 1-1.189.919-1.886a18.623 18.623 0 0 0-.46-2.6 52.906 52.906 0 0 1-.6-5.627c0-.317-.349-.571-.824-.7S.31.046.278.522A6.847 6.847 0 0 0 .009 2.8c.38 1.68 1.458 6.895 1.585 7.259" class="prefix__cls-1" data-name="Path" transform="translate(70.458 52.543)"/>
    <path id="prefix__Path-4" d="M1.284.1C.808.212.6.449.618.687c-.285.127 0 3.424-.3 4.755S-.349 8.1.682 9.309a1.094 1.094 0 0 0 .792.3h1.585a.872.872 0 0 0 .951-.6A19.02 19.02 0 0 0 4.327.354a9.272 9.272 0 0 0-3.17-.332" class="prefix__cls-1" data-name="Path" transform="translate(51.987 66.579)"/>
    <path id="prefix__Path-5" d="M.3.65c.586 2.631-.9 8.5 0 8.543l2.821.143c.475 0 1.125 0 1.236-.333.507-1.141 0-5.278 0-6.2a13.219 13.219 0 0 0-.238-1.759C4.008.539 3.389.111 2.328 0 2.121 0 .172.206.283.65" class="prefix__cls-1" data-name="Path" transform="translate(60.865 66.965)"/>
    <path id="prefix__Path-6" d="M3.123.048C2.711.048.413.127.365.539A5.325 5.325 0 0 0 0 2.568c.3 1.474.524 4.755.524 4.755v1.711c0 .238.365.428.824.428h2.758c.38 0 .7-.158.682-.349s-.112-1.061-.127-1.283a14.265 14.265 0 0 0-.349-2.282A46.059 46.059 0 0 1 3.947.6c0-.285-.333-.507-.777-.6" class="prefix__cls-1" data-name="Path" transform="translate(69.516 67.044)"/>
    <path id="prefix__Path-7" d="M.828.777C1.256 3.424-.63 9.494.226 9.51h2.837c.491 0 1.141-.111 1.268-.38.586-1.189.38-5.4.4-6.34a11.475 11.475 0 0 0 0-1.807C4.727.475 4.061.063 3 0 2.793 0 .812.3.891.761" class="prefix__cls-1" data-name="Path" transform="translate(60.891 80.056)"/>
    <path id="prefix__Path-8" d="M3.17.032C2.758.032.444.032.4.523A5.4 5.4 0 0 0 0 2.552c.3 1.474.523 4.755.523 4.755v1.711c0 .238.365.428.824.428h2.774c.38 0 .682-.158.666-.349s-.1-1.062-.111-1.284a14.265 14.265 0 0 0-.365-2.282A46.424 46.424 0 0 1 3.962.6c0-.283-.332-.5-.776-.6" class="prefix__cls-1" data-name="Path" transform="translate(69.738 80.231)"/>
    <path id="prefix__Path-9" d="M1.283.022C.808.117.6.37.617.608c-.3.158-.032 3.471-.3 4.913a4.248 4.248 0 0 0 .364 3.915 1.046 1.046 0 0 0 .792.317h1.585a.888.888 0 0 0 .951-.618A19.59 19.59 0 0 0 4.326.354a9.272 9.272 0 0 0-3.17-.332" class="prefix__cls-1" data-name="Path" transform="translate(51.987 80.067)"/>
    <path id="prefix__Rectangle" d="M0 0H126.797V126.797H0z" class="prefix__cls-2"/>
    <path id="prefix__Rectangle-2" d="M0 0H126.797V126.797H0z" class="prefix__cls-2" data-name="Rectangle"/>
</svg>
