<svg xmlns="http://www.w3.org/2000/svg" id="prefix__AEG-ICONOGRAPHY_help" width="109.289" height="109.289" viewBox="0 0 109.289 109.289">
    <defs>
        <style>
            .prefix__cls-1{fill:#fff}
        </style>
    </defs>
    <path id="prefix__Shape" d="M5.517 12.474a6.3 6.3 0 0 1-2.817-.669A5.741 5.741 0 0 1 .545 4.5 7.9 7.9 0 0 1 5.449.4 20.264 20.264 0 0 1 9.383 0h.229a11.948 11.948 0 0 1 3.665.575 5.368 5.368 0 0 1 .929 9.371 15.081 15.081 0 0 1-8.28 2.514c-.135.009-.273.014-.409.014zM9.613 4.1h-.23a16.2 16.2 0 0 0-2.9.274 3.689 3.689 0 0 0-2.305 1.967 1.638 1.638 0 0 0 .656 1.9 3.706 3.706 0 0 0 .961.126h.131a11.313 11.313 0 0 0 5.739-1.626 1.582 1.582 0 0 0 .752-1.5 1.058 1.058 0 0 0-.52-.793A7.725 7.725 0 0 0 9.613 4.1z" class="prefix__cls-1" transform="translate(48.308 68.14)"/>
    <path id="prefix__Shape-2" d="M11.676 37.131h-.1a.549.549 0 0 1-.547-.506c-.066-1.972.475-7.665 3.729-10.3 4.3-3.466 6.038-8.181 6.038-9.563 0-.169.016-.37.033-.582a3.411 3.411 0 0 0-.538-2.66 3.574 3.574 0 0 0-2.732-.856h-.423c-3.158.134-3.842 2.711-4.21 4.1a3.6 3.6 0 0 1-.216.673 8.86 8.86 0 0 0 0 3.25c-.007 0-.056 0-.143.006-2.4.077-4.6.117-6.346.117-4.043 0-6.093-.193-6.093-.573a19.72 19.72 0 0 1-.009-4.581 17.641 17.641 0 0 1 3.494-9.01C6.657 2.8 11.459.593 17.891.081 18.549.027 19.2 0 19.818 0c7.532 0 11.128 3.847 12.819 7.074a18.56 18.56 0 0 1 1.936 8.864 13.131 13.131 0 0 1-1.612 6.617 28.215 28.215 0 0 0-5.3 13.128 1.137 1.137 0 0 1-1.113.917h-.035c-1.393-.11-4.87-.11-7.664-.11-.3-.007-.614-.011-.919-.011-1.124 0-2.258.049-3.371.147-.891.186-2.11.389-2.882.506zm5.157-4.777c.6 0 1.242.017 1.905.05h5.247a32.763 32.763 0 0 1 5.546-12.3 8.886 8.886 0 0 0 .917-4.26A14.3 14.3 0 0 0 29 9.017c-1.708-3.319-4.72-4.932-9.208-4.932-.257 0-.511.016-.779.034s-.543.035-.82.035c-5.225.408-9.049 2.081-11.366 4.971a13.8 13.8 0 0 0-2.733 7.555h4.467a5.483 5.483 0 0 1 .3-.888v-.1c1.5-5.681 5.176-7.021 7.992-7.145h.6c.151-.009.305-.014.457-.014a7.45 7.45 0 0 1 5.308 2.2 7.286 7.286 0 0 1 1.6 5.751v.273c0 2.758-2.348 8.523-7.568 12.705a5.981 5.981 0 0 0-1.626 2.91c.421-.011.817-.018 1.21-.018z" class="prefix__cls-1" data-name="Shape" transform="translate(37.394 28.688)"/>
    <path id="prefix__Rectangle" fill="none" d="M0 0H109.289V109.289H0z"/>
</svg>
