<svg xmlns="http://www.w3.org/2000/svg" width="224" height="385.499" viewBox="0 0 224 385.499">
    <defs>
        <style>
            .prefix__cls-3,.prefix__cls-6{fill:#fff}.prefix__cls-3{stroke-width:2px;stroke:#d389b1}.prefix__cls-11{fill:#030504}.prefix__cls-13{stroke:none}.prefix__cls-14{fill:none}
        </style>
    </defs>
    <g id="prefix__Component_30_1" data-name="Component 30 – 1" transform="translate(0 1.404)">
        <g id="prefix__Group_8594" data-name="Group 8594" transform="translate(-351 -1138.905)">
            <g id="prefix__Rectangle_4674" fill="#fff" stroke="#e3724c" stroke-width="2px" data-name="Rectangle 4674">
                <path d="M0 0H220V326H0z" class="prefix__cls-13" transform="translate(351 1192)"/>
                <path d="M1 1H219V325H1z" class="prefix__cls-14" transform="translate(351 1192)"/>
            </g>
            <path id="prefix__Rectangle_4675" fill="#e3724c" d="M0 0H217V326H0z" data-name="Rectangle 4675" transform="translate(358 1185)"/>
            <g id="prefix__Rectangle_4676" class="prefix__cls-3" data-name="Rectangle 4676">
                <path d="M0 0H220V326H0z" class="prefix__cls-13" transform="translate(351 1192)"/>
                <path d="M1 1H219V325H1z" class="prefix__cls-14" transform="translate(351 1192)"/>
            </g>
            <path id="prefix__Rectangle_4677" fill="#d389b1" d="M0 0H217V326H0z" data-name="Rectangle 4677" transform="translate(358 1185)"/>
        </g>
        <text id="prefix__Enterprising_App_Girl_Challenge" fill="#fff" data-name="Enterprising ‘App’ Girl Challenge" font-family="Arial-Black, Arial Black" font-size="24px" font-weight="800" transform="translate(18 250.095)">
            <tspan x="13.51" y="26">Enterprising </tspan><tspan x="34.791" y="57">‘App’ Girl </tspan><tspan x="28.65" y="88">Challenge</tspan>
        </text>
        <g id="prefix__Group_8479" data-name="Group 8479" transform="translate(79 105.894)">
            <path id="prefix__Path_18076" d="M1181.887 636.065a23.789 23.789 0 0 1-2.692-2.671 8.138 8.138 0 0 0-2.943-2.867 1.214 1.214 0 0 0-.521-.1l-.075-.031a2.146 2.146 0 0 0-1.191-.066 1.69 1.69 0 0 0-.575.233 1.56 1.56 0 0 0-.628.8 1.952 1.952 0 0 0-.011 1.094c0 .012-.008.026-.01.038a.955.955 0 0 0 .421 1.033.83.83 0 0 0 .11.052.992.992 0 0 0 .153.222q2.211 2.32 4.489 4.58c-.186.4-.776.749-1.076.977-1.29.98-2.536 2.014-3.727 3.11a1.842 1.842 0 0 0-.675.972 1.139 1.139 0 0 0-.02.316 4.152 4.152 0 0 0-.269 1.088 1.481 1.481 0 0 0 .711 1.493 2.326 2.326 0 0 0 1.255.219 2.2 2.2 0 0 0 1.418-.537 1.124 1.124 0 0 0 .213-.142 88.035 88.035 0 0 0 6.691-6.2 1.651 1.651 0 0 0 .337-2.012 6.756 6.756 0 0 0-1.385-1.601z" class="prefix__cls-6" data-name="Path 18076" transform="translate(-1130.408 -594.448)"/>
            <path id="prefix__Path_18077" d="M1169.422 625.737a1.814 1.814 0 0 0-1.722-1.593.868.868 0 0 0-.789.529 2.981 2.981 0 0 0-.834 1.051 19.337 19.337 0 0 0-1.623 4.482q-1.291 4.872-2.529 9.757-1.249 4.929-2.442 9.872c-.312 1.292-1.132 3.224-.046 4.36 1.168 1.221 2.991.33 3.618-.974a18.218 18.218 0 0 0 1.307-5.054c.045-.281.081-.564.12-.846a12.246 12.246 0 0 0 .815-2.683c.37-1.8.759-3.592 1.19-5.376s.891-3.545 1.388-5.3c.487-1.729 1.114-3.446 1.437-5.217.056-.307.106-.625.146-.946a3.411 3.411 0 0 0 .029-1.661c-.017-.138-.037-.27-.065-.401z" class="prefix__cls-6" data-name="Path 18077" transform="translate(-1132.047 -595.18)"/>
            <path id="prefix__Path_18078" d="M1156.87 643.777c0-.008-.011-.013-.016-.021a2.152 2.152 0 0 0-.759-.89q-.721-.562-1.443-1.118-2.261-1.741-4.569-3.421c-.046-.047-.091-.1-.135-.143.135-.125.269-.252.4-.379q.416-.4.818-.809.747-.764 1.446-1.571c.5-.578.978-1.171 1.443-1.776a3.138 3.138 0 0 0 .925-1.8 1.2 1.2 0 0 0-.129-.541.948.948 0 0 0-1.019-1.392 5.97 5.97 0 0 0-2.338 1.655l-2.375 2.118-4.75 4.233a.92.92 0 0 0 0 1.293q4.607 4.043 9.368 7.9a1.079 1.079 0 0 0 .984.218 2 2 0 0 0 .99.2 1.951 1.951 0 0 0 1.546-.914 1.76 1.76 0 0 0 .255-.878 1.906 1.906 0 0 0-.187-.809 4.152 4.152 0 0 0-.455-1.155z" class="prefix__cls-6" data-name="Path 18078" transform="translate(-1133.812 -594.494)"/>
            <path id="prefix__Path_18079" d="M1173.2 609.744a7.314 7.314 0 0 0-2.707-.713c-1.376-.168-9.646-.168-11.022 0a7.314 7.314 0 0 0-2.708.713 1.77 1.77 0 0 0-1.011.853c-.128.242.447 1.479.417 1.762a10.2 10.2 0 0 0 1.978.506c2.138.447 8.06.107 9 .094 4.648-.067 5.335.2 6.173-.448a1.63 1.63 0 0 0 .892-1.914 1.773 1.773 0 0 0-1.012-.853z" class="prefix__cls-6" data-name="Path 18079" transform="translate(-1132.425 -596.997)"/>
            <path id="prefix__Path_18080" d="M1161.332 670.851a19.109 19.109 0 0 0-2.661.618 2.723 2.723 0 0 0-1.7 1.209 2.057 2.057 0 0 0 .734 2.8 38.467 38.467 0 0 0 5.351.669h.046c.432-.029 3.557 0 3.573 0a38.467 38.467 0 0 0 5.351-.669 2.057 2.057 0 0 0 .734-2.8 2.723 2.723 0 0 0-1.7-1.209 19.114 19.114 0 0 0-2.661-.618c-1.18.07-5.889.07-7.067 0z" class="prefix__cls-6" data-name="Path 18080" transform="translate(-1132.312 -589.608)"/>
            <path id="prefix__Path_18081" d="M1200.09 629.386c-.218-8.2-.961-27.171-.859-28.473a2.079 2.079 0 0 0-2.049-2.049c-.54-.023-20.826-.623-25.56-.5q-5.22-.008-10.44.092-2.992-.022-5.985-.083a150.536 150.536 0 0 0-15.093.159c-1.507.12-2.893.485-3.467 2.063a14.817 14.817 0 0 0-.6 3.811 25.574 25.574 0 0 0-.062 2.668c-.534 3.935.124 7.972.311 11.911.216 4.562.2 9.133.066 13.7-.269 9.155-1.01 18.288-1.32 27.441-.348 10.3-.09 20.652 1.9 30.8.087.44 1.671 3.412 2.7 3.427 9.691.157 46.256 1.078 52.818 1.2 1.738.031 3.952.439 5.237-1.008a4.286 4.286 0 0 0 .826-2.687c.086-1.079.163-2.159.241-3.238q.422-5.871.728-11.749 1.242-23.722.608-47.485zm-8.864 58.753c-3.746.067-11.59.134-15.337.2-2.267.04-7.18.04-7.18.04l-16.277-.646-5.721-.227-2.861-.113c-.409-.016-.817-.037-1.226-.048.2.005.119-.012-.031-.023-.066-.752-.3-1.551-.393-2.282-.124-.93-.224-1.865-.309-2.8-.137-1.488-.222-2.98-.283-4.472 9.03-.3 27.1-.753 27.1-.753 6.256.028 16.608.123 22.86.3q-.168 5.411-.341 10.824zm.7-57.99c.118 2.849.368 5.688.488 8.536.24 5.686.019 11.377-.162 17.06l-.5 15.77c-6.315-.185-41.195-.344-50.27-.359.011-5.706.26-11.42.406-17.12q.3-11.586.631-23.172c.128-4.327.348-8.659.383-12.987 0-.646-.012-1.289-.041-1.931q.621-4.436 1.061-8.893l.38-.009 4.046-.1 8.094-.191q5.022-.119 10.043-.234c.763.021 1.527.034 2.289.061 6.551.241 17.211.883 23.769.671q-.284 7.251-.563 14.5c-.101 2.804-.167 5.6-.051 8.398z" class="prefix__cls-6" data-name="Path 18081" transform="translate(-1134.909 -598.267)"/>
        </g>
        <path id="prefix__Path_18293" d="M.109 30.943c.918 12.292 11.324 18.474 17.1 19.124s16.282 7.922 24.571 1.7 14.642-14.234 12.946-29.908S33.281-1.086 18.622.131-.809 18.651.109 30.943z" class="prefix__cls-3" data-name="Path 18293" transform="rotate(59 60.508 106.948)"/>
        <text id="prefix___1" fill="#d389b1" data-name="1" font-family="Arial-Black, Arial Black" font-size="32px" font-weight="800" transform="translate(86 13.095)">
            <tspan x="15.828" y="35">1</tspan>
        </text>
        <g id="prefix__Group_8534" data-name="Group 8534" transform="translate(-1191.732 178.133)">
            <path id="prefix__Path_18465" d="M1375.868-83c.038.209 4.768 105.8-67.646 138.454v.022l-.025-.011-.024.012v-.027c-73.006-31.335-70.235-137-70.2-137.207 9.063 5.214 22.271 7.466 36.158 5.283 14.844-2.333 26.776-9.152 32.619-17.5l.04-.029v-.035l.025.017.024-.018V-94l.04.028c6 8.241 18.052 14.843 32.938 16.907 13.923 1.928 27.083-.563 36.051-5.935z" class="prefix__cls-6" data-name="Path 18465" transform="translate(-1.659)"/>
            <path id="prefix__Path_18466" fill="#696a6a" d="M1301.829-91.724S1278.872-11.4 1303.2 57.044c0 0-69.539-17.807-69.47-136.443.002-.001 40.687 19.048 68.099-12.325z" data-name="Path 18466" transform="translate(0 -.91)" style="isolation:isolate;mix-blend-mode:multiply" opacity="0.19"/>
            <g id="prefix__Group_8532" data-name="Group 8532" transform="translate(1236.292 -94.038)" style="mix-blend-mode:overlay;isolation:isolate" opacity="0.5">
                <path id="prefix__Path_18467" fill="#c4c4c3" d="M1375.868-83c.038.209 4.768 105.8-67.646 138.454v.022l-.025-.011-.024.012v-.027c-73.006-31.335-70.235-137-70.2-137.207 9.063 5.214 22.271 7.466 36.158 5.283 14.844-2.333 26.776-9.152 32.619-17.5l.04-.029v-.035l.025.017.024-.018V-94l.04.028c6 8.241 18.052 14.843 32.938 16.907 13.923 1.928 27.083-.563 36.051-5.935z" data-name="Path 18467" transform="translate(-1237.951 94.038)"/>
            </g>
            <path id="prefix__Path_18468" d="M1374.113-57.212l-.015-2.006-.124.126c.01-.488.025-1.011.04-1.563.033-1.157.068-2.41.066-3.682h.031c.059-1.376.042-2.921-.051-4.865l-.176-5.431.11-.648-.525-.292-.615-.187-1.394 1.092c-.488.433-.89.783-1.273 1.086-.33.245-.481.35-.7.5l-.01-.013-.251.187a4.851 4.851 0 0 1-.82.465c-.091.041-.183.085-.277.135-.425.2-.864.362-1.191.484a1.8 1.8 0 0 0-.987.607 1.06 1.06 0 0 0-.42.41l-.095.042a6.283 6.283 0 0 0-1.353.34l-.231.077a7.686 7.686 0 0 1-1.58.265h-.107l-.1.024a16.4 16.4 0 0 1-2.511.359c-.3.032-.607.054-.891.073l.122-.019-4.687-.306-.251-.024h-.177l-2.007-.13c-.234-.065-.415-.118-.556-.16l.037-.243a28.855 28.855 0 0 1-2.843-.555l-2.3-.663c-.274-.089-.6-.184-.93-.285a13.186 13.186 0 0 1-2.042-.714c-.418-.211-1.1-.51-1.95-.888-1.249-.552-2.886-1.275-4.639-2.135a70.907 70.907 0 0 1-8.491-4.838l-2.633-1.771.024-.04c-1.286-.831-2.2-1.524-3.008-2.136-.49-.373-.963-.731-1.473-1.085l-.32-.347-.146-.124q-.129-.086-.233-.159l.061-.081c-1.927-1.529-2.685-1.97-3.243-2.058a18.133 18.133 0 0 0-2-1.756l.082-.089-2.211-2.1-.567.41a1.541 1.541 0 0 0-.258.249l-1.444 1.555c-.462.515-.941.979-1.308 1.335a6.466 6.466 0 0 0-.751.8c-.368.3-1.091.893-1.188 1a36.423 36.423 0 0 1-3.625 2.516l-.366.232.065.107a11.545 11.545 0 0 1-1.565.864c-.262.129-.546.271-.855.428l-3.185 1.368a17.539 17.539 0 0 1-2.691.918l-3.192.926.244.051-.431.087c-.818.165-1.662.336-2.41.512l.013.073c-.479.059-1.019.093-1.506.123l-.746.012c-.35 0-.69.008-1 .018l-.016-.125c-1.72.112-2.125.16-2.406.456-.073.013-.164.025-.277.041a2.874 2.874 0 0 0-1.514-.151c-.21 0-.606.029-1.123.063a34.055 34.055 0 0 1-6.342.016l-.036.191-.247-.006a31.762 31.762 0 0 1-3.315-.4c-.969-.15-1.865-.276-2.66-.346l-.127-.06-.26-.074a4.585 4.585 0 0 0-.8-.05c-.76-.083-1.944-.27-3.035-.444-.929-.147-1.786-.282-2.265-.337a31.653 31.653 0 0 0-4.6-1.2c-1.113-.248-2.541-.567-3.31-.793l.049-.143-4.992-1.476c-2.046-.646-3.139-.936-3.969-1.117l-3.245-1.1-2.969-.925-.233-.066a1.18 1.18 0 0 0-1.3.151 1.035 1.035 0 0 0-.192 1.121l.013.092c.106.739.241 1.685.361 2.37l-.106.381.037.189c.056.292.134 1.212.226 2.278.163 1.916.4 4.754.791 7.256l-.047.008c.272 1.751.478 3.776.677 5.735.36 3.546.609 5.814 1.069 6.9l.526 2.88.305-.047q.006.04.009.08c-.261.362-.156 1.141.133 3.283.03.226.064.479.1.726l-.108-.044.547 3.616c1.052 6.976 2.045 13.567 3.417 19.988l.578 2.706-.058.029.888 3.861.032-.862c.155.458.318.981.668 2.19.114.412.152.624.18.567a1.1 1.1 0 0 0 .038.6 6.624 6.624 0 0 0 .254.856 17.749 17.749 0 0 0 .793 2.217c.123.3.244.6.358.895l.2-.062.051.118a3.991 3.991 0 0 0 .441.855c.675 1.822 2.137 5.07 3.352 7.766.74 1.644 1.379 3.065 1.572 3.578.745 1.433 1.383 2.917 2.122 4.635l.46 1.069.172-.067c.056.108.14.278.258.541-.054.475.277 1.246.984 2.892.388.9.825 1.921 1.029 2.557.013.049.029.1.048.152l.236-.076-.156.1c.116.173.439.812.79 1.5a20.25 20.25 0 0 0 1.2 2.182 2.912 2.912 0 0 0 .288.857l.783 1.379a78.319 78.319 0 0 0 6.947 10.781l.149.185.226.079.427.547c.335.52.671 1.042 1.088 1.622a5.919 5.919 0 0 0 .669.641 6.165 6.165 0 0 1 1.174 1.339l.1-.065.047.048c4.78 5.76 10.613 10.9 16.254 15.865 2.04 1.8 4.074 3.588 6.055 5.4l.076-.077c.143.116.308.255.478.4.194.172.52.445 1.09.9l.077-.093c.675.619 1.351 1.241 2.072 1.838l.2.123a7.546 7.546 0 0 1 .742.456c.433.281.958.62 1.5.918.052.029.125.063.182.094l-.119.224a12.248 12.248 0 0 0 1.575.783l.146-.316a3.368 3.368 0 0 0 .933.2c.031 0 .058 0 .087-.005l.185.144a4.976 4.976 0 0 0 .431.3l.208.127h.246a8.212 8.212 0 0 0 1.018-.1l.059.325a3.309 3.309 0 0 0 1.049-.2l.036-.018a.768.768 0 0 0 .441-.661v-.145c2.575-.567 4.562-2.4 6.037-3.785.842-.789 1.643-1.554 2.466-2.331l.394.294 1.12-1.23-.267-.243c.515-.489 1.046-.987 1.554-1.472l.4.33c.656-.641 1.38-1.37 2.087-2.085 1.044-1.053 2.054-2.072 2.758-2.717l-.122-.155c.425-.41.634-.675.63-.962.254-.251.5-.5.752-.749l.967-.717.588.405.6-.549a2.291 2.291 0 0 0 .412-.474l2.292-2.272c.137-.11.375-.328.59-.532.122-.115.229-.217.28-.26l-.031-.041.028-.027.059.05c.249-.274.456-.507.614-.719l1.878-1.862-1.228.769 2.71-3.065.022.018.346-.433.006-.048.145-.164-.034.022c.157-.195.308-.383.423-.54l.267.239.317-.317c.23-.23.484-.489.65-.641l.313-.042.261-.869.233-.285-.037-.031.61-.756-.141.311.927-1.189.358-.266a6.8 6.8 0 0 0 1.017-.965l-.089-.093.185-.208.275.186.941-1.343-.383-.266.409-.524h.451l.251-.339-.238-.257.052-.066.273.208-.115-.1.135.1-.015-.021.035.03c.033-.032.038-.059.067-.09l.085-.092c.134-.174.252-.343.376-.525l-.3.669.649-.868a2.337 2.337 0 0 0 .636-.457l-.069-.1.147.107c.716-.9 1.264-1.7 1.75-2.436l-.074-.05 1.443-2.073.032-.041a5.036 5.036 0 0 0 .959-1.184l.186-.419c.257-.359.519-.714.769-1.078l.061-.078-.839 3.123 4.119-7.722-.166-.094.006-.009-.155-.112c.085-.1.186-.229.312-.4l.145 1.018 1.675-2.989-.491-.311a1.24 1.24 0 0 0 .527-.506l.2.155a4.028 4.028 0 0 0 .573-.734 6.9 6.9 0 0 1 .671-.888l-.144-.113.057-.1.1.041c.077-.183.581-1.021.915-1.575.174-.288.319-.53.45-.754l.12-.07-.044-.058.143.08c.023-.039.052-.089.083-.147l.734-1.308-.123-.067c.229-.351.447-.7.661-1.064.322-.543.675-1.137 1.165-1.842l1.422-2.048-.569.191.092-.16a1.645 1.645 0 0 0 .32-.532l.466-.951-.267-.128.019-.042c.487-.061.814-.624 1.3-2.1l.247-.794.124.053.932-2.016a35.178 35.178 0 0 0 1.7-3.941c.228-.527.454-1.222.61-1.712h.016l1.145-3.342c.515-1.481.949-3.031 1.373-4.618l.4-1.291c.305-.98.533-1.764.717-2.46a20.737 20.737 0 0 0 .671-2.992l-.049-.01.646-3.57.408-1.808a34.329 34.329 0 0 0 .5-3.781 58.121 58.121 0 0 0 .836-9.053l.065-1.3-.144-.107c.058-1.588.062-3.2.046-5.353zm-56.275-25.037c.447.351.895.7 1.305 1a30.948 30.948 0 0 0 3.4 2.491c.454.329 1.069.689 1.507.94l-.009.015.56.34c.694.421 1.386.842 2.09 1.245L1327-76c1.354.828 2.8 1.592 4.282 2.357l.984.57c.868.5 1.57.887 2.205 1.194a16.323 16.323 0 0 0 2.738 1.278l.013-.03 4.072 1.8a33.638 33.638 0 0 0 4.442 1.56 24.053 24.053 0 0 0 4.425 1.292 53.423 53.423 0 0 0 5.341.748l.455.048.126-.157a26.154 26.154 0 0 0 5.514-.206l1.942-.289-.183-.139a23.635 23.635 0 0 0 4.53-1.225l.009.026a10.44 10.44 0 0 0 1.1-.439l.648-.294.047 1.3c.025.846.021 1.664-.025 2.546a13.185 13.185 0 0 1 .014 1.7h-.015v.249l-.067 1.084-.082.772c-.139 1.27-.193 1.791.068 2.091a1.013 1.013 0 0 0 .2.516c0 .066.008.129.013.191a7.432 7.432 0 0 0-.1 1.6 7.282 7.282 0 0 1-.1 1.639l-.044.18.028.172c.033.209.021 1.2.012 1.932a27.982 27.982 0 0 0 .042 2.838c-.036.365-.066.7-.09 1.023l-.59-1.952.312 6.46c-.036.2-.069.371-.1.52l-.259-.005c-.086 1.846-.141 2.415-.208 3.1-.019.19-.038.388-.059.624l-.211 1.4c-.05.33-.1.729-.142 1.137a12.05 12.05 0 0 1-.294 1.855c-.141.461-.315 1.222-.535 2.184-.286 1.254-.654 2.861-1.132 4.592a75.576 75.576 0 0 1-2.981 8.929l-1.152 2.835-.046-.016c-.49 1.272-.933 2.221-1.323 3.059-.3.636-.564 1.213-.814 1.836l-.255.368-.1.2c-.019.055-.047.131-.082.215l-.095-.041c-1.051 2.156-1.275 2.979-1.228 3.511A15.041 15.041 0 0 0 1357.062-5l-.1-.055L1355.191-2a20.163 20.163 0 0 0-1.418 2.576c-.322.452-.792 1.281-.836 1.37-.685 1.09-1.034 1.612-1.424 2.2-.31.462-.646.963-1.188 1.807l.106.071a10.708 10.708 0 0 1-.762 1.106c-.229.309-.487.655-.769 1.062l-.191.243c-1.235 1.571-1.537 2.025-1.781 2.389a24.917 24.917 0 0 1-1.824 2.335l-2.029 2.454.431-.168c-.669.76-1.4 1.6-1.995 2.39l.059.049c-.431.46-.985.97-1.494 1.439-.29.268-.573.529-.825.77l-.1-.081c-1.173 1.243-1.421 1.539-1.41 1.952-.037.05-.084.113-.146.191-.382.075-.695.426-1.146.936-.247.235-.64.715-1.31 1.542a39.44 39.44 0 0 1-3.547 4l.128.147-.145.172c-.489.544-1.168 1.195-1.867 1.865-.82.788-1.649 1.591-2.281 2.312l-.118.064-.221.177a4.534 4.534 0 0 0-.481.605c-.354.393-.854.925-1.382 1.488-.886.944-1.728 1.839-2.135 2.34a27.174 27.174 0 0 0-3.669 3.445c-.657.676-1.494 1.537-2.015 2.018l-.1-.116-3.7 3.488c-1.576 1.452-2.332 2.25-2.884 2.833l-.538.419a6.365 6.365 0 0 1-3.055 1.493 5.306 5.306 0 0 1-2.767-.348l-.24-.277-.2-.075a14.316 14.316 0 0 1-2.734-1.972l-.289-.25c-1.255-1.085-2.666-2.3-4.04-3.381l.029-.037c-1.61-1.242-3.408-2.886-4.994-4.335a29.294 29.294 0 0 0-4.43-3.676l-2.174-1.833-.208.226c-.013-.011-.024-.023-.036-.035-.031-.415-.551-.932-1.91-2.279-.215-.212-.476-.471-.716-.714l.095-.031-.936-.937a90.15 90.15 0 0 1-13.376-16.723l-1.324-2.182.073-.063-1.088-1.94-.046.022-.233-.351a15.86 15.86 0 0 1-1.252-2.2c-.172-.373-.245-.535-.254-.466a1.029 1.029 0 0 0-.12-.582 6.209 6.209 0 0 0-.375-.8l-1.284-2.775-.2.073-.077-.161a3.765 3.765 0 0 0-.4-.712c-.754-1.97-2.438-5.827-3.61-8.51-.524-1.2-.929-2.128-1.1-2.538-.875-1.662-1.618-3.33-2.574-5.5l-.171.068c-.055-.1-.136-.266-.251-.516a6.6 6.6 0 0 0-.751-2.352 20.026 20.026 0 0 1-1.065-2.94l-.472.093.356-.175c-.088-.176-.4-1.1-.6-1.715a19.309 19.309 0 0 0-.7-1.918 2.684 2.684 0 0 0-.085-.907 79.805 79.805 0 0 1-2.108-9.4c-.237-1.278-.478-2.579-.738-3.882l-.047-.235-.167-.174-.253-2.467a5.135 5.135 0 0 0-.255-.851 4.679 4.679 0 0 1-.3-1.648h-.118l-.015-.071c-.373-2.637-.781-5.3-1.192-7.987-1.066-6.962-2.168-14.163-2.694-21.219l-.109.007-.073-.58c-.021-.25-.072-.661-.175-1.363l-.113.015-.187-2.591-.054-.239a20.809 20.809 0 0 1-.35-2.366c0-.039-.008-.07-.013-.107l.252-.032-.1-1.472-.339.013a3.307 3.307 0 0 0-.2-.836l.112-.271c3.084.985 6.1 1.925 9.077 2.788l-.059.482 1.591.328.081-.361c.671.189 1.341.376 2.009.556l-.086.517c1.215.321 2.646.636 3.942.922 1 .22 1.917.422 2.579.594l.067-.187a3.813 3.813 0 0 0 .743.121.722.722 0 0 0 .328-.072l2.176.65-.007.332-.226.022.224.037v.1l-1.883.237 5.034.415 2.453.415.092.018.058.01v.028c.1.008.171.009.265.017l2.969.5-1.511-.643h.1v-.008l4.409.206v.009h.131l.465.021-.09-.03c.365-.008.674-.021.928-.04v.362l.463.023c.3.013.639.025.856.045l.245.22.8-.394.378-.018v-.05l1.771-.155.215-.006.519.1a3.427 3.427 0 0 0 .73.058c.192 0 .432-.007.739-.022v-.121l.281-.023.065.317.544-.1c.361-.064.721-.129 1.08-.214l-.087-.366.829.008.106.1.5-.09h.075v.022c.042 0 .062-.018.1-.021h.061l.073-.013c.31-.055.563-.115.807-.181a1.763 1.763 0 0 0 .989.189l.01-.108.038.168a21.427 21.427 0 0 0 2.889-.757l.31-.089a9.454 9.454 0 0 0 1.137-.373l-.03-.076.954-.314.061-.015c1.26-.22 1.444-.356 1.565-.447l.216-.162c.163-.059.329-.107.492-.166l.853-.309.114-.041.207-.069-2.71 2.675 6.312-3.976.405-.248c.332-.2.663-.4.978-.633l-.2-.284-.016-.03c.126-.052.276-.117.478-.208l-.132-.311.064-.035.151.176-.405 1.251 2.823-2.007-.3-.468h.01a1.33 1.33 0 0 0 .664-.232l.112.217a3.6 3.6 0 0 0 .862-.449 6.2 6.2 0 0 1 .932-.527l-.083-.166.088-.066.072.075c.081-.076.271-.216.51-.4.308-.232.688-.518 1.013-.786.232-.173.438-.33.629-.481l.13-.031-.018-.058c.04-.032.083-.066.12-.1l.044.055.112-.087.045.043 1.018-.936-.1-.11c.248-.195.5-.378.745-.6l.026-.023.92 2.687.213-2.372a1.722 1.722 0 0 0 .41.376l.785.666.2-.223.025.02c-.064.513.461.953 1.7 1.713l.707.419-.082.106zm-42.08 7.61l.013.391-1.356-.462q.671.042 1.343.072zm53.4 112.309c.046-.042.086-.077.137-.126a.518.518 0 0 1-.069.186zm5.355-6.64c.289-.31.572-.62.859-.93l.259.2zM1346.8 17.9l.062-.083v.124zm6.613-10.218l.038-.061.177.067.026.181z" class="prefix__cls-11" data-name="Path 18468" transform="translate(-1.215 -.668)"/>
            <path id="prefix__Rectangle_4693" fill="#cf699f" d="M0 0H42.551V66.826H0z" data-name="Rectangle 4693" transform="translate(1283.682 -57.22)"/>
            <g id="prefix__Group_8533" data-name="Group 8533" transform="translate(1280.846 -59.219)">
                <path id="prefix__Path_18469" d="M1369.762 11.355a17.661 17.661 0 0 1-1.994-1.978 6.035 6.035 0 0 0-2.18-2.124.909.909 0 0 0-.386-.077l-.055-.023a1.605 1.605 0 0 0-.882-.049 1.266 1.266 0 0 0-.426.173 1.15 1.15 0 0 0-.465.59 1.445 1.445 0 0 0-.008.81c0 .01-.006.019-.007.029a.707.707 0 0 0 .311.765.675.675 0 0 0 .082.038.672.672 0 0 0 .113.164q1.638 1.72 3.325 3.392c-.138.3-.575.555-.8.724-.954.726-1.878 1.492-2.761 2.3a1.364 1.364 0 0 0-.5.72.811.811 0 0 0-.015.234 3.05 3.05 0 0 0-.2.805 1.1 1.1 0 0 0 .526 1.106 1.721 1.721 0 0 0 .93.163 1.629 1.629 0 0 0 1.05-.4.871.871 0 0 0 .158-.106 65.151 65.151 0 0 0 4.956-4.59 1.222 1.222 0 0 0 .25-1.491 5.008 5.008 0 0 0-1.022-1.175z" class="prefix__cls-11" data-name="Path 18469" transform="translate(-1331.631 19.471)"/>
                <path id="prefix__Path_18470" d="M1351.934-.13a1.344 1.344 0 0 0-1.274-1.179.642.642 0 0 0-.585.392 2.2 2.2 0 0 0-.617.779 14.271 14.271 0 0 0-1.2 3.32q-.957 3.607-1.873 7.226-.925 3.651-1.809 7.312c-.231.956-.839 2.387-.034 3.229.865.9 2.215.245 2.68-.721a13.5 13.5 0 0 0 .969-3.743c.032-.209.06-.418.088-.627a9.009 9.009 0 0 0 .6-1.986c.275-1.332.563-2.66.882-3.983s.66-2.625 1.028-3.928c.361-1.28.825-2.552 1.064-3.864.041-.227.079-.462.108-.7a2.516 2.516 0 0 0 .021-1.231c-.013-.1-.028-.199-.048-.296z" class="prefix__cls-11" data-name="Path 18470" transform="translate(-1324.25 22.764)"/>
                <path id="prefix__Path_18471" d="M1333.386 16.826c0-.006-.008-.01-.011-.016a1.6 1.6 0 0 0-.563-.659q-.532-.416-1.069-.828-1.675-1.289-3.385-2.533l-.1-.106.3-.281q.308-.295.606-.6.554-.566 1.072-1.164c.37-.427.725-.867 1.069-1.316a2.33 2.33 0 0 0 .685-1.333.894.894 0 0 0-.1-.4.7.7 0 0 0-.755-1.032 4.42 4.42 0 0 0-1.731 1.226l-1.759 1.568-3.518 3.136a.681.681 0 0 0 0 .958q3.411 2.995 6.939 5.854a.8.8 0 0 0 .728.163 1.493 1.493 0 0 0 .733.146 1.447 1.447 0 0 0 1.145-.677 1.3 1.3 0 0 0 .189-.651 1.4 1.4 0 0 0-.138-.6 3.031 3.031 0 0 0-.337-.855z" class="prefix__cls-11" data-name="Path 18471" transform="translate(-1316.308 19.678)"/>
                <path id="prefix__Path_18472" d="M1352.75-21.506a5.423 5.423 0 0 0-2.005-.528c-1.019-.124-7.145-.124-8.165 0a5.421 5.421 0 0 0-2 .528 1.311 1.311 0 0 0-.749.632c-.095.18.331 1.1.308 1.305a7.571 7.571 0 0 0 1.466.375 44.416 44.416 0 0 0 6.666.069c3.443-.049 3.951.147 4.573-.331a1.207 1.207 0 0 0 .66-1.418 1.315 1.315 0 0 0-.754-.632z" class="prefix__cls-11" data-name="Path 18472" transform="translate(-1322.551 30.948)"/>
                <path id="prefix__Path_18473" d="M1344.555 62.5a14.111 14.111 0 0 0-1.971.458 2.019 2.019 0 0 0-1.261.9 1.523 1.523 0 0 0 .544 2.076 28.287 28.287 0 0 0 3.963.5h.034c.32-.022 2.634 0 2.646 0a28.3 28.3 0 0 0 3.964-.5 1.523 1.523 0 0 0 .544-2.076 2.022 2.022 0 0 0-1.262-.9 14.121 14.121 0 0 0-1.97-.458c-.871.05-4.359.05-5.231 0z" class="prefix__cls-11" data-name="Path 18473" transform="translate(-1323.059 -2.323)"/>
                <path id="prefix__Path_18474" d="M1359.648-13.612c-.162-6.07-.713-20.125-.637-21.09a1.539 1.539 0 0 0-1.517-1.518c-.4-.018-15.426-.462-18.933-.367q-3.866-.007-7.733.067-2.217-.015-4.433-.061a111.32 111.32 0 0 0-11.179.118c-1.116.089-2.143.359-2.568 1.527a10.973 10.973 0 0 0-.441 2.823 19.207 19.207 0 0 0-.046 1.977c-.394 2.915.093 5.9.231 8.823.16 3.38.149 6.765.049 10.146-.2 6.781-.748 13.546-.978 20.325a100.434 100.434 0 0 0 1.411 22.809c.064.326 1.237 2.527 2 2.539 7.178.116 34.261.8 39.123.886 1.287.024 2.927.325 3.879-.747a3.175 3.175 0 0 0 .612-1.99c.064-.8.121-1.6.178-2.4q.312-4.349.539-8.7.913-17.566.443-35.167zm-6.565 43.518c-2.775.05-8.585.1-11.36.15-1.679.03-5.318.03-5.318.03l-12.056-.478-4.237-.168-2.119-.084c-.3-.012-.605-.027-.908-.036.152 0 .088-.009-.023-.017-.049-.557-.219-1.149-.291-1.691-.092-.689-.166-1.381-.229-2.074-.1-1.1-.164-2.207-.209-3.312 6.689-.223 20.073-.558 20.073-.558 4.633.021 12.3.092 16.933.222l-.256 8.016zm.52-42.952c.087 2.109.273 4.213.362 6.322.177 4.211.014 8.427-.12 12.636l-.371 11.681c-4.678-.137-30.513-.254-37.234-.266.007-4.227.192-8.46.3-12.681q.221-8.582.468-17.164c.094-3.2.258-6.414.283-9.619 0-.479-.009-.955-.03-1.43q.46-3.286.786-6.587l.28-.007 3-.071 6-.142q3.719-.088 7.439-.174c.566.016 1.131.025 1.7.046 4.852.178 12.748.654 17.606.5q-.21 5.371-.417 10.742c-.089 2.07-.137 4.142-.055 6.214z" class="prefix__cls-11" data-name="Path 18474" transform="translate(-1311.368 36.662)"/>
            </g>
        </g>
    </g>
</svg>
