<svg xmlns="http://www.w3.org/2000/svg" width="274.351" height="293.128" viewBox="0 0 274.351 293.128">
    <defs>
        <style>
            .prefix__cls-5{fill:#030504}
        </style>
    </defs>
    <g id="prefix__Group_8547" data-name="Group 8547" transform="translate(-1233.732 94.038)">
        <path id="prefix__Path_18465" fill="#fff" d="M1507.158-72.5c.074.409 9.306 206.522-132.041 270.254v.044l-.048-.021-.047.022v-.044c-142.5-61.164-137.094-267.41-137.029-267.82 17.691 10.176 43.472 14.572 70.578 10.313 28.975-4.553 52.265-17.864 63.67-34.159l.078-.057v-.068l.049.033.047-.034v.069l.078.055c11.706 16.086 35.237 28.973 64.293 33 27.177 3.768 52.873-1.094 70.372-11.587z" data-name="Path 18465" transform="translate(.779)"/>
        <path id="prefix__Path_18466" fill="#696a6a" d="M1366.653-91.724s-44.81 156.781 2.681 290.387c0 0-135.735-34.758-135.6-266.328-.002-.001 79.413 37.179 132.919-24.059z" data-name="Path 18466" transform="translate(0 .427)" style="isolation:isolate;mix-blend-mode:multiply" opacity="0.19"/>
        <g id="prefix__Group_8532" data-name="Group 8532" transform="translate(1238.73 -94.038)" style="mix-blend-mode:overlay;isolation:isolate" opacity="0.5">
            <path id="prefix__Path_18467" fill="#c4c4c3" d="M1507.158-72.5c.074.409 9.306 206.522-132.041 270.254v.044l-.048-.021-.047.022v-.044c-142.5-61.164-137.094-267.41-137.029-267.82 17.691 10.176 43.472 14.572 70.578 10.313 28.975-4.553 52.265-17.864 63.67-34.159l.078-.057v-.068l.049.033.047-.034v.069l.078.055c11.706 16.086 35.237 28.973 64.293 33 27.177 3.768 52.873-1.094 70.372-11.587z" data-name="Path 18467" transform="translate(-1237.951 94.038)"/>
        </g>
        <path id="prefix__Path_18468" d="M1504.8-23.772l-.03-3.915-.243.245c.02-.952.049-1.973.078-3.051.065-2.258.134-4.7.129-7.188h.061c.116-2.685.083-5.7-.1-9.5l-.343-10.6.215-1.264-1.025-.57-1.2-.365-2.721 2.131c-.952.845-1.738 1.529-2.485 2.119-.645.479-.939.683-1.366.971l-.02-.025-.491.365a9.462 9.462 0 0 1-1.6.909c-.178.079-.357.166-.54.263-.829.39-1.687.706-2.325.945a3.513 3.513 0 0 0-1.926 1.186 2.068 2.068 0 0 0-.82.8c-.062.028-.125.057-.185.082a12.264 12.264 0 0 0-2.641.665l-.451.15a15.006 15.006 0 0 1-3.083.516h-.209l-.2.046a32.014 32.014 0 0 1-4.9.7c-.592.063-1.184.105-1.74.142l.238-.038-9.148-.6-.491-.047c-.115 0-.23 0-.346-.008l-3.919-.255c-.457-.127-.81-.23-1.085-.313l.072-.474a56.33 56.33 0 0 1-5.55-1.083l-4.489-1.294c-.534-.173-1.162-.36-1.815-.556a25.726 25.726 0 0 1-3.985-1.394c-.816-.411-2.138-1-3.806-1.733-2.438-1.077-5.634-2.489-9.055-4.167a138.392 138.392 0 0 1-16.574-9.443l-5.139-3.456.047-.078c-2.511-1.622-4.3-2.976-5.871-4.168-.957-.727-1.88-1.426-2.875-2.118l-.625-.678-.284-.243q-.251-.169-.454-.31l.12-.159c-3.762-2.984-5.242-3.846-6.33-4.018a35.373 35.373 0 0 0-3.9-3.427l.16-.173-4.315-4.1-1.108.8a3.02 3.02 0 0 0-.5.486l-2.818 3.036c-.9 1.006-1.836 1.911-2.554 2.606a12.619 12.619 0 0 0-1.465 1.56c-.719.585-2.13 1.744-2.318 1.957a71.092 71.092 0 0 1-7.075 4.911l-.714.452.127.208a22.557 22.557 0 0 1-3.055 1.686c-.511.252-1.065.528-1.669.836l-6.216 2.671a34.24 34.24 0 0 1-5.254 1.791l-6.231 1.808.476.1-.842.171c-1.6.322-3.243.656-4.705 1l.025.142c-.936.115-1.989.181-2.94.24l-1.457.023c-.683.007-1.347.017-1.954.036l-.031-.244c-3.357.218-4.147.312-4.7.89-.144.025-.321.05-.541.081a5.611 5.611 0 0 0-2.954-.295c-.41 0-1.183.056-2.192.122-3.112.208-8.9.591-12.379.031l-.07.372-.482-.012a62 62 0 0 1-6.47-.788c-1.891-.293-3.64-.538-5.192-.675l-.248-.117-.507-.145a8.951 8.951 0 0 0-1.564-.1c-1.484-.161-3.794-.527-5.924-.866-1.812-.288-3.486-.551-4.421-.657a61.78 61.78 0 0 0-8.969-2.35c-2.173-.484-4.96-1.106-6.462-1.547l.095-.278-9.744-2.882c-3.994-1.262-6.127-1.827-7.747-2.181l-6.335-2.146-5.795-1.806-.455-.129a2.3 2.3 0 0 0-2.544.294 2.021 2.021 0 0 0-.375 2.188l.025.179c.206 1.442.47 3.288.7 4.626l-.207.743.072.368c.109.57.262 2.366.441 4.446.319 3.74.79 9.28 1.544 14.162l-.093.015c.531 3.417.932 7.371 1.321 11.2.7 6.923 1.189 11.349 2.086 13.472l1.027 5.622.6-.091q.011.078.018.156c-.509.707-.3 2.227.259 6.408l.188 1.418-.211-.086 1.067 7.058c2.054 13.618 3.992 26.482 6.669 39.016l1.128 5.282-.113.056 1.734 7.537.063-1.682c.3.893.62 1.915 1.3 4.275.222.8.3 1.219.352 1.106a2.139 2.139 0 0 0 .074 1.162 12.926 12.926 0 0 0 .5 1.67 34.673 34.673 0 0 0 1.548 4.328c.239.582.476 1.162.7 1.746l.388-.121q.052.117.1.231a7.792 7.792 0 0 0 .86 1.669c1.317 3.557 4.172 9.9 6.543 15.159 1.444 3.209 2.692 5.982 3.069 6.984 1.453 2.8 2.7 5.693 4.141 9.048l.9 2.087.336-.13c.11.211.272.543.5 1.055-.105.928.541 2.433 1.92 5.646.757 1.764 1.611 3.75 2.009 4.991.026.095.056.193.094.3l.461-.148-.305.2c.226.338.856 1.585 1.541 2.919a39.545 39.545 0 0 0 2.348 4.258 5.684 5.684 0 0 0 .562 1.673l1.529 2.692c3.731 6.6 7.961 14.072 13.561 21.044l.291.361.441.154.834 1.068c.654 1.015 1.31 2.034 2.124 3.165a11.571 11.571 0 0 0 1.307 1.251 12.025 12.025 0 0 1 2.292 2.614l.194-.127c.032.031.062.064.092.094 9.331 11.244 20.716 21.27 31.727 30.968 3.981 3.506 7.952 7 11.818 10.544l.148-.15c.278.226.6.5.933.771.378.335 1.014.868 2.128 1.756l.15-.181c1.318 1.208 2.637 2.422 4.044 3.587l.384.239a14.725 14.725 0 0 1 1.449.891c.845.548 1.871 1.209 2.92 1.791.1.057.244.123.355.184l-.232.437a23.913 23.913 0 0 0 3.074 1.529l.284-.617a6.576 6.576 0 0 0 1.821.4c.06 0 .114-.006.169-.011l.361.281a9.693 9.693 0 0 0 .842.579l.406.249.48-.006a16.037 16.037 0 0 0 1.987-.187l.115.634a6.457 6.457 0 0 0 2.048-.393l.071-.034a1.5 1.5 0 0 0 .86-1.29l.008-.283c5.026-1.108 8.906-4.694 11.784-7.388 1.643-1.54 3.208-3.032 4.813-4.55l.77.574 2.186-2.4-.522-.474c1-.955 2.041-1.927 3.033-2.874l.776.643c1.281-1.252 2.694-2.675 4.074-4.07 2.037-2.055 4.01-4.045 5.384-5.3l-.238-.3c.829-.8 1.238-1.317 1.23-1.879.5-.489.976-.975 1.468-1.463l1.888-1.4 1.148.791 1.164-1.071a4.481 4.481 0 0 0 .8-.925l4.473-4.435c.266-.214.732-.641 1.151-1.038.238-.224.446-.423.546-.507l-.06-.079.054-.053.116.1c.486-.534.89-.989 1.2-1.4l3.666-3.635-2.4 1.5 5.289-5.982.044.034.676-.845.03-.037.283-.32-.067.043c.306-.38.6-.747.826-1.054l.521.467.618-.618c.449-.449.944-.955 1.269-1.251l.61-.082.511-1.7.454-.556-.073-.06 1.192-1.475-.276.608 1.81-2.321.7-.519a13.275 13.275 0 0 0 1.985-1.883l-.173-.182.361-.405.536.362 1.836-2.621-.748-.519.8-1.023h.88l.489-.661-.464-.5.1-.129.533.406-.225-.2.263.2-.028-.04.068.059c.065-.063.074-.116.13-.176l.166-.18c.261-.34.492-.669.733-1.025l-.589 1.307 1.266-1.694a4.567 4.567 0 0 0 1.241-.892l-.134-.187.287.21c1.4-1.752 2.468-3.32 3.415-4.755l-.145-.1 2.816-4.046.063-.079a9.835 9.835 0 0 0 1.872-2.311l.362-.819c.5-.7 1.013-1.393 1.5-2.1l.118-.152-1.637 6.1 8.04-15.073-.323-.184.012-.018-.3-.219c.166-.2.364-.448.609-.774l.282 1.988 3.27-5.834-.958-.607a2.422 2.422 0 0 0 1.03-.988l.392.3a7.867 7.867 0 0 0 1.118-1.432 13.441 13.441 0 0 1 1.309-1.733l-.281-.222.11-.19.192.079c.15-.358 1.135-1.992 1.786-3.074.34-.563.622-1.035.879-1.472l.234-.137-.085-.114.278.156c.045-.077.1-.173.161-.287l1.432-2.553-.239-.131c.448-.686.873-1.372 1.291-2.078.629-1.059 1.317-2.219 2.273-3.6l2.777-4-1.11.373.18-.312a3.205 3.205 0 0 0 .625-1.039l.91-1.856-.521-.25.038-.082c.951-.12 1.59-1.218 2.528-4.1l.482-1.551.243.1 1.819-3.935a68.615 68.615 0 0 0 3.312-7.692c.446-1.029.887-2.384 1.19-3.342l.032.009 2.234-6.523c1.006-2.89 1.853-5.917 2.68-9.013l.786-2.521c.6-1.913 1.041-3.443 1.4-4.8a40.486 40.486 0 0 0 1.309-5.841l-.1-.019 1.261-6.969.8-3.53a67.007 67.007 0 0 0 .982-7.38c.853-2.952 1.273-10.336 1.631-17.671l.126-2.528-.281-.21c.144-3.158.152-6.304.116-10.506zm-109.845-48.87c.873.686 1.746 1.371 2.548 1.952a60.4 60.4 0 0 0 6.639 4.863c.887.642 2.086 1.346 2.941 1.835l-.017.03 1.092.663c1.354.821 2.706 1.643 4.079 2.43l.6.416c2.644 1.616 5.463 3.108 8.358 4.6l1.921 1.113c1.7.982 3.064 1.731 4.3 2.331a31.866 31.866 0 0 0 5.345 2.495l.025-.058 7.948 3.506a65.643 65.643 0 0 0 8.67 3.045 46.953 46.953 0 0 0 8.638 2.522 104.294 104.294 0 0 0 10.425 1.459l.887.094.246-.307a51.048 51.048 0 0 0 10.763-.4l3.791-.564-.356-.271a46.129 46.129 0 0 0 8.841-2.39l.018.051a20.4 20.4 0 0 0 2.138-.856l1.264-.575.092 2.534c.048 1.651.041 3.248-.048 4.969a25.776 25.776 0 0 1 .027 3.311h-.03l.007.2h-.007v.29l-.132 2.117-.16 1.507c-.271 2.478-.376 3.5.132 4.082a1.976 1.976 0 0 0 .395 1.007c.009.128.016.252.026.372a14.5 14.5 0 0 0-.189 3.12 14.2 14.2 0 0 1-.2 3.2l-.086.351.054.335c.064.407.041 2.351.024 3.772a54.645 54.645 0 0 0 .082 5.539c-.07.712-.128 1.374-.176 2l-1.152-3.811.609 12.61-.189 1.015-.5-.011c-.167 3.6-.276 4.715-.406 6.045-.037.371-.075.758-.116 1.219l-.412 2.728c-.1.644-.187 1.424-.277 2.219a23.538 23.538 0 0 1-.573 3.62c-.275.9-.615 2.386-1.043 4.263-.559 2.447-1.276 5.584-2.209 8.963a147.563 147.563 0 0 1-5.818 17.429l-2.25 5.534-.089-.032c-.957 2.483-1.821 4.335-2.582 5.971-.578 1.241-1.1 2.368-1.59 3.584l-.5.719-.2.4c-.037.108-.092.256-.16.421l-.184-.081c-2.051 4.209-2.489 5.815-2.4 6.853a29.37 29.37 0 0 0-2.316 4.446l-.2-.108-3.449 5.967a39.357 39.357 0 0 0-2.767 5.027c-.629.882-1.546 2.5-1.632 2.674-1.336 2.127-2.019 3.146-2.779 4.285-.605.9-1.26 1.88-2.319 3.528l.207.139a20.884 20.884 0 0 1-1.488 2.159c-.448.6-.95 1.278-1.5 2.073l-.373.474c-2.411 3.067-3 3.953-3.476 4.664a48.555 48.555 0 0 1-3.561 4.558l-3.961 4.79.841-.328c-1.306 1.483-2.739 3.126-3.894 4.666l.115.1c-.841.9-1.922 1.894-2.916 2.809-.566.522-1.12 1.032-1.61 1.5l-.192-.159c-2.29 2.427-2.774 3-2.752 3.81-.072.1-.164.22-.285.373-.746.146-1.356.832-2.238 1.828-.482.46-1.249 1.4-2.557 3.01a77.028 77.028 0 0 1-6.922 7.81l.25.288c-.083.1-.177.21-.283.335-.955 1.063-2.28 2.332-3.644 3.641-1.6 1.539-3.219 3.1-4.451 4.512l-.23.126-.431.345a8.849 8.849 0 0 0-.938 1.181c-.691.766-1.667 1.806-2.7 2.9-1.729 1.842-3.373 3.59-4.168 4.568-1.434.875-3.722 3.184-7.162 6.724-1.283 1.32-2.915 3-3.933 3.94l-.193-.226-7.227 6.808c-3.076 2.833-4.552 4.391-5.629 5.531l-1.051.819c-3.008 2.289-4.691 2.71-5.963 2.914a10.357 10.357 0 0 1-5.4-.68l-.468-.541-.39-.147a27.946 27.946 0 0 1-5.336-3.85l-.564-.488c-2.451-2.118-5.2-4.5-7.885-6.6l.056-.072c-3.142-2.424-6.651-5.633-9.748-8.462-4.178-3.821-6.885-6.259-8.647-7.176l-4.243-3.577-.407.442c-.024-.021-.046-.045-.071-.069-.06-.81-1.075-1.818-3.728-4.448-.42-.415-.928-.919-1.4-1.393l.185-.06-1.827-1.829a175.985 175.985 0 0 1-26.109-32.641l-2.585-4.258.144-.122-2.123-3.786-.089.044-.455-.686a30.979 30.979 0 0 1-2.444-4.29c-.336-.727-.477-1.044-.5-.91a2.007 2.007 0 0 0-.234-1.136 12.1 12.1 0 0 0-.731-1.565l-2.515-5.419-.384.143c-.053-.109-.1-.214-.15-.314a7.358 7.358 0 0 0-.788-1.391c-1.472-3.845-4.76-11.374-7.046-16.611-1.024-2.343-1.814-4.153-2.149-4.955-1.707-3.244-3.159-6.5-5.025-10.742l-.333.133c-.107-.2-.266-.519-.491-1.008.082-.851-.452-2.139-1.466-4.591a39.066 39.066 0 0 1-2.079-5.739l-.921.182.694-.341c-.172-.344-.78-2.151-1.18-3.348a37.75 37.75 0 0 0-1.371-3.744 5.245 5.245 0 0 0-.166-1.77 155.811 155.811 0 0 1-4.115-18.339c-.462-2.495-.932-5.033-1.44-7.578l-.093-.46-.325-.34-.494-4.816a10.031 10.031 0 0 0-.5-1.662 9.133 9.133 0 0 1-.578-3.216l-.231.006-.029-.139c-.728-5.148-1.525-10.351-2.327-15.59-2.08-13.59-4.231-27.646-5.259-41.418l-.213.013-.142-1.131c-.042-.488-.141-1.291-.343-2.66l-.22.03-.365-5.058-.105-.467a40.661 40.661 0 0 1-.683-4.617c-.008-.076-.016-.136-.025-.208l.493-.063-.2-2.873-.662.026a6.45 6.45 0 0 0-.393-1.631l.218-.529c6.02 1.923 11.908 3.757 17.717 5.442l-.115.941 3.106.641.158-.7c1.309.368 2.618.734 3.921 1.085l-.167 1.009c2.371.627 5.166 1.241 7.694 1.8 1.952.429 3.742.823 5.034 1.158l.13-.365a7.444 7.444 0 0 0 1.451.237 1.409 1.409 0 0 0 .641-.141l4.247 1.269-.014.648-.441.044.438.072v.2l-3.676.462 9.826.81 4.788.81c.065.012.139.026.179.036v-.006l.113.019v.054c.2.017.334.018.516.033l5.795.98-2.95-1.254h.2v-.017l8.607.4v.018l.216-.007h.041l.907.041-.175-.059c.712-.017 1.316-.04 1.811-.078v.707l.9.045c.594.026 1.247.05 1.67.088l.478.43 1.565-.769.738-.034v-.1l3.458-.3.419-.012 1.014.2a6.693 6.693 0 0 0 1.425.113c.374 0 .842-.013 1.443-.044l.007-.237.549-.045.127.62 1.063-.2c.7-.126 1.407-.252 2.107-.418l-.169-.714 1.618.015.206.187.982-.175h.147v.043c.083 0 .121-.034.2-.041h.118l.144-.025c.605-.107 1.1-.225 1.574-.353a3.442 3.442 0 0 0 1.931.368l.019-.211.075.328a41.819 41.819 0 0 0 5.638-1.478l.605-.173a18.471 18.471 0 0 0 2.219-.728l-.059-.148 1.863-.614.119-.03c2.46-.43 2.819-.7 3.055-.872l.422-.316c.317-.115.642-.208.959-.325l1.664-.6.222-.079.4-.135-5.289 5.221 12.321-7.761.791-.484c.648-.394 1.293-.788 1.91-1.235l-.382-.554-.031-.058c.245-.1.539-.227.933-.406l-.258-.608.125-.069.294.344-.792 2.441 5.509-3.917-.578-.913h.02a2.6 2.6 0 0 0 1.3-.452l.219.424a7.025 7.025 0 0 0 1.682-.877 12.107 12.107 0 0 1 1.818-1.029l-.162-.323.172-.129.141.147c.159-.149.529-.422 1-.771.6-.454 1.344-1.012 1.977-1.534.453-.338.854-.643 1.227-.939l.253-.06-.036-.114c.077-.063.161-.128.234-.19l.087.107.218-.171.088.084 1.987-1.828-.2-.214c.483-.38.969-.738 1.453-1.175l.05-.045 1.8 5.245.416-4.63a3.355 3.355 0 0 0 .8.734l1.531 1.3.385-.436.049.039c-.125 1 .9 1.86 3.328 3.344l1.38.817-.16.206zm-82.138 14.854l.026.763-2.648-.9q1.315.078 2.626.137zm104.241 219.221c.089-.082.168-.15.267-.245a1.014 1.014 0 0 1-.134.364zm10.453-12.96c.564-.6 1.117-1.209 1.676-1.815l.506.391zm23.985-25.64l.121-.162v.243zm12.908-19.944l.073-.12.344.132.05.354z" class="prefix__cls-5" data-name="Path 18468" transform="translate(.57 .314)"/>
        <path id="prefix__Rectangle_4693" fill="#cf699f" d="M0 0H83.058V130.44H0z" data-name="Rectangle 4693" transform="translate(1331.231 -22.171)"/>
        <g id="prefix__Group_8533" data-name="Group 8533" transform="translate(1325.696 -26.073)">
            <path id="prefix__Path_18469" d="M1376.285 15.439a34.464 34.464 0 0 1-3.891-3.86c-1.214-1.575-2.361-3.325-4.255-4.146a1.776 1.776 0 0 0-.755-.15c-.036-.014-.071-.031-.108-.045a3.134 3.134 0 0 0-1.723-.1 2.471 2.471 0 0 0-.832.338 2.247 2.247 0 0 0-.908 1.151 2.821 2.821 0 0 0-.015 1.58c0 .019-.012.037-.014.056a1.379 1.379 0 0 0 .607 1.493 1.327 1.327 0 0 0 .16.075 1.322 1.322 0 0 0 .22.32q3.2 3.356 6.49 6.622c-.269.586-1.123 1.084-1.556 1.413-1.862 1.418-3.667 2.912-5.389 4.5a2.664 2.664 0 0 0-.975 1.4 1.591 1.591 0 0 0-.03.457 5.959 5.959 0 0 0-.389 1.572 2.145 2.145 0 0 0 1.027 2.158 3.359 3.359 0 0 0 1.815.317 3.18 3.18 0 0 0 2.051-.776 1.7 1.7 0 0 0 .308-.206 127.2 127.2 0 0 0 9.673-8.96 2.386 2.386 0 0 0 .488-2.91 9.773 9.773 0 0 0-1.999-2.299z" class="prefix__cls-5" data-name="Path 18469" transform="translate(-1301.856 44.731)"/>
            <path id="prefix__Path_18470" d="M1359.358.993a2.623 2.623 0 0 0-2.488-2.3 1.254 1.254 0 0 0-1.142.765 4.293 4.293 0 0 0-1.2 1.52 27.851 27.851 0 0 0-2.347 6.481q-1.867 7.042-3.657 14.106-1.805 7.127-3.531 14.273c-.451 1.867-1.637 4.66-.066 6.3 1.689 1.766 4.323.479 5.231-1.407a26.346 26.346 0 0 0 1.89-7.306c.063-.407.116-.816.172-1.225a17.589 17.589 0 0 0 1.177-3.877c.537-2.6 1.1-5.193 1.721-7.774s1.289-5.124 2.007-7.668c.7-2.5 1.611-4.982 2.078-7.542.08-.443.154-.9.211-1.367a4.912 4.912 0 0 0 .042-2.4c-.028-.197-.056-.388-.098-.579z" class="prefix__cls-5" data-name="Path 18470" transform="translate(-1305.321 43.186)"/>
            <path id="prefix__Path_18471" d="M1342.386 26.62c-.006-.012-.016-.02-.021-.032a3.127 3.127 0 0 0-1.1-1.286q-1.039-.812-2.086-1.617-3.27-2.516-6.606-4.944l-.2-.207q.293-.274.582-.548.6-.576 1.182-1.17 1.081-1.105 2.092-2.272c.722-.834 1.414-1.693 2.086-2.568a4.548 4.548 0 0 0 1.338-2.6 1.744 1.744 0 0 0-.187-.781A1.371 1.371 0 0 0 1338 6.578c-1.356.319-2.377 1.5-3.38 2.394q-1.716 1.532-3.434 3.061l-6.867 6.121a1.329 1.329 0 0 0 0 1.869q6.658 5.846 13.544 11.426a1.558 1.558 0 0 0 1.422.317 2.914 2.914 0 0 0 1.431.285 2.824 2.824 0 0 0 2.235-1.322 2.54 2.54 0 0 0 .368-1.27 2.732 2.732 0 0 0-.27-1.169 5.928 5.928 0 0 0-.663-1.67z" class="prefix__cls-5" data-name="Path 18471" transform="translate(-1309.049 44.634)"/>
            <path id="prefix__Path_18472" d="M1365.065-20.915a10.585 10.585 0 0 0-3.914-1.031c-1.989-.243-13.947-.243-15.937 0a10.581 10.581 0 0 0-3.913 1.031 2.56 2.56 0 0 0-1.462 1.233c-.185.351.646 2.138.6 2.548a14.778 14.778 0 0 0 2.861.732c3.09.644 11.653.154 13.011.135 6.721-.1 7.712.288 8.925-.647a2.357 2.357 0 0 0 1.289-2.768 2.567 2.567 0 0 0-1.46-1.233z" class="prefix__cls-5" data-name="Path 18472" transform="translate(-1306.119 39.344)"/>
            <path id="prefix__Path_18473" d="M1347.839 62.5a27.539 27.539 0 0 0-3.848.893 3.94 3.94 0 0 0-2.461 1.747 2.972 2.972 0 0 0 1.063 4.052 55.211 55.211 0 0 0 7.736.968h.066c.624-.043 5.142 0 5.165 0a55.227 55.227 0 0 0 7.737-.968 2.973 2.973 0 0 0 1.063-4.052 3.947 3.947 0 0 0-2.463-1.747 27.565 27.565 0 0 0-3.846-.893c-1.702.1-8.511.1-10.212 0z" class="prefix__cls-5" data-name="Path 18473" transform="translate(-1305.88 54.962)"/>
            <path id="prefix__Path_18474" d="M1405.609 8.33c-.316-11.848-1.391-39.282-1.243-41.166a3 3 0 0 0-2.966-2.964c-.78-.034-30.11-.9-36.955-.717q-7.546-.014-15.094.131-4.326-.03-8.653-.118a217.293 217.293 0 0 0-21.821.23c-2.178.173-4.184.7-5.012 2.982a21.428 21.428 0 0 0-.861 5.511 37.466 37.466 0 0 0-.09 3.858c-.77 5.689.181 11.526.45 17.222.313 6.6.29 13.205.1 19.8-.388 13.236-1.461 26.44-1.908 39.674-.5 14.9-.129 29.858 2.754 44.523.125.637 2.414 4.932 3.9 4.956 14.011.226 66.876 1.558 76.366 1.729 2.512.046 5.714.635 7.572-1.458a6.2 6.2 0 0 0 1.194-3.885c.125-1.559.236-3.121.348-4.681q.61-8.49 1.052-16.988 1.783-34.282.867-68.639zm-12.814 84.945c-5.417.1-16.758.194-22.175.293-3.278.058-10.381.058-10.381.058l-23.534-.933-8.27-.328-4.135-.165c-.591-.024-1.181-.053-1.772-.07.3.008.172-.018-.045-.033-.095-1.087-.428-2.244-.569-3.3-.18-1.346-.324-2.7-.447-4.048-.2-2.151-.32-4.307-.409-6.464 13.057-.435 39.181-1.09 39.181-1.09 9.044.04 24.012.179 33.052.432l-.497 15.648zm1.015-83.84c.171 4.117.533 8.224.706 12.341.346 8.22.027 16.449-.235 24.665q-.36 11.4-.724 22.8c-9.13-.268-59.559-.5-72.68-.519.014-8.252.375-16.513.586-24.752q.432-16.752.914-33.5c.183-6.256.5-12.52.552-18.776.007-.935-.018-1.863-.058-2.791q.9-6.414 1.534-12.858l.547-.013 5.85-.139 11.7-.277q7.26-.172 14.52-.339c1.1.032 2.207.05 3.309.09 9.472.347 24.884 1.277 34.366.969q-.41 10.483-.814 20.968c-.147 4.041-.241 8.085-.074 12.131z" class="prefix__cls-5" data-name="Path 18474" transform="translate(-1311.368 36.662)"/>
        </g>
    </g>
</svg>
