<svg xmlns="http://www.w3.org/2000/svg" width="501.977" height="537.357" viewBox="0 0 501.977 537.357">
    <defs>
        <style>
            .prefix__cls-1{fill:#fff}
        </style>
    </defs>
    <g id="prefix__Group_6644" data-name="Group 6644" transform="rotate(-11 296.366 2403.32)">
        <path id="prefix__Path_9895" d="M869.182 76.838c-1.041-4.163-4.731-7.853-9.462-9.273-4.258-1.325-9.462-.473-14.1 2.365-4.826 2.839-8.232 7.191-11.449 11.26a89.012 89.012 0 0 1-11.07 12.4l-6.245 5.393c-2.176 1.892-4.542 3.785-6.718 5.772-1.987 1.8-3.879 3.6-5.772 5.393-2.365 2.176-4.731 4.447-7.191 6.623-16.842 14.95-36.9 26.21-55.92 36.523-1.987 1.135-11.827 5.109-13.814 5.772a39.867 39.867 0 0 1-10.5-3.217c1.325-3.5 3.974-8.894 6.529-14.1 2.082-4.258 4.069-8.326 5.3-11.07 1.8-.284 8.232-1.325 9.462-4.163a27.158 27.158 0 0 0 1.987-8.7 71.062 71.062 0 0 0 .378-9.651 24.5 24.5 0 0 0-1.987-9.367c-1.419-3.122-6.245-8.8-8.61-11.165a24.347 24.347 0 0 1-1.987-2.271c-3.122-3.879-7-8.7-19.681-6.813a55.089 55.089 0 0 0-13.72 3.879 56.907 56.907 0 0 0-12.111 7 87.3 87.3 0 0 0-9.178 8.516l-.757.757a46.419 46.419 0 0 1-9.746 8.137c-4.069 2.365-8.61 3.028-13.72 3.6a67.386 67.386 0 0 0-14.287 2.933 70.587 70.587 0 0 0-12.584 5.772 115.407 115.407 0 0 0-13.152 8.894c-1.987 1.514-4.069 3.217-6.339 5.015l-.284.284c-1.419.473-2.933.946-4.352 1.325a27.944 27.944 0 0 0-8.232 3.122c-3.69 2.46-6.34 7.475-3.974 11.922 1.609 3.122 5.3 4.826 10.787 5.2 10.408.662 21.384-.946 33.59-5.015 1.23-.378 2.365-.757 3.6-1.23 3.974-1.325 8.137-2.744 12.3-3.785a90.91 90.91 0 0 1 16.464-2.271l6.813-.284c7.759-.378 15.8-.662 23.466-2.176L689.5 144.4c-7.286-1.325-15.423-1.041-25.642.757-8.232 1.419-22.33 4.069-24.222 5.393-.568.284-11.07 3.974-18.64 6.623-4.258 1.514-8.043 2.839-9.462 3.312-6.529 2.365-15.991 6.245-23.371 13.057-2.933 2.649-15.234 19.775-19.87 26.21l-24.6 34.063a18.214 18.214 0 0 1-1.23 1.609 18.641 18.641 0 0 0-3.028 4.636 4.767 4.767 0 0 0 1.7 5.961 4.119 4.119 0 0 0 .662.378 2.415 2.415 0 0 1 .946.662 3.024 3.024 0 0 1 .189 1.419 5.4 5.4 0 0 0 .095 1.23c.568 2.555 2.555 3.312 4.542 3.974a7.2 7.2 0 0 1 2.46 1.7 14.558 14.558 0 0 0 1.23 1.135 6.152 6.152 0 0 0 5.866 1.135c1.987-.757 3.5-2.46 4.826-3.879l.189-.189a54.52 54.52 0 0 0 3.974-5.015c1.325-1.23 6.529-10.313 12.679-21.1 1.892-3.406 3.5-6.056 4.069-7.1 1.8-2.839 3.69-5.772 5.488-8.516.757-1.135 1.514-2.271 2.176-3.406.757-1.23 1.987-2.933 3.122-4.731 3.974-5.866 5.015-7.38 5.109-7.948l.378-.568a27.608 27.608 0 0 1 2.744-3.785 11.424 11.424 0 0 1 5.393-3.5 89.293 89.293 0 0 1 10.692-2.839l4.542-1.135 8.326-2.082c-1.7 1.892-3.312 3.785-4.92 5.677-.946 1.135-3.122 3.879-5.2 6.529-2.176 2.839-5.015 6.245-5.3 6.529l-.095.095c-2.555 3.5-6.813 9.935-7.286 10.881-1.892 3.122-4.826 9.178-3.69 14.761-1.419.946-6.718 5.866-32.36 35.861a9.615 9.615 0 0 0-1.23 1.514l-.378.379.378.378a18.562 18.562 0 0 1 1.514 3.312c.284.757.473 1.135.568 1.419-1.8 4.163-16.18 39.267-21.857 56.393l-10.314 23.749c-.284.568-5.3 9.557-7.948 13.247-6.718 9.462-14.477 18.545-21.952 27.345l-1.514 1.8c-1.892 2.176-4.636 5.488-7.853 9.367-11.733 14-31.508 37.469-34.631 39.362a37.745 37.745 0 0 1-6.529 2.933l-1.987.568a17.078 17.078 0 0 0-4.731 1.892c-2.365 1.419-3.785 30.373-4.069 36.145-.189 4.92-.473 9.84-.662 14.761a5.4 5.4 0 0 1-.095 1.23c-.189 3.312-.378 7.475 2.555 9.84a2.061 2.061 0 0 0 .757.473 2.208 2.208 0 0 0 2.649.852 18.642 18.642 0 0 0 10.408-10.219 49.34 49.34 0 0 0 3.312-12.017c.284-1.514.568-3.122.946-4.731.284-1.135.568-2.271.946-3.406l.189-.378c.095-.095.095-.284.189-.378a82.318 82.318 0 0 1 18.924-24.79 116.738 116.738 0 0 1 12.111-8.516 9.32 9.32 0 0 0 2.365.568c1.7.284 2.176.189 2.46-.189 1.892-2.082 5.961-6.434 10.787-11.449 8.516-8.894 19.113-20.059 21.384-23.182.379-.473 34.631-47.783 37.469-52.135l.095.095c7.664-10.692 13.814-19.208 14.95-20.816s2.365-3.312 3.6-4.92c1.987-2.649 3.974-5.393 5.866-8.137-3.122 7.475-6.434 14.95-9.84 22.141-2.46 5.3-14.477 26.4-16.085 29.048h-.284v.378c-1.419 2.082-2.839 3.974-4.069 5.772-3.028 4.069-6.529 8.421-10.787 13.72-1.23 1.419-35.955 42.957-42.768 51.094-1.041 1.23-1.987 2.46-3.028 3.69-7.475 9.178-15.234 18.545-26.3 22.33-2.082.757-2.365 5.3-2.365 5.3l-.946 27.25c-.095 1.514-.095 3.028-.189 4.447-.095 2.933-.284 5.961-.284 8.989-.095 7.475 2.933 12.963 7.191 13.341h.473c4.352 0 9.746-5.3 12.49-20.343 1.892-10.03 7.475-16.464 14-23.276a117.713 117.713 0 0 1 12.111-10.124c2.46-1.892 4.826-3.69 6.718-5.393a2.251 2.251 0 0 0 1.23-.852 98.1 98.1 0 0 0 11.449-8.326 212.611 212.611 0 0 0 22.046-20.059c80.994-103.328 97.174-145.812 106.825-171.17 1.609-4.258 3.028-8.043 4.542-11.449 4.542-10.313 17.031-31.7 18.735-33.117 2.839-.378 25.074-8.326 25.642-29.427 1.419-3.69 8.705-5.677 13.057-6.907a12.683 12.683 0 0 0 3.783-1.324c1.987-1.419 1.514-3.5 1.041-5.2 21.289-8.421 39.646-22.33 54.69-34.82 17.978-14.855 35.577-30.94 52.324-47.783l1.892-1.892c3.406-3.5 7-7.1 10.313-10.787 2.746-2.558 6.247-7.383 4.922-12.966z" class="prefix__cls-1" data-name="Path 9895" transform="translate(0 -.027)"/>
        <path id="prefix__Path_9896" d="M618.253 214.1L566.4 297.176l-17.315 51.567-21.005 34.536-40.78 49.486 18.545 14.761 32.833-27.061 19.113-32.171 30.846-42.011 13.625-16.083-1.325 12.4-18.451 40.686-42.011 54.406-18.545 19.775 16.085 19.681 18.545-13.531 39.456-48.161 44.473-64.256 30.278-47.688 9.273-38.794z" class="prefix__cls-1" data-name="Path 9896" transform="translate(-2.082 -7.945)"/>
        <path id="prefix__Path_9897" fill="#1f8c6d" d="M649.2 156.35v25.926l29.71 75.317 11.07 3.69 21.005-33.306 13.625-6.15 9.84-14.855 3.69-7.38 14.86-7.476-9.935-25.926-11.07 1.23-23.469-13.53-29.616-3.69z" data-name="Path 9897" transform="translate(-10.794 -4.506)"/>
        <path id="prefix__Path_9898" fill="#dd80af" d="M682.483 153.4l-54.311 48.161-14.572 21.763 10.976 19.4 40.686 20.627 25.263-24.128 9.275 5.577 7.38-12.3-4.258-9.273 20.343-29.048-5.583-16.653 9.273-11.733-11.07-4.92-6.34 6.056z" data-name="Path 9898" transform="translate(-8.878 -4.678)"/>
        <path id="prefix__Path_9899" fill="#f16a4b" d="M617.721 234.4l-19.775 17.221-18.546 25.925 3.69 2.46-3.69 13.625 14.761-4.92 6.245 4.92 4.92-7.38-1.23 9.84-3.69 16.085 17.315-3.69 7.38-6.245 22.236-33.306L649.8 246.7l-11.165 7.38-27.156 23.466 13.621-25.925 1.23-14.761z" data-name="Path 9899" transform="translate(-7.038 -9.037)"/>
        <path id="prefix__Path_9900" d="M869.382 76.338c-1.041-4.163-4.731-7.853-9.462-9.273-4.258-1.325-9.462-.473-14.1 2.365-4.826 2.839-8.232 7.191-11.449 11.26a89 89 0 0 1-11.07 12.4l-6.245 5.393c-2.176 1.892-4.542 3.785-6.718 5.772-1.987 1.8-3.879 3.6-5.772 5.393-2.365 2.176-4.731 4.447-7.191 6.623-16.842 14.95-36.9 26.21-55.92 36.523-1.987 1.135-11.827 5.109-13.814 5.772a39.867 39.867 0 0 1-10.5-3.217c1.325-3.5 3.974-8.894 6.529-14.1 2.082-4.258 4.069-8.326 5.3-11.07 1.8-.284 8.232-1.325 9.462-4.163a27.158 27.158 0 0 0 1.987-8.7 71.063 71.063 0 0 0 .379-9.651 24.5 24.5 0 0 0-1.987-9.367c-1.419-3.122-6.245-8.8-8.61-11.165a24.329 24.329 0 0 1-1.987-2.271c-3.122-3.879-7-8.7-19.681-6.813a55.089 55.089 0 0 0-13.72 3.879 56.909 56.909 0 0 0-12.111 7 87.3 87.3 0 0 0-9.178 8.516l-.757.757a46.42 46.42 0 0 1-9.746 8.137c-4.069 2.365-8.61 3.028-13.72 3.6a67.386 67.386 0 0 0-14.287 2.933 70.589 70.589 0 0 0-12.584 5.772 115.409 115.409 0 0 0-13.152 8.894c-1.987 1.514-4.069 3.217-6.339 5.015l-.284.284c-1.419.473-2.933.946-4.352 1.325a27.944 27.944 0 0 0-8.232 3.122c-3.69 2.46-6.339 7.475-3.974 11.922 1.609 3.122 5.3 4.826 10.787 5.2 10.408.662 21.384-.946 33.59-5.015 1.23-.378 2.365-.757 3.6-1.23 3.974-1.325 8.137-2.744 12.3-3.785a90.912 90.912 0 0 1 16.464-2.271l6.813-.284c7.759-.378 15.8-.662 23.466-2.176L689.7 143.9c-7.286-1.325-15.423-1.041-25.642.757-8.232 1.419-22.33 4.069-24.223 5.393-.568.284-11.07 3.974-18.64 6.623-4.258 1.514-8.043 2.839-9.462 3.312-6.529 2.365-15.991 6.245-23.371 13.057-2.933 2.649-15.234 19.775-19.87 26.21l-24.6 34.063a18.2 18.2 0 0 1-1.23 1.609 18.644 18.644 0 0 0-3.028 4.636 4.767 4.767 0 0 0 1.7 5.961 4.121 4.121 0 0 0 .662.378 2.415 2.415 0 0 1 .946.662 3.025 3.025 0 0 1 .189 1.419 5.4 5.4 0 0 0 .095 1.23c.568 2.555 2.555 3.312 4.542 3.974a7.2 7.2 0 0 1 2.46 1.7 14.562 14.562 0 0 0 1.23 1.135 6.152 6.152 0 0 0 5.866 1.135c1.987-.757 3.5-2.46 4.826-3.879l.189-.189a54.5 54.5 0 0 0 3.974-5.015c1.325-1.23 6.529-10.313 12.679-21.1 1.892-3.406 3.5-6.056 4.069-7.1 1.8-2.839 3.69-5.772 5.488-8.516.757-1.135 1.514-2.271 2.176-3.406.757-1.23 1.987-2.933 3.122-4.731 3.974-5.866 5.015-7.38 5.109-7.948l.378-.568a27.61 27.61 0 0 1 2.744-3.785 11.424 11.424 0 0 1 5.393-3.5 89.292 89.292 0 0 1 10.692-2.839l4.542-1.135 8.326-2.082c-1.7 1.892-3.312 3.785-4.92 5.677-.946 1.135-3.122 3.879-5.2 6.529-2.176 2.839-5.015 6.245-5.3 6.529l-.095.095c-2.555 3.5-6.813 9.935-7.286 10.881-1.892 3.122-4.826 9.178-3.69 14.761-1.419.946-6.718 5.866-32.36 35.861a9.608 9.608 0 0 0-1.23 1.514l-.378.378.378.379a18.554 18.554 0 0 1 1.514 3.312c.284.757.473 1.135.568 1.419-1.8 4.163-16.18 39.267-21.857 56.393l-10.314 23.749c-.284.568-5.3 9.557-7.948 13.247-6.718 9.462-14.477 18.545-21.952 27.345l-1.514 1.8c-1.892 2.176-4.636 5.488-7.853 9.367-11.733 14-31.508 37.469-34.631 39.362a37.756 37.756 0 0 1-6.529 2.933l-1.987.568a17.081 17.081 0 0 0-4.731 1.892c-2.365 1.419-3.785 30.373-4.069 36.145-.189 4.92-.473 9.84-.662 14.761a5.394 5.394 0 0 1-.095 1.23c-.189 3.312-.378 7.475 2.555 9.84a2.06 2.06 0 0 0 .757.473 2.208 2.208 0 0 0 2.649.852 18.642 18.642 0 0 0 10.408-10.219 49.349 49.349 0 0 0 3.312-12.017c.284-1.514.568-3.122.946-4.731.284-1.135.568-2.271.946-3.406l.189-.378c.095-.095.095-.284.189-.378a82.318 82.318 0 0 1 18.924-24.79 116.741 116.741 0 0 1 12.111-8.516 9.322 9.322 0 0 0 2.365.568c1.7.284 2.176.189 2.46-.189 1.892-2.082 5.961-6.434 10.787-11.449 8.516-8.894 19.113-20.059 21.384-23.182.378-.473 34.631-47.783 37.469-52.135l.095.095c7.664-10.692 13.814-19.208 14.95-20.816s2.365-3.312 3.6-4.92c1.987-2.649 3.974-5.393 5.866-8.137-3.122 7.475-6.434 14.95-9.84 22.141-2.46 5.3-14.477 26.4-16.085 29.048h-.284v.378c-1.419 2.082-2.839 3.974-4.069 5.772-3.028 4.069-6.529 8.421-10.787 13.72-1.23 1.419-35.955 42.957-42.768 51.094-1.041 1.23-1.987 2.46-3.028 3.69-7.475 9.178-15.234 18.545-26.3 22.33-2.082.757-2.366 5.3-2.366 5.3l-.946 27.25c-.095 1.514-.095 3.028-.189 4.447-.095 2.933-.284 5.961-.284 8.989-.095 7.475 2.933 12.963 7.191 13.341h.473c4.352 0 9.746-5.3 12.49-20.343 1.892-10.03 7.475-16.464 14-23.276a117.7 117.7 0 0 1 12.111-10.124c2.46-1.892 4.826-3.69 6.718-5.393a2.25 2.25 0 0 0 1.23-.852 98.1 98.1 0 0 0 11.449-8.326 212.615 212.615 0 0 0 22.046-20.059c80.8-103.04 96.984-145.524 106.73-170.882 1.609-4.258 3.028-8.043 4.542-11.449 4.542-10.314 17.032-31.7 18.735-33.117 2.839-.378 25.074-8.327 25.642-29.427 1.419-3.69 8.7-5.677 13.057-6.907a12.684 12.684 0 0 0 3.785-1.325c1.987-1.419 1.514-3.5 1.041-5.2 21.289-8.421 39.645-22.33 54.69-34.82 17.978-14.855 35.577-30.94 52.324-47.783l1.892-1.892c3.406-3.5 7-7.1 10.314-10.787 2.84-2.845 6.341-7.67 5.016-13.253zm-233.8 96.606l-12.963 2.933c-1.23.284-2.555.568-3.785.852a98.63 98.63 0 0 0-10.408 2.649c-4.447 1.609-7.853 4.636-10.881 7.57-1.514 1.419-10.124 15.423-15.139 23.655-2.933 4.826-12.111 19.87-13.152 22.141-1.041 2.176-8.705 13.247-9.935 14.95-.946 1.325-1.609 1.892-3.122 1.8a2.945 2.945 0 0 1-2.555-1.514 2.656 2.656 0 0 0-2.365-1.8 1.61 1.61 0 0 0-.662.095c-.473.189-.946.095-1.041-.284-.189-.378-.095-.852.473-1.325a2.108 2.108 0 0 0 .473-2.933 2.574 2.574 0 0 0-3.312-1.041c-.095 0-.284-.189-.378-.473a1.718 1.718 0 0 1 .189-1.609 14.844 14.844 0 0 1 2.933-3.6 15.7 15.7 0 0 0 1.23-1.325c2.744-3.028 24.79-35.671 32.076-46.363a30.723 30.723 0 0 0 1.8-2.649 46.258 46.258 0 0 1 9.462-9.367 69.251 69.251 0 0 1 11.733-6.529c7.664-3.406 25.453-9.84 29.71-11.07-.095 1.325-.189 3.785-.284 5.2a58.972 58.972 0 0 0-.101 10.037zm159.055-28.67c-6.907 5.866-14 11.827-21.384 17.221-7.853 5.677-25.547 15.8-29.332 17.788-.757-2.744-3.406-11.544-5.2-15.9 9.651-5.393 18.451-10.313 27.156-15.518l1.419-.852c8.989-5.3 18.262-10.787 26.588-17.221 2.082-1.609 13.814-12.868 26.21-24.885 12.868-12.4 27.44-26.493 28.764-27.25 2.744-1.609 6.34-3.312 9.935-2.649a6.053 6.053 0 0 1 1.325 1.892c1.041 4.258-2.555 8.043-5.393 10.976l-.095.095c-1.609 1.7-3.217 3.406-4.731 5.015-2.082 2.271-4.258 4.542-6.434 6.813-15.707 16.085-32.549 30.657-45.512 41.538zM529.6 468.251c-8.516 5.583-16.085 10.881-22.235 17.978a45.532 45.532 0 0 0-7.759 12.206 47.112 47.112 0 0 0-3.217 14.193c-.095.473-.095.946-.189 1.514-.284.946-.757 2.176-1.135 3.312a8.282 8.282 0 0 1-.757.946 3.392 3.392 0 0 1-2.46.946 1.556 1.556 0 0 1-1.135-.757c-.852-1.325-.662-3.312-.473-4.92v-.473c.189-1.987.378-3.879.568-5.866l2.176-24.317a2.083 2.083 0 0 1 .095-.757 7.978 7.978 0 0 1 .662-3.122 6.094 6.094 0 0 1 2.271-1.892 40.289 40.289 0 0 0 8.326-4.163c5.961-3.974 10.881-9.462 15.328-14.761a82.115 82.115 0 0 0 9.934 9.933zm131.052-313.379c-.757.568-1.609 1.23-2.365 1.8-4.258 3.122-7.759 5.772-10.881 8.421-1.514 1.325-3.122 2.744-4.731 4.163l1.8-14.666h.095c.568-.095 1.041-.284 1.514-.378 1.892-.568 3.785-1.041 5.677-1.514 2.271-.568 4.731-1.041 7-1.514 2.744-.284 5.488-.568 8.232-.757-2.272 1.417-4.353 2.931-6.341 4.445zm48.256 61.408a18.336 18.336 0 0 1-5.583 2.839c-.284.095-.662.189-.946.284a10.669 10.669 0 0 0-2.271.757c-.095 0-.189.095-.284.095a12.52 12.52 0 0 0-1.7-2.082c.473-.662.946-1.23 1.325-1.7 1.514-1.8 2.839-3.5 4.163-5.2 1.23-1.609 2.46-3.217 3.879-4.92.095-.095 10.692-12.774 10.692-14.95 0-1.041-2.839-10.408-5.015-16.274 1.135-1.7 3.974-5.3 5.677-7.57.568-.757.946-1.23 1.135-1.514a10.635 10.635 0 0 0 7.286-.284 9.21 9.21 0 0 0 1.041-.473l.568-.284c2.839 3.028 4.352 7 5.772 10.5.946 2.271 1.8 4.542 2.839 6.718v.095c.379 2.46.284 3.217.189 3.5-.473.189-2.082.757-3.406 1.325-2.176.757-4.92 1.8-6.434 2.46a14.631 14.631 0 0 1-2.176.662c-1.987.568-4.258 1.135-4.92 3.217 0 .095-.095.378-.473 1.987-.568 2.744-1.608 7.759-2.176 9.367-1.139 3.781-5.59 8.795-9.182 11.445zm-14.761 10.6c-2.176 2.933-4.069 5.677-5.866 8.327l-.757-.757-.284-.568c-.095-.189-.189-.473-.284-.662l-.284-.568 1.7-1.987c1.609-1.8 3.217-3.69 4.731-5.582a17.579 17.579 0 0 0 1.045 1.794zm-16.274 25.547zm.284-1.514a2.684 2.684 0 0 0-.757 1.041 48.808 48.808 0 0 0-7.286-1.987 128.873 128.873 0 0 0 11.922-11.922l1.7 1.135 1.041 1.041c-2.457 3.879-4.633 7.379-6.62 10.689zm-146.47 209.768a18.7 18.7 0 0 0-1.419-1.7l-.189-.189a63.071 63.071 0 0 0-6.718-6.623l-.095-.095c15.328-18.074 29.048-34.445 41.821-51.574 3.6-4.826 13.625-19.208 14.571-20.532l3.123-3.968c7-9.178 19.018-37.469 23.56-48.067.852-2.082 1.514-3.6 1.8-4.069 1.609-3.406 2.649-12.868-1.419-15.612-.852-.568-1.608-1.041-29.805 37.185-14.666 19.965-29.9 40.97-33.779 46.458-3.122 4.447-15.612 18.451-24.79 28.764-4.069 4.542-7.57 8.516-9.083 10.313l-6.529 5.961a36.759 36.759 0 0 0-13.436-12.68c12.4-13.814 22.614-25.358 31.981-36.239a215.688 215.688 0 0 0 15.234-19.4 133.323 133.323 0 0 0 11.07-19.965 284.439 284.439 0 0 0 10.692-28.48l11.544-26.493.189-.284.095-.189a5.628 5.628 0 0 1 5.583-3.879h.189l.946-.662c2.839-1.892 5.677-3.974 7.286-5.109.095.095.284.189.473.379a19.19 19.19 0 0 0 3.028 1.987c.852.284 2.555-.568 5.866-2.555-.852 1.514-1.7 3.312-2.271 4.542a1.4 1.4 0 0 0 0 1.23 1.5 1.5 0 0 0 .946.757l3.406.852-7.948 17.883.189.284c.189.284 1.987 2.649 3.6 1.8l14.1-7.664a.093.093 0 0 0 .095-.095c3.879-2.176 4.731-1.892 4.731-1.892a2.513 2.513 0 0 1 .568.473 5.407 5.407 0 0 0 .757.662 4.5 4.5 0 0 0 2.271.568c1.8-.189 2.839-1.514 3.785-2.649l.284-.378c1.135-1.325 2.271-2.744 3.5-4.258 2.649-2.46 16.369-21.857 20.911-30.657 1.23-2.365 2.176-4.542 3.028-6.623 2.365.946 10.314 3.879 13.625 3.974.852 0 2.082-1.23 5.393-5.393l.095-.189c3.69 1.041 7.38 1.987 11.165 2.744-3.879 15.423-10.219 29.805-15.9 41.916-7.38 15.612-35.766 59.421-40.5 66.328-4.92 7.191-41.916 58.759-42.295 59.232a11.536 11.536 0 0 1-2.555 2.839l-.189.095c-10.219 10.787-21.195 21.195-30.657 29.9-1.987 1.135-6.056 3.879-7.853 5.2-1.043-.379-3.03-2.839-4.07-4.164zm53.365-197.565a1.168 1.168 0 0 0-.757-.378 11.74 11.74 0 0 0-3.5 1.23c-.095 0-.095.095-.189.095 3.406-5.677 7.948-10.976 12.3-16.085.946-1.135 1.892-2.176 2.744-3.217q2.271-2.7 3.974-4.826a58.9 58.9 0 0 1 10.787-11.165c1.23-1.041 4.542-2.082 6.15-.852 1.135.852 2.271 3.69-2.176 12.963-1.23 2.555-2.839 5.866-4.542 9.083a59.6 59.6 0 0 1-6.813 9.935c-1.609 1.987-3.217 4.163-4.731 6.34-1.419 2.082-5.3 7.1-7.286 9.557a8.867 8.867 0 0 0-.946-4.258 1.334 1.334 0 0 0-1.136-.662c-.473 0-1.8.662-12.868 8.327.757-1.325 1.7-2.744 2.555-4.258 6.718-10.693 6.812-11.166 6.434-11.829zm19.87 20.532a2.023 2.023 0 0 0-1.7-.852h-.284a7.3 7.3 0 0 0-1.419.189c.757-.757 1.419-1.514 2.176-2.271.662-.662 1.325-1.419 1.987-2.082 3.312-3.5 6.245-7.286 8.705-10.408l1.325-1.7c4.92-6.245 10.03-12.774 15.612-18.64 6.339-6.718 8.61-5.866 8.989-5.583a.826.826 0 0 1 .379.757q-1.135 3.406-2.271 6.529c-1.609 4.542-3.312 8.516-5.015 12.3a132.912 132.912 0 0 1-13.057 23.087c-1.987 2.744-4.258 5.488-7.1 8.705 0-.189-.095-.284-.189-.473a2.3 2.3 0 0 0-1.609-1.609 2.427 2.427 0 0 0-2.46.568c-3.312 2.649-6.813 5.2-10.6 7.759 2.46-4.353 4.636-8.8 6.623-13.152a3.036 3.036 0 0 0-.092-3.123zm13.531-36.334c.852-1.609 1.609-3.122 2.366-4.636.852.757 1.8 1.419 2.649 2.176-3.312 3.312-11.733 14.288-18.735 23.466 5.767-8.799 12.584-18.92 13.719-21.005zm33.211-8.61c1.892 5.109 2.082 10.692 1.987 15.991a6.031 6.031 0 0 1-.662-.189l-.379-.095q-2.555-.71-5.109-1.7c.189-.662.378-1.23.568-1.892 1.892-5.866 3.785-11.354-1.8-15.518-5.393-3.974-13.341 1.892-17.41 5.015-.378-.284-.946-.662-1.514-1.135-2.176-1.7-3.312-2.46-3.879-2.839a40.409 40.409 0 0 0 2.082-8.043c.284-2.176-2.555-4.352-3.785-5.2-3.122-2.176-7.664-3.879-10.881-2.933.095-.473.189-.852.284-1.325.095-.378.473-1.419.473-1.609.189-.568.473-1.135.757-1.8 2.365.662 12.49 3.69 16.653 5.583a122.866 122.866 0 0 1 13.909 7.191 20.132 20.132 0 0 1 8.706 10.494zm24.6-3.785c-3.122 3.6-13.057 13.72-15.991 16.653-.568-2.933-1.135-5.677-1.8-8.327l-.378-1.514c-1.041-4.447-2.176-9.083-4.258-13.152-2.365-4.542-6.718-7.286-10.124-9.083a123.857 123.857 0 0 0-13.814-6.056 111.832 111.832 0 0 0-13.152-3.879c7.38-8.7 12.017-14.1 12.49-14.477l.095-.095c14.666-16.937 17.6-20.059 18.072-20.438 1.514-1.23 3.028-2.46 4.636-3.785 6.623-5.488 14.193-11.638 21.289-15.991 1.8-1.135 12.49-.378 23.939 9.84 9.083 8.043 14.477 20.532 13.436 26.493-.473.757-4.069 5.583-7.57 10.219-5.393 7.191-11.449 15.234-12.3 16.653zm22.709-88.564c-.852-.378-1.8-.662-2.839-1.041l6.623-8.7a37.916 37.916 0 0 0 14.761-10.03c.189-.189.378-.473.568-.662a20.949 20.949 0 0 0 5.866 2.46c-3.69 8.137-7.853 16.369-12.3 24.317-1.041-.568-2.082-1.041-3.122-1.609-2.93-1.611-6.245-3.315-9.557-4.734zm12.49 15.612c.568.284 1.23.662 1.8.946a8.777 8.777 0 0 0 .946.473 42.042 42.042 0 0 0-3.974 5.2 39.254 39.254 0 0 0-4.069-5.488l2.834-2.549zM687.146 150.9a53.837 53.837 0 0 1 8.61 2.839l6.623 3.406c-.473.473-.946.852-1.419 1.325a53.474 53.474 0 0 0-7.759-4.826c-1.986-.944-4.068-1.895-6.055-2.744zm44.471-29.521l-.284.189-.095.284c0 .189-.379.284-.757.284-3.785.378-14.95-4.636-17.031-9.935-.852-2.082-.189-3.879 1.892-5.583 2.933-2.365 3.974-5.2 4.92-7.759 1.135-2.933 2.082-5.583 5.583-6.813a28.634 28.634 0 0 1 4.447 5.677 26.109 26.109 0 0 1 1.325 23.654zm-19.586-22.143a10.207 10.207 0 0 1-1.135 2.744 11.01 11.01 0 0 0-4.826 8.232c-.189 3.785 1.7 7.475 5.866 10.881.095.095.095.095.095.189 0 .473-1.514 1.514-2.365 2.082a16.419 16.419 0 0 0-1.892 1.419c-2.649 2.46-6.15 4.352-11.165 5.677-8.137 2.271-16.653 3.122-24.979 3.974-1.514.189-2.933.284-4.447.473-9.083.946-19.775 2.365-30.089 5.3l-7.38 2.271c-6.718 2.082-13.625 4.258-20.627 5.3a46.037 46.037 0 0 1-7.191.568h-.284c-2.082 0-4.447.095-6.245-.852a3.551 3.551 0 0 1-1.8-2.082 1.435 1.435 0 0 1 .284-1.23c.757-.946 2.271-1.325 3.69-1.609a4.163 4.163 0 0 1 .946-.189c6.907-1.8 10.408-4.826 14.95-8.61 1.325-1.135 2.649-2.271 4.258-3.5 10.5-8.232 21.857-10.5 31.887-12.49 6.339-1.23 11.827-2.365 16.18-4.731 6.434-3.6 10.03-7.38 14.287-11.733 1.325-1.419 2.744-2.839 4.353-4.447 6.245-6.15 16.653-12.206 26.02-12.206h.757c5.015.189 7.475 1.8 8.8 2.839-4.731 2.079-6.718 8.04-7.948 11.73zm-218 339.778c-8.137 7.475-15.234 14.287-21.005 22.519a5.282 5.282 0 0 0-.473.757l-.284.473a60.488 60.488 0 0 0-10.5 20.722c-.095.473-.284.946-.378 1.514-.946 3.5-1.987 7.475-4.731 9.84a48.932 48.932 0 0 1 0-8.326c.095-1.135.095-2.176.189-3.217l.284-10.881c.378-3.6.852-7 1.325-10.219l.284-1.7a58.66 58.66 0 0 1 1.325-7.1c.378-1.609 1.987-2.176 3.6-2.839.568-.189 1.135-.473 1.608-.662a42.989 42.989 0 0 0 19.4-19.492c4.525 3.028 9.069 7.475 9.353 8.61z" data-name="Path 9900" transform="translate(-.011)"/>
    </g>
</svg>
