<svg xmlns="http://www.w3.org/2000/svg" width="224" height="385.499" viewBox="0 0 224 385.499">
    <defs>
        <style>
            .prefix__cls-3{fill:#fff;stroke-width:2px;stroke:#70c1a6}.prefix__cls-4{fill:#70c1a6}.prefix__cls-11{fill:#030504}.prefix__cls-12{stroke:none}.prefix__cls-13{fill:none}
        </style>
    </defs>
    <g id="prefix__Group_8602" data-name="Group 8602" transform="translate(-1097 -1137.501)">
        <g id="prefix__Group_8597" data-name="Group 8597">
            <g id="prefix__Rectangle_4678" fill="#fff" stroke="#e3724c" stroke-width="2px" data-name="Rectangle 4678">
                <path d="M0 0H220V326H0z" class="prefix__cls-12" transform="translate(1097 1192)"/>
                <path d="M1 1H219V325H1z" class="prefix__cls-13" transform="translate(1097 1192)"/>
            </g>
            <path id="prefix__Rectangle_4679" fill="#e3724c" d="M0 0H217V326H0z" data-name="Rectangle 4679" transform="translate(1104 1185)"/>
            <g id="prefix__Rectangle_4680" class="prefix__cls-3" data-name="Rectangle 4680">
                <path d="M0 0H220V326H0z" class="prefix__cls-12" transform="translate(1097 1192)"/>
                <path d="M1 1H219V325H1z" class="prefix__cls-13" transform="translate(1097 1192)"/>
            </g>
            <path id="prefix__Rectangle_4681" d="M0 0H217V326H0z" class="prefix__cls-4" data-name="Rectangle 4681" transform="translate(1104 1185)"/>
        </g>
        <text id="prefix__Enterprising_Pitch_Girl_Challenge" fill="#fff" data-name="Enterprising ‘Pitch’ Girl Challenge" font-family="Arial-Black, Arial Black" font-size="24px" font-weight="800" transform="translate(1115 1389)">
            <tspan x="13.51" y="26">Enterprising </tspan><tspan x="25.826" y="57">‘Pitch’ Girl </tspan><tspan x="28.65" y="88">Challenge</tspan>
        </text>
        <path id="prefix__Path_18296" d="M.109 30.943c.918 12.292 11.324 18.474 17.1 19.124s16.282 7.922 24.571 1.7 14.642-14.234 12.946-29.908S33.281-1.086 18.622.131-.809 18.651.109 30.943z" class="prefix__cls-3" data-name="Path 18296" transform="rotate(59 -397.496 1645.87)"/>
        <text id="prefix___4" fill="#70c1a6" data-name="4" font-family="Arial-Black, Arial Black" font-size="32px" font-weight="800" transform="translate(1183 1152)">
            <tspan x="15.828" y="35">4</tspan>
        </text>
        <g id="prefix__Group_8540" data-name="Group 8540" transform="translate(1140 1224)">
            <path id="prefix__Path_18485" fill="#fff" d="M1028.668-83.223c.037.205 4.673 103.708-66.307 135.712v.022l-.024-.011-.024.011v-.021C890.752 21.775 893.469-81.794 893.5-82c8.883 5.11 21.83 7.318 35.441 5.179 14.551-2.287 26.246-8.971 31.973-17.153l.039-.029v-.034l.024.017.024-.017V-94l.039.027c5.878 8.078 17.695 14.549 32.286 16.572 13.651 1.889 26.554-.552 35.342-5.822z" data-name="Path 18485" transform="translate(-890.972 94.038)"/>
            <path id="prefix__Path_18486" fill="#696a6a" d="M956.01-91.724s-22.5 78.73 1.346 145.822c0 0-68.162-17.454-68.094-133.741 0 0 39.88 18.67 66.748-12.081z" data-name="Path 18486" transform="translate(-889.262 93.101)" style="isolation:isolate;mix-blend-mode:multiply" opacity="0.19"/>
            <g id="prefix__Group_8538" data-name="Group 8538" transform="translate(2.51)" style="mix-blend-mode:overlay;isolation:isolate" opacity="0.5">
                <path id="prefix__Path_18487" fill="#c4c4c3" d="M1028.668-83.223c.037.205 4.673 103.708-66.307 135.712v.022l-.024-.011-.024.011v-.021C890.752 21.775 893.469-81.794 893.5-82c8.883 5.11 21.83 7.318 35.441 5.179 14.551-2.287 26.246-8.971 31.973-17.153l.039-.029v-.034l.024.017.024-.017V-94l.039.027c5.878 8.078 17.695 14.549 32.286 16.572 13.651 1.889 26.554-.552 35.342-5.822z" data-name="Path 18487" transform="translate(-893.482 94.038)"/>
            </g>
            <path id="prefix__Path_18488" d="M1026.924-57.907l-.015-1.966-.122.123c.01-.478.024-.991.039-1.532.033-1.134.067-2.362.065-3.609h.03c.059-1.349.042-2.864-.05-4.768l-.172-5.324.108-.635-.514-.286-.6-.183-1.366 1.07c-.478.424-.873.768-1.248 1.064-.324.24-.472.343-.686.488l-.01-.012-.247.183a4.753 4.753 0 0 1-.8.456c-.089.04-.179.083-.271.132-.417.2-.847.355-1.168.475a1.763 1.763 0 0 0-.967.6 1.038 1.038 0 0 0-.412.4l-.093.041a6.159 6.159 0 0 0-1.326.334l-.227.076a7.534 7.534 0 0 1-1.548.259h-.1l-.1.023a16.071 16.071 0 0 1-2.461.352c-.3.032-.595.053-.874.071l.12-.019-4.594-.3-.246-.024h-.174l-1.968-.128c-.23-.064-.407-.115-.545-.157l.036-.238a28.3 28.3 0 0 1-2.787-.544l-2.254-.65c-.268-.087-.584-.181-.911-.279a12.931 12.931 0 0 1-2-.7c-.41-.206-1.074-.5-1.911-.87-1.225-.541-2.829-1.25-4.548-2.093a69.5 69.5 0 0 1-8.323-4.742l-2.58-1.736.024-.039c-1.262-.814-2.157-1.494-2.948-2.093-.481-.365-.944-.716-1.444-1.064l-.314-.34-.143-.122c-.084-.057-.16-.108-.228-.156l.06-.08c-1.889-1.5-2.632-1.931-3.179-2.018a17.8 17.8 0 0 0-1.958-1.721l.081-.087-2.168-2.058-.556.4a1.514 1.514 0 0 0-.253.244l-1.415 1.525c-.454.505-.923.959-1.283 1.309a6.338 6.338 0 0 0-.736.783c-.361.294-1.07.876-1.164.983a35.634 35.634 0 0 1-3.553 2.466l-.359.227.064.1a11.323 11.323 0 0 1-1.534.846c-.256.127-.535.265-.838.42l-3.122 1.341a17.2 17.2 0 0 1-2.638.9l-3.129.908.239.05-.423.086c-.8.162-1.629.33-2.363.5l.012.071c-.47.058-1 .091-1.476.121l-.732.011c-.343 0-.676.008-.981.018l-.016-.123c-1.686.109-2.083.156-2.358.447-.072.012-.161.025-.272.04a2.817 2.817 0 0 0-1.484-.148c-.206 0-.594.028-1.1.061a33.373 33.373 0 0 1-6.215.015l-.036.187-.242-.006a31.151 31.151 0 0 1-3.249-.4c-.949-.147-1.828-.27-2.607-.339l-.124-.059-.255-.073a4.5 4.5 0 0 0-.785-.049c-.745-.081-1.905-.265-2.975-.435-.91-.145-1.751-.277-2.22-.33a31.031 31.031 0 0 0-4.5-1.18c-1.091-.243-2.491-.556-3.245-.777l.048-.14-4.912-1.44c-2.006-.634-3.077-.917-3.89-1.1l-3.181-1.078-2.91-.907-.228-.065a1.157 1.157 0 0 0-1.278.148 1.015 1.015 0 0 0-.189 1.1l.013.09c.1.724.235 1.651.353 2.323l-.1.373.036.185c.055.286.131 1.188.221 2.232.16 1.878.4 4.66.775 7.112l-.046.008c.266 1.716.468 3.7.663 5.622.353 3.476.6 5.7 1.047 6.765l.516 2.823.3-.046.009.079c-.256.355-.153 1.118.13 3.218.03.222.064.47.094.712l-.105-.043.535 3.544c1.031 6.838 2 13.3 3.349 19.592l.566 2.652-.057.028.871 3.785.031-.845c.152.449.311.962.655 2.147.111.4.149.612.177.556a1.076 1.076 0 0 0 .037.584 6.5 6.5 0 0 0 .249.839 17.385 17.385 0 0 0 .777 2.174c.12.292.239.584.351.877l.2-.061.049.116a3.9 3.9 0 0 0 .432.838c.661 1.786 2.095 4.97 3.286 7.612.725 1.611 1.353 3 1.541 3.507.73 1.4 1.356 2.859 2.08 4.543l.451 1.048.169-.065c.055.106.137.272.253.53-.053.466.272 1.222.965 2.835.379.886.808 1.883 1.008 2.506.013.048.028.1.047.149l.231-.074-.153.1c.114.17.43.8.775 1.466A19.661 19.661 0 0 0 916.38 8.9a2.835 2.835 0 0 0 .281.84l.768 1.352a76.754 76.754 0 0 0 6.81 10.567l.146.181.221.077.419.537c.328.51.658 1.021 1.067 1.589a5.782 5.782 0 0 0 .656.628 6.041 6.041 0 0 1 1.151 1.313l.1-.064.047.047c4.686 5.646 10.4 10.681 15.932 15.551 2 1.761 3.993 3.517 5.935 5.295l.074-.076c.14.114.3.25.469.387.19.168.509.436 1.068.882l.075-.091c.662.607 1.324 1.216 2.031 1.8l.193.12a7.4 7.4 0 0 1 .727.447c.424.275.939.607 1.466.9.051.029.123.062.179.092l-.117.219a12 12 0 0 0 1.544.768l.143-.31a3.3 3.3 0 0 0 .914.2c.03 0 .057 0 .085-.005l.182.141a4.781 4.781 0 0 0 .423.291l.2.125h.241a8.05 8.05 0 0 0 1-.094l.058.318a3.244 3.244 0 0 0 1.028-.2l.036-.017a.755.755 0 0 0 .432-.648v-.142c2.524-.556 4.472-2.357 5.917-3.71.825-.773 1.611-1.523 2.417-2.285l.386.289 1.1-1.206-.262-.238c.5-.479 1.025-.968 1.523-1.443l.39.323c.643-.629 1.353-1.343 2.046-2.044 1.022-1.032 2.013-2.031 2.7-2.663l-.12-.152c.416-.4.622-.661.617-.943.249-.246.49-.49.737-.735l.948-.7.576.4.585-.538a2.248 2.248 0 0 0 .4-.465l2.246-2.227c.134-.108.368-.322.578-.521.12-.112.224-.212.274-.255l-.03-.04.027-.027.058.049c.244-.268.447-.5.6-.7l1.841-1.826-1.2.754 2.656-3 .022.017.34-.424.015-.018.142-.161-.033.021c.154-.191.3-.375.415-.529l.261.234.311-.311c.225-.225.474-.479.637-.628l.306-.041.257-.852.227-.279-.036-.03.6-.741-.138.305.908-1.165.351-.261a6.68 6.68 0 0 0 1-.946l-.087-.092.181-.2.269.182.922-1.316-.375-.261.4-.514h.443l.245-.332-.233-.252.051-.065.268.2-.112-.1.132.1-.015-.02.034.03c.033-.032.037-.058.065-.089l.083-.09c.131-.171.247-.336.368-.515l-.3.656.637-.851a2.3 2.3 0 0 0 .623-.448l-.067-.094.144.105c.7-.88 1.239-1.667 1.715-2.388l-.073-.049 1.414-2.032.031-.04a4.934 4.934 0 0 0 .94-1.161l.182-.411c.252-.352.509-.7.754-1.056l.06-.076-.822 3.062 4.038-7.569-.163-.092.006-.009-.152-.11c.083-.1.182-.225.305-.388l.142 1 1.642-2.93-.481-.3a1.216 1.216 0 0 0 .517-.5l.2.152a3.916 3.916 0 0 0 .562-.719 6.822 6.822 0 0 1 .657-.87l-.14-.111.055-.1.1.04c.076-.18.57-1 .9-1.544.171-.283.312-.52.441-.739l.118-.069-.043-.057.14.079c.023-.039.051-.087.081-.144l.719-1.282-.12-.066c.225-.344.438-.689.648-1.043.317-.532.661-1.114 1.141-1.806l1.394-2.008-.557.187.09-.156a1.611 1.611 0 0 0 .314-.522l.457-.932-.261-.126.018-.041c.478-.06.8-.611 1.269-2.057l.242-.779.122.052.914-1.976a34.567 34.567 0 0 0 1.664-3.863c.223-.517.445-1.2.6-1.678h.016l1.122-3.276c.505-1.451.931-2.971 1.346-4.526l.395-1.266c.3-.961.522-1.729.7-2.411a20.312 20.312 0 0 0 .657-2.933l-.048-.01.634-3.5.4-1.773a33.62 33.62 0 0 0 .493-3.706 56.958 56.958 0 0 0 .819-8.874l.064-1.269-.142-.105c.065-1.583.069-3.166.053-5.273zm-55.16-24.541c.438.344.877.688 1.279.98a30.343 30.343 0 0 0 3.334 2.442c.446.322 1.047.676 1.477.921l-.008.015.548.333c.68.412 1.359.825 2.049 1.22l.3.209c1.328.811 2.744 1.561 4.2 2.31l.964.559c.851.493 1.539.869 2.161 1.171a16.019 16.019 0 0 0 2.684 1.253l.013-.029 3.991 1.761a32.974 32.974 0 0 0 4.354 1.529 23.589 23.589 0 0 0 4.338 1.266 52.358 52.358 0 0 0 5.235.733l.445.047.124-.154a25.636 25.636 0 0 0 5.4-.2l1.9-.283-.179-.136a23.165 23.165 0 0 0 4.44-1.2l.009.026a10.228 10.228 0 0 0 1.074-.43l.635-.289.046 1.272c.024.829.021 1.631-.024 2.5a12.924 12.924 0 0 1 .014 1.663h-.015v.246l-.066 1.063-.08.757c-.136 1.244-.189 1.755.066 2.05a.994.994 0 0 0 .2.506c0 .064.009.127.014.187a7.293 7.293 0 0 0-.1 1.567 7.154 7.154 0 0 1-.1 1.606l-.043.176.027.168c.032.2.021 1.181.012 1.894a27.4 27.4 0 0 0 .041 2.781c-.035.357-.064.69-.089 1l-.578-1.914.305 6.332c-.036.193-.067.364-.1.51l-.253-.005c-.084 1.81-.139 2.367-.2 3.035l-.058.612-.207 1.37c-.049.324-.094.715-.139 1.114a11.813 11.813 0 0 1-.288 1.818c-.138.452-.309 1.2-.524 2.141-.281 1.229-.641 2.8-1.109 4.5a74.031 74.031 0 0 1-2.922 8.752l-1.13 2.779-.045-.016c-.48 1.247-.914 2.177-1.3 3-.29.623-.553 1.189-.8 1.8l-.25.361-.1.2c-.018.054-.046.128-.08.211l-.093-.04c-1.03 2.113-1.25 2.92-1.2 3.441a14.744 14.744 0 0 0-1.163 2.232l-.1-.054-1.732 3a19.826 19.826 0 0 0-1.39 2.525c-.316.443-.776 1.256-.82 1.343-.671 1.068-1.014 1.58-1.4 2.152-.3.453-.633.944-1.165 1.771l.1.07a10.482 10.482 0 0 1-.747 1.084c-.225.3-.477.642-.754 1.041l-.187.238c-1.211 1.54-1.507 1.985-1.745 2.342a24.637 24.637 0 0 1-1.789 2.289l-1.971 2.398.422-.165c-.656.745-1.375 1.57-1.955 2.343l.057.048c-.422.451-.965.951-1.465 1.41-.284.262-.562.518-.808.755l-.1-.08c-1.151 1.219-1.394 1.509-1.382 1.913-.036.049-.082.111-.143.187-.375.073-.681.418-1.124.918-.242.231-.627.7-1.284 1.511a38.671 38.671 0 0 1-3.476 3.922l.125.145-.142.168c-.479.534-1.145 1.171-1.83 1.829-.8.773-1.616 1.559-2.235 2.266l-.115.063-.217.173a4.429 4.429 0 0 0-.471.593c-.347.385-.837.907-1.355 1.459-.868.925-1.694 1.8-2.093 2.294a26.632 26.632 0 0 0-3.6 3.376c-.644.663-1.464 1.506-1.975 1.978l-.1-.114-3.629 3.419c-1.545 1.423-2.286 2.205-2.826 2.777l-.528.411a6.239 6.239 0 0 1-2.994 1.463 5.2 5.2 0 0 1-2.712-.341l-.235-.272-.2-.074a14.035 14.035 0 0 1-2.68-1.933l-.283-.245c-1.231-1.064-2.613-2.259-3.96-3.314l.028-.036c-1.578-1.217-3.34-2.828-4.9-4.25a28.707 28.707 0 0 0-4.342-3.6l-2.131-1.8-.2.222-.035-.035c-.031-.407-.541-.913-1.873-2.234-.211-.208-.466-.462-.7-.7l.093-.03-.918-.918a88.369 88.369 0 0 1-13.111-16.391l-1.3-2.138.072-.061-1.065-1.9-.045.022-.228-.344a15.533 15.533 0 0 1-1.227-2.155c-.169-.365-.24-.524-.249-.457a1 1 0 0 0-.118-.57 6.081 6.081 0 0 0-.367-.786l-1.263-2.721-.193.072-.075-.158a3.7 3.7 0 0 0-.4-.7c-.739-1.931-2.39-5.712-3.538-8.341-.514-1.177-.911-2.086-1.078-2.488-.858-1.629-1.587-3.264-2.524-5.394l-.167.067c-.054-.1-.133-.261-.246-.506a6.466 6.466 0 0 0-.736-2.306 19.681 19.681 0 0 1-1.044-2.882l-.462.092.349-.171c-.086-.173-.391-1.08-.593-1.681a18.9 18.9 0 0 0-.688-1.88 2.631 2.631 0 0 0-.083-.889 78.2 78.2 0 0 1-2.067-9.209c-.232-1.253-.468-2.527-.723-3.805l-.046-.231-.164-.171-.248-2.419a5.045 5.045 0 0 0-.25-.835 4.583 4.583 0 0 1-.29-1.615h-.116l-.015-.07c-.366-2.585-.766-5.2-1.168-7.829-1.045-6.825-2.125-13.883-2.641-20.8l-.108.007-.071-.568c-.021-.245-.071-.648-.171-1.336l-.111.015-.183-2.54-.053-.234a20.393 20.393 0 0 1-.343-2.319c0-.038-.008-.068-.013-.1l.248-.032-.1-1.442-.333.013a3.254 3.254 0 0 0-.2-.819l.109-.266c3.023.965 5.98 1.887 8.9 2.733l-.058.472 1.56.322.079-.354c.657.185 1.315.369 1.969.545l-.084.507c1.191.315 2.594.623 3.864.9.98.215 1.88.413 2.528.582l.065-.183a3.74 3.74 0 0 0 .729.119.711.711 0 0 0 .322-.071l2.132.637-.007.325-.222.022.221.036v.1l-1.846.232 4.934.407 2.4.407.09.018.056.01v.027c.1.008.168.009.259.017l2.91.492-1.481-.63h.1v-.008l4.322.2v.009h.129l.456.021-.088-.03c.357-.008.661-.02.91-.039v.355l.454.023c.3.013.626.025.839.044l.24.216.786-.386.371-.017v-.049l1.736-.152.211-.006.509.1a3.36 3.36 0 0 0 .716.057c.188 0 .423-.007.724-.022v-.119l.275-.023.064.311.534-.1c.354-.063.707-.127 1.058-.21l-.085-.359.813.008.1.094.493-.088h.074v.021c.042 0 .061-.017.1-.021h.059l.072-.012c.3-.054.552-.113.791-.177a1.728 1.728 0 0 0 .97.185l.01-.106.037.165a21.009 21.009 0 0 0 2.832-.742l.3-.087a9.2 9.2 0 0 0 1.114-.366l-.03-.074.935-.308.06-.015c1.235-.216 1.416-.349 1.534-.438l.212-.159c.159-.058.322-.1.482-.163l.836-.3.111-.04.2-.068-2.656 2.622 6.187-3.9.4-.243c.325-.2.65-.4.959-.62l-.192-.278-.015-.029c.123-.051.271-.114.469-.2l-.13-.305.064-.035.147.173-.4 1.226 2.767-1.967-.29-.459h.01a1.3 1.3 0 0 0 .651-.227l.11.213a3.528 3.528 0 0 0 .845-.44 6.087 6.087 0 0 1 .913-.517l-.081-.162.086-.065.071.074c.08-.075.266-.212.5-.387.3-.228.674-.508.993-.77.228-.17.429-.323.616-.472l.127-.03-.018-.057c.039-.032.081-.064.118-.1l.043.054.109-.086.045.042 1-.918-.1-.108c.243-.191.487-.371.731-.59l.024-.023.9 2.634.209-2.325a1.686 1.686 0 0 0 .4.369l.769.653.193-.219.025.02c-.063.5.452.934 1.671 1.679l.693.41-.08.1zm-41.247 7.459l.013.383-1.329-.453q.657.041 1.316.07zM982.863 35.1l.134-.123a.51.51 0 0 1-.067.183zm5.25-6.508c.283-.3.561-.607.842-.911l.255.2zm12.044-12.875l.061-.081v.122zm6.482-10.017l.037-.06.173.066.025.178z" class="prefix__cls-11" data-name="Path 18488" transform="translate(-890.514 93.35)"/>
            <path id="prefix__Path_18489" d="M988.554-38.052L993.3-35.9l7.35 12.213 5.881.9 4.071 4.184-2.6 8.255 5.883 11.648-.34 5.429-18.092-1.357-19.224 4.3-8.934 4.524s10.4 15.266 10.63 15.945-2.149 4.636-2.149 4.636l-9.159-4.523-7.35-11.535s-3.845 1.018-4.071.679-5.089-10.4-5.089-10.4l4.976-6.333 12.891-9.726 6.446-5.315 4.523-7.124 3.732-7.8z" class="prefix__cls-4" data-name="Path 18489" transform="translate(-913.913 71.355)"/>
            <g id="prefix__Group_8539" data-name="Group 8539" transform="translate(35.205 30.2)">
                <path id="prefix__Path_18490" d="M1009.518-8.994l-.779-1.306a1.624 1.624 0 0 1-.276-.723 1.8 1.8 0 0 0 .226-.247 12.9 12.9 0 0 0 2.628-5.555 7.47 7.47 0 0 0-1.218-5.441 9.471 9.471 0 0 0-4.655-3.482l-.017-.007c-.117-.042-.237-.079-.356-.118-.1-.033-.2-.068-.307-.1a14.29 14.29 0 0 0-4.239-.536 1.5 1.5 0 0 0-.083-.172q-2.616-4.3-5.5-8.424a18.89 18.89 0 0 0-2.811-3.632 4 4 0 0 0-1.934-.981 3.167 3.167 0 0 0-.573-.037 4.024 4.024 0 0 0-2.929.143 3.484 3.484 0 0 0-1.834 2.144 57.711 57.711 0 0 1-17.751 26.891c-2.777 2.394-5.7 4.719-8.528 6.967l-2.025 1.618a13.509 13.509 0 0 0-2.309 1.839l-.064.067q-1.239 1.007-2.467 2.031a8.285 8.285 0 0 0-3.117 5.249 6.252 6.252 0 0 0-.149 1.045 11.162 11.162 0 0 0 1.6 5.638c.717 1.366 1.458 2.721 2.2 4.075q.512.936 1.021 1.874a1.359 1.359 0 0 0 .1.157 1.489 1.489 0 0 0 .592 1.017 1.327 1.327 0 0 0 1.212.168c.829-.266 1.667-.584 2.5-.939 2.255 3.213 4.445 6.5 6.941 9.532a31.32 31.32 0 0 0 4.037 4.164c.187.157.382.308.581.449a5.734 5.734 0 0 0 6.267 1.02 5.51 5.51 0 0 0 3.293-6.305 8.447 8.447 0 0 0-1.745-3.427c-.424-.541-.854-1.083-1.283-1.625-.969-1.54-2.211-2.9-3.324-4.341-1.426-1.846-2.316-4.118-4.049-5.72a64.114 64.114 0 0 1 7.574-3.339q1.348-.477 2.7-.926a64.953 64.953 0 0 1 22.239-2.988c2.646.108 5.289.32 7.935.341.312.059.622.113.935.178a4.646 4.646 0 0 0 3.64-.349 3.958 3.958 0 0 0 1.55-2.718 7.83 7.83 0 0 0-.672-4.679c-1.449-2.91-3.141-5.747-4.777-8.49zm-44.437 24.837c.4.6.846 1.235 1.372 1.94l-4.545 2.682-.351-.446-.97-1.232c.541-.306 1.061-.62 1.553-.941 1.026-.669 2.013-1.346 2.941-2.003zm4.548 14.251c-.484-.528-.939-1.1-1.382-1.654l-.844-1.053q-1.568-1.956-3.13-3.916l-.489-.621c.162-.074.323-.149.484-.226q.781-.374 1.541-.786c.858-.465 1.722-.986 2.575-1.551.147.177.282.33.416.473.274.291.569.562.864.832.216.2.432.395.639.6a11.148 11.148 0 0 1 1.384 1.84c.262.4.533.819.835 1.215a11.389 11.389 0 0 0 1.065 1.168c.149.149.3.3.448.454s.275.305.4.464zm39.337-34.633c1.331 2 4.1 6.146 3.536 8.1a1.153 1.153 0 0 1-.364.579l-.043-.065a1.9 1.9 0 0 0-.44-1.375c-.838-1.059-1.616-2.16-2.354-3.288-.215-.4-.431-.806-.642-1.206-.535-1.009-1.087-2.052-1.651-3.037l-13.17-22.987c-.717-1.25-1.322-2.254-1.906-3.16-.382-.594-.786-1.17-1.19-1.747-.437-.625-.889-1.27-1.3-1.921-.308-.488-1.126-1.785-.761-2.351a.524.524 0 0 1 .109-.122.31.31 0 0 1 .083-.048c.059-.008.118-.017.176-.023a1.988 1.988 0 0 1 1.018.636 14.1 14.1 0 0 1 2.619 3.887c.4.757.807 1.54 1.291 2.286 1.061 1.636 2.043 3.385 2.992 5.075.442.787.883 1.573 1.333 2.35 2.9 5.011 5.828 10.121 8.692 15.12l1.242 2.169c.14.243.401.635.73 1.128zm-7.69-18.851a5.374 5.374 0 0 1 5.724 2.211c1.7 2.314 1.608 4.913-.239 7.383zm-38.4 21.255c.251-.257.5-.516.773-.76.609-.551 1.28-1.068 1.928-1.569.582-.449 1.184-.914 1.753-1.41a54.38 54.38 0 0 0 4.728-4.7c.641-.6 1.281-1.238 1.9-1.911 1.532-1.661 2.989-3.432 4.4-5.144q.709-.86 1.419-1.716a32.152 32.152 0 0 0 2.737-3.621c.724-1.17 1.335-2.414 1.926-3.618l.128-.261a47.538 47.538 0 0 0 2.031-4.6c2.676 4.609 5.651 9 8.728 13.362 3.311 4.7 5.829 9.833 8.644 14.826a65.462 65.462 0 0 0 4.7 7.265c-.491-.017-1.007-.049-1.583-.1-1.1-.152-2.227-.28-3.338-.38a30.955 30.955 0 0 0-3.51-.228 63.281 63.281 0 0 0-31.84 7.079l-2.642-4.6c-.258-.554-.516-1.05-.789-1.518-.527-.9-1.071-1.8-1.611-2.671l-1.55-2.7a13.714 13.714 0 0 0 1.064-1.025zm-11.137 12.772l-.021-.057c.347-.291.714-.579 1.089-.862.9-.548 1.9-1.227 2.548-1.675a26.769 26.769 0 0 1 2.971-1.481 1.247 1.247 0 0 0 .69-.777 1.549 1.549 0 0 0-.11-1.235 1.467 1.467 0 0 0-1.92-.55 27.739 27.739 0 0 0-4.386 2.347l-.387.219-.2.112a7.876 7.876 0 0 1 2.382-2.433c1.586-1.146 3.238-2.293 5.036-3.5l.352.565c.925 1.482 1.881 3.014 2.764 4.547a20.865 20.865 0 0 1 1.3 2.877l.079.2a11.174 11.174 0 0 0 1.672 2.915c-.142.114-.285.227-.429.338l-9.444 5.42zm24.2 20.138a1.759 1.759 0 0 1-.694 1.127 2.99 2.99 0 0 1-3.054.161c.583-.3 1.1-.589 1.6-.877q.826-.481 1.632-1c.127-.081.253-.163.382-.248a1.776 1.776 0 0 1 .138.833z" class="prefix__cls-11" data-name="Path 18490" transform="translate(-948.445 41.927)"/>
                <path id="prefix__Path_18491" d="M1057.141-22.77a1.6 1.6 0 0 0-.865 1.028 1.793 1.793 0 0 0 .173 1.472 1.757 1.757 0 0 0 1.5.839 2.136 2.136 0 0 0 .858-.189 45.976 45.976 0 0 0 6.476-3.675 1.792 1.792 0 0 0 .6-2.451 1.9 1.9 0 0 0-1.192-.824 1.673 1.673 0 0 0-1.262.224l-.9.581c-1.666.877-3.342 1.821-4.984 2.807z" class="prefix__cls-11" data-name="Path 18491" transform="translate(-992.101 36.519)"/>
                <path id="prefix__Path_18492" d="M1065.234 6.537q-.39-.246-.763-.52l-.187-.14-.39.519.3-.585-.654-.519c-.463-.371-.926-.741-1.406-1.09a8.811 8.811 0 0 0-3.792-1.721 1.8 1.8 0 0 0-2.131 1.29 1.986 1.986 0 0 0 .289 1.507 1.543 1.543 0 0 0 1.038.676 4.876 4.876 0 0 1 .736.172c.936.589 1.876 1.178 2.761 1.715l.594.474A20.8 20.8 0 0 0 1063.4 9.6a1.682 1.682 0 0 0 .9.253 1.85 1.85 0 0 0 .481-.064 1.728 1.728 0 0 0 1.092-.843 1.817 1.817 0 0 0-.639-2.409zm-1.437-.214z" class="prefix__cls-11" data-name="Path 18492" transform="translate(-992.091 24.744)"/>
                <path id="prefix__Path_18493" d="M1068.052-9.252a59.816 59.816 0 0 1-7.024-.172 1.656 1.656 0 0 0-1.276.484 1.775 1.775 0 0 0-.562 1.328 1.8 1.8 0 0 0 1.73 1.754c1.688.141 3.392.212 5.091.212q1.045 0 2.086-.036a1.882 1.882 0 0 0 1.309-.6 1.667 1.667 0 0 0 .453-1.211 1.793 1.793 0 0 0-1.807-1.759z" class="prefix__cls-11" data-name="Path 18493" transform="translate(-993.314 29.558)"/>
                <path id="prefix__Path_18494" d="M1048.8-29.37a1.9 1.9 0 0 0 .422.048 1.85 1.85 0 0 0 1.767-1.365v-.012c.045-.084.089-.167.139-.245l.043-.064a1.7 1.7 0 0 0 .183-.219l.132-.156c.141-.153.286-.3.432-.451.2-.208.407-.417.6-.636a6.6 6.6 0 0 0 1.125-1.719c.228-.523.44-1.055.651-1.585l.235-.587a1.6 1.6 0 0 0-.1-1.341 1.791 1.791 0 0 0-1.152-.932 1.815 1.815 0 0 0-2.143 1.184l-.143.355q-.848 1.388-1.652 2.8a6.9 6.9 0 0 0-1.809 2.711 1.762 1.762 0 0 0 .179 1.392 1.723 1.723 0 0 0 1.091.822z" class="prefix__cls-11" data-name="Path 18494" transform="translate(-988.563 41.414)"/>
                <path id="prefix__Path_18495" d="M1036.541-40.415c-.064 1.623-.064 3.287 0 5.081a1.8 1.8 0 0 0 1.3 2.037 1.881 1.881 0 0 0 .419.047 1.911 1.911 0 0 0 1.018-.294 1.647 1.647 0 0 0 .739-1.04 15.332 15.332 0 0 0-.184-7.369 1.819 1.819 0 0 0-.9-1.1 1.685 1.685 0 0 0-1.326-.134A1.805 1.805 0 0 0 1036.4-41c.05.193.1.388.141.585z" class="prefix__cls-11" data-name="Path 18495" transform="translate(-984.054 43.269)"/>
            </g>
        </g>
    </g>
</svg>
