<svg xmlns="http://www.w3.org/2000/svg" width="224" height="385.499" viewBox="0 0 224 385.499">
    <defs>
        <style>
            .prefix__cls-1,.prefix__cls-5{fill:#fff}.prefix__cls-1{stroke:#e3724c;stroke-width:2px}.prefix__cls-2{fill:#e3724c}.prefix__cls-10{fill:#030504}.prefix__cls-12{stroke:none}.prefix__cls-13{fill:none}
        </style>
    </defs>
    <g id="prefix__Group_8600" data-name="Group 8600" transform="translate(-600 -1137.501)">
        <g id="prefix__Group_8595" data-name="Group 8595">
            <g id="prefix__Rectangle_4674" class="prefix__cls-1" data-name="Rectangle 4674">
                <path d="M0 0H220V326H0z" class="prefix__cls-12" transform="translate(600 1192)"/>
                <path d="M1 1H219V325H1z" class="prefix__cls-13" transform="translate(600 1192)"/>
            </g>
            <path id="prefix__Rectangle_4675" d="M0 0H217V326H0z" class="prefix__cls-2" data-name="Rectangle 4675" transform="translate(607 1185)"/>
            <g id="prefix__Rectangle_4676" fill="#fff" stroke="#d389b1" stroke-width="2px" data-name="Rectangle 4676">
                <path d="M0 0H220V326H0z" class="prefix__cls-12" transform="translate(600 1192)"/>
                <path d="M1 1H219V325H1z" class="prefix__cls-13" transform="translate(600 1192)"/>
            </g>
            <path id="prefix__Rectangle_4677" d="M0 0H217V326H0z" class="prefix__cls-2" data-name="Rectangle 4677" transform="translate(607 1185)"/>
        </g>
        <text id="prefix__Enterprising_Design_Girl_Challenge" fill="#fff" data-name="Enterprising ‘Design’ Girl Challenge" font-family="Arial-Black, Arial Black" font-size="24px" font-weight="800" transform="translate(618 1389)">
            <tspan x="13.51" y="26">Enterprising </tspan><tspan x="15.15" y="57">‘Design’ Girl </tspan><tspan x="28.65" y="88">Challenge</tspan>
        </text>
        <path id="prefix__Path_18082" d="M1440.331 507.224c-.222-.14-.451-.265-.683-.382a.908.908 0 0 0-.112-.161c-1.425-1.669-3.869-1.366-5.748-.8a10.488 10.488 0 0 0-5.92 3.8 6.363 6.363 0 0 0-.122 6.66c.144.281.3.556.464.826a8.19 8.19 0 0 0 3.308 4.045c.166.1.334.2.506.295.116.063.237.122.36.177a8.232 8.232 0 0 0 3.535.8 8.413 8.413 0 0 0 .982-.06 9.178 9.178 0 0 0 2.436-.19 4.733 4.733 0 0 0 3.461-3.431c.041-.062.084-.121.124-.184a8.277 8.277 0 0 0-2.591-11.395zm-.342 9.552a4.8 4.8 0 0 1-8.149-5.074 6.441 6.441 0 0 1 1.934-1.352c1.9-.74 3.911.458 5.467 1.456.375.241.809.489 1.193.785a4.79 4.79 0 0 1-.445 4.185z" class="prefix__cls-5" data-name="Path 18082" transform="translate(-733.357 753.176)"/>
        <path id="prefix__Path_18084" d="M1507.619 503.541c-.12-2.213-.255-4.661-1.622-6.512a4.777 4.777 0 0 0-5.1-1.97.848.848 0 0 0-.418.272 1.884 1.884 0 0 0-.284.04c-.952.222-1.432 1.028-1.978 1.756-1.146 1.532-3.141 1.958-4.893 2.406a19.7 19.7 0 0 0-5.329 2.1 17.92 17.92 0 0 0-5.668 5.4 12.4 12.4 0 0 0-2.209 3.291 72.763 72.763 0 0 0-13.6-9.938c-1.142-.662-2.311-1.272-3.5-1.84-.422-.208-.84-.426-1.266-.625a47.518 47.518 0 0 0-22.715-4.655 45.8 45.8 0 0 0-21.462 6.585 36.546 36.546 0 0 0-8.215 6.929 50.436 50.436 0 0 0-3.982 4.135 49.658 49.658 0 0 0-7.675 12.1 39.812 39.812 0 0 0-2.236 5.128 57.863 57.863 0 0 0-2.707 11.968c-.942 7.5-.38 15.5 3.47 22.167a60.771 60.771 0 0 0 4.828 6.743 44.207 44.207 0 0 0 3.325 4.715c.633 1.031 1.249 2.071 1.945 3.059a17.03 17.03 0 0 0 3.875 3.917 31.169 31.169 0 0 0 4.989 2.891c1.784.862 3.6 1.684 5.456 2.372a21.577 21.577 0 0 0 11.311 1.309 19.252 19.252 0 0 0 9.126-4.364 16.441 16.441 0 0 0 3.474-4.079 9.236 9.236 0 0 0 .7-1.494c.335-.5.66-1.017.965-1.554a8.515 8.515 0 0 0 7.354 3.108 10.8 10.8 0 0 0 5.255-2.326 62.539 62.539 0 0 0 4.832-4.117 86.68 86.68 0 0 0 8.874-9.53c1.27-1.588 2.321-3.437 4.2-4.358a44.525 44.525 0 0 0 5.037-2.431 20.427 20.427 0 0 0 6.981-7.8 20.005 20.005 0 0 0 1.771-4.97 19.589 19.589 0 0 0 .358-2.526c.081-1.055-.036-2.135.123-3.182a6.886 6.886 0 0 1 1.271-2.7q1.028-1.56 2.06-3.116l1.9-2.876a15.346 15.346 0 0 1 1.833-2.444c1.432-1.436 3.484-2 4.911-3.48a13.964 13.964 0 0 0 2.862-4.822 36 36 0 0 0 1.773-14.682zm-29.925 49.846c.341-.559.689-1.113 1.038-1.667 1.488-2.075 2.942-4.174 4.334-6.312 1.237-1.451 2.457-2.916 3.59-4.44-.036.2-.066.4-.108.6a18.616 18.616 0 0 1-8.854 11.819zm-26.674 16.151a57.92 57.92 0 0 1 3.782-9.266c.707-1.447 1.494-2.978 2.34-4.56a.822.822 0 0 0 .686-.6 30.57 30.57 0 0 1 4.1-7.734q2.279-3.337 4.78-6.515c.233-.229.465-.458.695-.69a65.829 65.829 0 0 0 6.378-7.457q1.234-1.287 2.507-2.538a7.5 7.5 0 0 0 2.166-3.411c.257-.908.476-1.816.721-2.719a52.038 52.038 0 0 1 2.939-5.172l.128.107a.9.9 0 0 0 .245.258c.107.076.217.146.325.221a27.287 27.287 0 0 0 10.074 5.094 64.5 64.5 0 0 1-5.38 10.169.9.9 0 0 0-.874.356q-6.437 8.594-12.406 17.524a55.014 55.014 0 0 1-6.328 8.55c-2.5 2.52-5.117 4.932-7.679 7.389-1.443 1.384-2.852 2.819-4.35 4.143-1.2 1.06-2.768 2.238-4.472 1.976a.907.907 0 0 0-.322.008c-.975-1.237-.518-3.471-.055-5.133zm42.954-47.765a7.6 7.6 0 0 1 1.1.774q-.55-.39-1.1-.774zm-19.218-10.573c.986 1.029 1.938 2.134 2.857 3.293a24.639 24.639 0 0 1 1.2 2.6c-.13.21-.253.428-.366.653-.694 1.382-1.424 2.738-2.228 4.06a82.16 82.16 0 0 1-5.344 7.625c-3.082 3.97-6.406 7.787-9.295 11.907a.737.737 0 0 0-.227.321c-.525.759-1.04 1.525-1.531 2.309a37.578 37.578 0 0 0-3.441 6.888 23.749 23.749 0 0 0-10.091 1.961c-1.643.714-2.859 1.561-3.03 3.467a50.5 50.5 0 0 0 .016 6.391q.118 3.144.441 6.276c.065.626.149 1.261.227 1.9a17.208 17.208 0 0 1-7.4 9.1 16.758 16.758 0 0 1-9.692 2.3 23.1 23.1 0 0 1-10.514-3.706 38.568 38.568 0 0 1-13.263-14.744 56.039 56.039 0 0 1-5.9-18.934q-.109-.824-.191-1.648a44.257 44.257 0 0 1 2.231-14.517 58.1 58.1 0 0 1 3.363-6.4c7.442-12.432 19.916-22.228 34.64-23.78a47.264 47.264 0 0 1 12.32.47 82.452 82.452 0 0 1 11.5 2.607c.348.108.7.224 1.041.341a45.408 45.408 0 0 1 12.677 9.26zm-29.021 46.119a3.115 3.115 0 0 1 .786-2.056l.022-.019a8.43 8.43 0 0 0-.808 2.076zm3.255 1.366a4.132 4.132 0 0 1 4.431-3.788h.225c-.7 1.328-1.356 2.616-1.958 3.848q-1.467 3-2.475 5.482c-.038-.562-.092-1.109-.145-1.633a15.391 15.391 0 0 1-.078-3.908zm48.042-36.342a4.278 4.278 0 0 0-.967-1.185 23.464 23.464 0 0 0-4.022-2.534 76.416 76.416 0 0 0-8.3-4c.526-1.086.846-2.279 1.447-3.356.994-1.781 2.879-2.778 4.635-3.665 2.22-1.121 4.452-2.22 6.677-3.33a16.711 16.711 0 0 0 5.008-3.136 5.6 5.6 0 0 0 .691-.92c2.158 6.144 2.2 11.967.089 16.513a11.487 11.487 0 0 1-5.258 5.614zm-49.89 51.682c.007.041.018.082.025.124l-.05-.073zm-52.442-20.933l.011.056q.448 1.971 1.019 3.857a29.041 29.041 0 0 1-1.03-3.913z" class="prefix__cls-5" data-name="Path 18084" transform="translate(-738.356 754.442)"/>
        <path id="prefix__Path_18085" d="M1454.389 512.371a.709.709 0 0 0-.439.579 5.483 5.483 0 0 0-1.739 1.86 11.289 11.289 0 0 0-1 6.044 9.31 9.31 0 0 0 1.624 5.426 7.936 7.936 0 0 0 4.478 2.7 11.209 11.209 0 0 0 5.8-.052 7.367 7.367 0 0 0 4.311-3.641 11 11 0 0 0 1.15-5.4c0-.214-.01-.429-.027-.644v-.069c-.132-1.959-.469-4.063-2.027-5.421a11.419 11.419 0 0 0-12.131-1.382zm5.915 12.31a4.8 4.8 0 1 1 4.069-2.243 4.785 4.785 0 0 1-4.073 2.243z" class="prefix__cls-5" data-name="Path 18085" transform="translate(-748.186 753.642)"/>
        <path id="prefix__Path_18294" d="M.109 30.943c.918 12.292 11.324 18.474 17.1 19.124s16.282 7.922 24.571 1.7 14.642-14.234 12.946-29.908S33.281-1.086 18.622.131-.809 18.651.109 30.943z" class="prefix__cls-1" data-name="Path 18294" transform="rotate(59 -645.996 1206.648)"/>
        <text id="prefix___2" fill="#e3724c" data-name="2" font-family="Arial-Black, Arial Black" font-size="32px" font-weight="800" transform="translate(686 1152)">
            <tspan x="15.828" y="35">2</tspan>
        </text>
        <g id="prefix__Group_8537" data-name="Group 8537" transform="translate(643 1224)">
            <path id="prefix__Path_18475" d="M583.963-83.223c.037.205 4.673 103.708-66.307 135.712v.022l-.024-.011-.024.011v-.021C446.047 21.775 448.764-81.794 448.8-82c8.883 5.11 21.829 7.318 35.441 5.179 14.551-2.287 26.246-8.971 31.973-17.153l.036-.026v-.034l.024.017.024-.017V-94l.039.027c5.878 8.078 17.695 14.549 32.286 16.572 13.649 1.889 26.552-.552 35.34-5.822z" class="prefix__cls-5" data-name="Path 18475" transform="translate(-446.266 94.038)"/>
            <path id="prefix__Path_18476" fill="#696a6a" d="M511.305-91.724S488.8-12.994 512.651 54.1c0 0-68.162-17.454-68.094-133.741 0-.002 39.88 18.668 66.748-12.083z" data-name="Path 18476" transform="translate(-444.557 93.101)" style="isolation:isolate;mix-blend-mode:multiply" opacity="0.19"/>
            <g id="prefix__Group_8535" data-name="Group 8535" transform="translate(2.51)" style="mix-blend-mode:overlay;isolation:isolate" opacity="0.5">
                <path id="prefix__Path_18477" fill="#c4c4c3" d="M583.963-83.223c.037.205 4.673 103.708-66.307 135.712v.022l-.024-.011-.024.011v-.021C446.047 21.775 448.764-81.794 448.8-82c8.883 5.11 21.829 7.318 35.441 5.179 14.551-2.287 26.246-8.971 31.973-17.153l.036-.026v-.034l.024.017.024-.017V-94l.039.027c5.878 8.078 17.695 14.549 32.286 16.572 13.649 1.889 26.552-.552 35.34-5.822z" data-name="Path 18477" transform="translate(-448.777 94.038)"/>
            </g>
            <path id="prefix__Path_18478" d="M582.219-57.907l-.015-1.966-.122.123c.01-.478.024-.991.039-1.532.033-1.134.067-2.362.065-3.609h.03c.059-1.349.042-2.864-.05-4.768l-.172-5.324.108-.635-.514-.286-.6-.183-1.366 1.07c-.478.424-.873.768-1.248 1.064-.324.24-.472.343-.686.488l-.009-.012-.247.183a4.753 4.753 0 0 1-.8.456c-.089.04-.179.083-.271.132-.417.2-.847.355-1.168.475a1.764 1.764 0 0 0-.967.6 1.038 1.038 0 0 0-.412.4l-.093.041a6.158 6.158 0 0 0-1.326.334l-.227.076a7.536 7.536 0 0 1-1.548.259h-.1l-.1.023a16.07 16.07 0 0 1-2.461.352c-.3.032-.595.053-.874.071l.12-.019-4.594-.3-.246-.024h-.174l-1.968-.128c-.23-.064-.407-.115-.545-.157l.036-.238a28.322 28.322 0 0 1-2.787-.544l-2.254-.65c-.268-.087-.583-.181-.911-.279a12.93 12.93 0 0 1-2-.7c-.41-.206-1.074-.5-1.911-.87-1.225-.541-2.829-1.25-4.548-2.093a69.5 69.5 0 0 1-8.323-4.742l-2.58-1.736.024-.039c-1.262-.814-2.157-1.494-2.949-2.093-.481-.365-.943-.716-1.444-1.064l-.314-.34-.143-.122-.228-.156.06-.08c-1.889-1.5-2.632-1.931-3.179-2.018a17.776 17.776 0 0 0-1.958-1.721l.081-.087-2.168-2.058-.556.4a1.515 1.515 0 0 0-.253.244l-1.415 1.525c-.454.505-.923.959-1.283 1.309a6.347 6.347 0 0 0-.736.783c-.361.294-1.07.876-1.164.983a35.634 35.634 0 0 1-3.553 2.466l-.359.227.064.1a11.317 11.317 0 0 1-1.534.846c-.256.127-.535.265-.838.42l-3.122 1.341a17.187 17.187 0 0 1-2.638.9l-3.129.908.239.05-.423.086c-.8.162-1.629.33-2.363.5l.012.071c-.47.058-1 .091-1.476.121l-.732.011c-.343 0-.676.008-.981.018l-.016-.123c-1.686.109-2.083.156-2.358.447-.072.012-.161.025-.272.04a2.818 2.818 0 0 0-1.484-.148c-.206 0-.594.028-1.1.061a33.374 33.374 0 0 1-6.216.015l-.036.187-.242-.006a31.153 31.153 0 0 1-3.249-.4c-.949-.147-1.828-.27-2.607-.339l-.124-.059-.254-.073a4.505 4.505 0 0 0-.786-.049c-.745-.081-1.905-.265-2.975-.435-.91-.145-1.751-.277-2.22-.33a31.028 31.028 0 0 0-4.5-1.18c-1.091-.243-2.491-.556-3.245-.777l.048-.14-4.906-1.44c-2.006-.634-3.077-.917-3.89-1.1l-3.181-1.078-2.91-.907-.228-.065a1.157 1.157 0 0 0-1.278.148 1.015 1.015 0 0 0-.189 1.1l.013.09c.1.724.236 1.651.353 2.323l-.1.373.036.185c.055.286.132 1.188.221 2.232.16 1.878.4 4.66.775 7.112l-.046.008c.266 1.716.468 3.7.663 5.622.353 3.476.6 5.7 1.048 6.765l.516 2.823.3-.046.009.079c-.256.355-.153 1.118.13 3.218.03.222.064.47.095.712l-.105-.043.535 3.544c1.031 6.838 2 13.3 3.349 19.592l.566 2.652-.056.028.871 3.785.031-.845c.152.449.311.962.655 2.147.111.4.149.612.177.556a1.076 1.076 0 0 0 .037.584 6.5 6.5 0 0 0 .249.839 17.385 17.385 0 0 0 .777 2.174c.12.292.239.584.351.877l.2-.061.049.116a3.91 3.91 0 0 0 .432.838c.661 1.786 2.1 4.97 3.286 7.612.725 1.611 1.353 3 1.541 3.507.731 1.4 1.356 2.859 2.08 4.543l.438 1.051.169-.065c.055.106.137.272.253.53-.053.466.272 1.222.965 2.835.38.886.808 1.883 1.008 2.506.013.048.028.1.047.149l.231-.074-.153.1c.114.17.43.8.774 1.466a19.661 19.661 0 0 0 1.181 2.136 2.851 2.851 0 0 0 .281.84l.768 1.352a76.812 76.812 0 0 0 6.81 10.567l.146.181.221.077.419.537c.328.51.658 1.021 1.067 1.589a5.8 5.8 0 0 0 .656.628 6.039 6.039 0 0 1 1.151 1.313l.1-.064.046.047c4.686 5.646 10.4 10.681 15.932 15.551 2 1.761 3.994 3.517 5.935 5.295l.074-.076c.14.114.3.25.469.387.19.168.509.436 1.068.882l.076-.091c.662.607 1.324 1.216 2.031 1.8l.193.12a7.385 7.385 0 0 1 .728.447c.424.275.939.607 1.466.9.05.029.122.062.179.092l-.117.219a12 12 0 0 0 1.544.768l.143-.31a3.3 3.3 0 0 0 .914.2c.03 0 .057 0 .085-.005l.181.141a4.818 4.818 0 0 0 .424.291l.2.125h.241a8.048 8.048 0 0 0 1-.094l.058.318a3.243 3.243 0 0 0 1.029-.2l.036-.017a.754.754 0 0 0 .432-.648v-.142c2.525-.556 4.472-2.357 5.917-3.71.825-.773 1.611-1.523 2.417-2.285l.386.289 1.1-1.206-.262-.238c.505-.479 1.025-.968 1.523-1.443l.39.323c.643-.629 1.353-1.343 2.046-2.044 1.023-1.032 2.013-2.031 2.7-2.663l-.12-.152c.416-.4.622-.661.617-.943.249-.246.49-.49.737-.735l.948-.7.576.4.585-.538a2.24 2.24 0 0 0 .4-.465l2.246-2.227c.134-.108.368-.322.578-.521.12-.112.224-.212.275-.255l-.031-.04.027-.027.058.049c.244-.268.447-.5.6-.7l1.841-1.826-1.2.754 2.656-3 .022.017.34-.424.015-.018.142-.161-.033.021c.153-.191.3-.375.415-.529l.261.234.311-.311c.225-.225.474-.479.637-.628l.306-.041.257-.852.227-.279-.036-.03.6-.741-.138.305.908-1.165.351-.261a6.664 6.664 0 0 0 1-.946l-.087-.092.181-.2.269.182.922-1.316-.375-.261.4-.514h.443l.245-.332-.233-.252.051-.065.268.2-.112-.1.132.1-.015-.02.034.03c.033-.032.038-.058.065-.089l.083-.09c.131-.171.247-.336.368-.515l-.3.656.637-.851a2.3 2.3 0 0 0 .623-.448l-.067-.094.144.105c.7-.88 1.239-1.667 1.715-2.388l-.073-.049 1.414-2.032.032-.04a4.931 4.931 0 0 0 .94-1.161l.182-.411c.252-.352.509-.7.754-1.056l.059-.076-.822 3.062 4.038-7.569-.163-.092.006-.009-.152-.11c.083-.1.182-.225.305-.388l.142 1 1.642-2.93-.481-.3a1.217 1.217 0 0 0 .517-.5l.2.152a3.926 3.926 0 0 0 .562-.719 6.825 6.825 0 0 1 .657-.87l-.14-.111.055-.1.1.04c.076-.18.57-1 .9-1.544.171-.283.312-.52.441-.739l.118-.069-.043-.057.14.079c.023-.039.051-.087.081-.144l.719-1.282-.12-.066c.225-.344.438-.689.648-1.043.316-.532.661-1.114 1.141-1.806l1.391-2.014-.557.187.09-.156a1.611 1.611 0 0 0 .314-.522l.457-.932-.261-.126.018-.041c.478-.06.8-.611 1.269-2.057l.242-.779.122.052.914-1.976a34.578 34.578 0 0 0 1.664-3.863c.223-.517.446-1.2.6-1.678h.016l1.122-3.276c.505-1.451.931-2.971 1.346-4.526l.4-1.266c.3-.961.522-1.729.7-2.411a20.3 20.3 0 0 0 .657-2.933l-.048-.01.634-3.5.4-1.773a33.839 33.839 0 0 0 .494-3.706 57.072 57.072 0 0 0 .818-8.874l.064-1.269-.142-.105c.061-1.577.065-3.16.049-5.267zm-55.16-24.541c.438.344.877.688 1.28.98a30.331 30.331 0 0 0 3.334 2.442c.445.322 1.048.676 1.477.921l-.008.015.548.333c.68.412 1.359.825 2.049 1.22l.3.209c1.328.811 2.744 1.561 4.2 2.31l.964.559c.851.493 1.539.869 2.162 1.171a16.018 16.018 0 0 0 2.684 1.253l.013-.029 3.991 1.761a32.971 32.971 0 0 0 4.354 1.529 23.589 23.589 0 0 0 4.338 1.266 52.39 52.39 0 0 0 5.235.733l.445.047.124-.154a25.635 25.635 0 0 0 5.4-.2l1.9-.283-.179-.136a23.169 23.169 0 0 0 4.44-1.2l.009.026a10.23 10.23 0 0 0 1.074-.43l.635-.289.046 1.272c.024.829.021 1.631-.024 2.5a12.9 12.9 0 0 1 .014 1.663h-.015v.246l-.066 1.063-.08.757c-.136 1.244-.189 1.755.066 2.05a.994.994 0 0 0 .2.506c0 .064.009.127.014.187a7.281 7.281 0 0 0-.1 1.567 7.176 7.176 0 0 1-.1 1.606l-.043.176.027.168c.032.2.021 1.181.012 1.894a27.4 27.4 0 0 0 .041 2.781c-.035.357-.064.69-.089 1l-.578-1.914.305 6.332c-.036.193-.067.364-.1.51l-.253-.005c-.084 1.81-.139 2.367-.2 3.035l-.058.612-.207 1.37c-.049.324-.094.715-.139 1.114a11.815 11.815 0 0 1-.288 1.818c-.138.452-.309 1.2-.524 2.141-.281 1.229-.641 2.8-1.109 4.5a74.053 74.053 0 0 1-2.922 8.752l-1.13 2.779-.045-.016c-.481 1.247-.914 2.177-1.3 3-.29.623-.553 1.189-.8 1.8l-.25.361-.1.2c-.018.054-.046.128-.08.211l-.093-.04c-1.03 2.113-1.25 2.92-1.2 3.441a14.743 14.743 0 0 0-1.163 2.232l-.1-.054-1.733 3a19.864 19.864 0 0 0-1.39 2.525c-.316.443-.776 1.256-.82 1.343-.671 1.068-1.014 1.58-1.4 2.152-.3.453-.633.944-1.165 1.771l.1.07a10.461 10.461 0 0 1-.747 1.084c-.225.3-.477.642-.754 1.041l-.187.238c-1.211 1.54-1.507 1.985-1.745 2.342a24.624 24.624 0 0 1-1.789 2.289l-1.967 2.398.422-.165c-.656.745-1.375 1.57-1.955 2.343l.057.048c-.422.451-.965.951-1.465 1.41-.284.262-.562.518-.808.755l-.1-.08c-1.15 1.219-1.394 1.509-1.382 1.913-.036.049-.082.111-.143.187-.375.073-.681.418-1.124.918-.242.231-.627.7-1.284 1.511a38.664 38.664 0 0 1-3.476 3.922l.125.145-.142.168c-.479.534-1.145 1.171-1.83 1.829-.8.773-1.616 1.559-2.235 2.266l-.115.063-.217.173a4.424 4.424 0 0 0-.471.593c-.347.385-.837.907-1.355 1.459-.868.925-1.694 1.8-2.093 2.294a26.629 26.629 0 0 0-3.6 3.376c-.644.663-1.464 1.506-1.975 1.978l-.1-.114-3.629 3.419c-1.545 1.423-2.286 2.205-2.826 2.777l-.528.411a6.238 6.238 0 0 1-2.994 1.463 5.2 5.2 0 0 1-2.712-.341l-.235-.272-.2-.074a14.033 14.033 0 0 1-2.68-1.933l-.283-.245c-1.231-1.064-2.613-2.259-3.96-3.314l.028-.036c-1.578-1.217-3.34-2.828-4.895-4.25a28.713 28.713 0 0 0-4.342-3.6l-2.131-1.8-.2.222-.035-.035c-.031-.407-.541-.913-1.873-2.234-.211-.208-.466-.462-.7-.7l.093-.03-.918-.918a88.372 88.372 0 0 1-13.111-16.391l-1.3-2.138.072-.061-1.065-1.9-.045.022-.228-.344a15.535 15.535 0 0 1-1.227-2.155c-.169-.365-.24-.524-.249-.457a1 1 0 0 0-.118-.57 6.091 6.091 0 0 0-.367-.786l-1.263-2.721-.193.072-.076-.158a3.7 3.7 0 0 0-.4-.7c-.739-1.931-2.39-5.712-3.538-8.341-.515-1.177-.911-2.086-1.079-2.488-.858-1.629-1.587-3.264-2.524-5.394l-.167.067c-.054-.1-.133-.261-.246-.506a6.465 6.465 0 0 0-.736-2.306 19.689 19.689 0 0 1-1.044-2.882l-.462.092.349-.171c-.086-.173-.391-1.08-.592-1.681a18.934 18.934 0 0 0-.688-1.88 2.632 2.632 0 0 0-.083-.889 78.2 78.2 0 0 1-2.066-9.209c-.232-1.253-.468-2.527-.723-3.805l-.046-.231-.164-.171-.248-2.419a5.04 5.04 0 0 0-.25-.835 4.583 4.583 0 0 1-.29-1.615h-.116l-.015-.07c-.366-2.585-.766-5.2-1.168-7.829-1.045-6.825-2.125-13.883-2.641-20.8l-.108.007-.071-.568c-.021-.245-.071-.648-.171-1.336l-.111.015-.183-2.54-.053-.234a20.388 20.388 0 0 1-.343-2.319c0-.038-.008-.068-.013-.1l.247-.032-.1-1.442-.333.013a3.246 3.246 0 0 0-.2-.819l.109-.266c3.023.965 5.98 1.887 8.9 2.733l-.058.472 1.56.322.079-.354c.657.185 1.315.369 1.969.545l-.084.507c1.191.315 2.594.623 3.863.9.98.215 1.88.413 2.528.582l.065-.183a3.738 3.738 0 0 0 .729.119.712.712 0 0 0 .322-.071l2.132.637-.007.325-.222.022.221.036v.1l-1.846.232 4.934.407 2.4.407.09.018.057.01v.027c.1.008.167.009.259.017l2.91.492-1.481-.63h.1v-.008l4.322.2v.009h.129l.456.021-.088-.03c.357-.008.661-.02.909-.039v.355l.454.023c.3.013.626.025.839.044l.24.216.786-.386.371-.017v-.049l1.736-.152.211-.006.509.1a3.359 3.359 0 0 0 .716.057c.188 0 .423-.007.724-.022v-.119l.275-.023.064.311.534-.1c.354-.063.707-.127 1.058-.21l-.085-.359.813.008.1.094.493-.088h.074v.021c.042 0 .061-.017.1-.021h.06l.072-.012c.3-.054.551-.113.791-.177a1.728 1.728 0 0 0 .97.185l.009-.106.037.165a21 21 0 0 0 2.831-.742l.3-.087a9.2 9.2 0 0 0 1.114-.366l-.03-.074.935-.308.06-.015c1.235-.216 1.416-.349 1.534-.438l.212-.159c.159-.058.322-.1.482-.163l.836-.3.111-.04.2-.068-2.656 2.622 6.187-3.9.4-.243c.325-.2.65-.4.959-.62l-.192-.278-.016-.029c.123-.051.271-.114.469-.2l-.13-.305.064-.035.147.173-.4 1.226 2.767-1.967-.29-.459h.01a1.3 1.3 0 0 0 .651-.227l.11.213a3.529 3.529 0 0 0 .845-.44 6.076 6.076 0 0 1 .913-.517l-.082-.162.086-.065.071.074c.08-.075.266-.212.5-.387.3-.228.675-.508.993-.77.228-.17.429-.323.616-.472l.127-.03-.018-.057c.039-.032.082-.064.118-.1l.043.054.109-.086.045.042 1-.918-.1-.108c.243-.191.487-.371.73-.59l.024-.023.9 2.634.209-2.325a1.685 1.685 0 0 0 .4.369l.769.653.193-.219.025.02c-.063.5.452.934 1.671 1.679l.693.41-.08.1zm-41.247 7.459l.013.383-1.33-.453q.658.041 1.317.07zM538.158 35.1l.134-.123a.509.509 0 0 1-.067.183zm5.249-6.508c.283-.3.561-.607.842-.911l.255.2zm12.044-12.875l.061-.081v.122zM561.934 5.7l.037-.06.173.066.025.178z" class="prefix__cls-10" data-name="Path 18478" transform="translate(-445.809 93.35)"/>
            <path id="prefix__Path_18479" fill="#ea5139" d="M580.3-20.805a3.06 3.06 0 0 0 .349-1.562c0-.058-.007-.117-.011-.175l-.142-1.055-.4-.948-.621-.8a2.969 2.969 0 0 0-1.277-.821 1.972 1.972 0 0 0-1-.271 2 2 0 0 0-1.055 0 1.973 1.973 0 0 0-1 .271 2.971 2.971 0 0 0-1.277.821c-.045.038-.092.075-.136.115l-.634.82q-.231.5-.425 1.013c-.033.105-.059.213-.089.319a3.183 3.183 0 0 0-.112.519 4.564 4.564 0 0 0-1.889.4l-.595.263a3.609 3.609 0 0 0-1.124.769c-3.925 2.7-5.658 6.66-7.18 10.844-.705-5.217-2.98-9.921-8.168-11.9-.641-.245-1.3-.465-1.974-.673a3.994 3.994 0 0 0-2.116-1.155l-13.168-2.976a4.134 4.134 0 0 0-2.786.312 37.528 37.528 0 0 0-7.418-.092 3.758 3.758 0 0 0-2.55 1.562 24.346 24.346 0 0 0-6.251 2.959 32.018 32.018 0 0 0-14.53 26.5 31.686 31.686 0 0 0 8.69 21.646 4 4 0 0 0 1.981 3.121 45.906 45.906 0 0 0 4.1 2.219c.34.242.676.49 1.025.722a3.681 3.681 0 0 0 2.435.653c4.022 1.277 8.229 1.4 12.087-1.187A12.02 12.02 0 0 0 538 23.12c.588-3.582-.194-7.262.788-10.743a18.945 18.945 0 0 0 4.81-.147l-.015.02c-.994 1.3-.658 3.583.456 4.888a54.727 54.727 0 0 0-4.276 6.361c-2.12 3.811 2.955 7.932 6.114 4.717a92.516 92.516 0 0 0 8.505-10.836 11.525 11.525 0 0 0 2.648-2.58 3.927 3.927 0 0 0 .751-1.586 11.585 11.585 0 0 0 9.651-8.514 3.792 3.792 0 0 0-.685-3.438 45.948 45.948 0 0 0 7.185-9.143 11.368 11.368 0 0 0 3.244-2.729 9.371 9.371 0 0 0 1.783-3.605 9.756 9.756 0 0 1 .693-2.626 3.625 3.625 0 0 0 .285-3.21c.045-.075.092-.149.134-.225q.123-.26.229-.529zM527.5 4.9c-.107.2-.208.408-.307.616-.086-.149-.178-.293-.269-.438.189-.066.376-.12.576-.178zm.66-22.751a18.681 18.681 0 0 1 5.494.094l.168.758.466 2.1a15.06 15.06 0 0 0-1.276 5.134 5.3 5.3 0 0 0-2.042-.042 3.789 3.789 0 0 1-3.427-1.41 20.44 20.44 0 0 1-1.666-2.046q-.592-.789-1.2-1.566l-.009-.014a4.477 4.477 0 0 0-.491-1.746 14.6 14.6 0 0 1 3.98-1.264zM517.04-11.1a27.073 27.073 0 0 0 4.552 5.837 12.823 12.823 0 0 0 1.616 1.43c-.074.054-.148.1-.221.165-3.347 2.76-7.159 3.124-11.178 2.7A22.5 22.5 0 0 1 517.04-11.1zm-5.489 18.508a18.263 18.263 0 0 0 6.074.055 5.818 5.818 0 0 1 3.107 5.058c0 2.084-1.408 3.759-2.458 5.439a16.014 16.014 0 0 0-.993 1.87 25.08 25.08 0 0 1-5.73-12.422zm40.886-17.24c-1.729 3.72-5.255 5.179-8.94 3a4.619 4.619 0 0 0-.968-.432q-.442-1.009-.882-2.019a4.2 4.2 0 0 0-.344-.629c.018-.143.042-.286.073-.428a4.223 4.223 0 0 0 1.544-2.067l.776-2.3a3.528 3.528 0 0 0 .186-1.209c3.111.356 7.1.876 8.416 2.9a7.944 7.944 0 0 1 .852 2.2 3.247 3.247 0 0 0-.713.983z" data-name="Path 18479" transform="translate(-468.121 66.918)"/>
            <g id="prefix__Group_8536" data-name="Group 8536" transform="translate(31.946 37.069)">
                <path id="prefix__Path_18480" d="M548.564-15.995c-.156-.1-.317-.186-.48-.269a.682.682 0 0 0-.079-.113c-1-1.174-2.723-.962-4.045-.565a7.38 7.38 0 0 0-4.167 2.678 4.478 4.478 0 0 0-.085 4.687c.1.2.211.391.326.581a5.762 5.762 0 0 0 2.329 2.848c.116.073.235.142.356.207.081.045.167.086.253.125a5.794 5.794 0 0 0 2.488.565 5.908 5.908 0 0 0 .691-.042 6.451 6.451 0 0 0 1.714-.134 3.331 3.331 0 0 0 2.435-2.416c.029-.043.06-.085.087-.129a5.825 5.825 0 0 0-1.823-8.023zm-.24 6.722a3.368 3.368 0 0 1-2.864 1.58 3.369 3.369 0 0 1-1.8-.521 3.35 3.35 0 0 1-1.493-2.11 3.352 3.352 0 0 1 .419-2.521 4.532 4.532 0 0 1 1.361-.951c1.341-.52 2.752.322 3.848 1.025.264.17.569.344.839.552a3.372 3.372 0 0 1-.31 2.946z" class="prefix__cls-10" data-name="Path 18480" transform="translate(-514.803 25.86)"/>
                <path id="prefix__Path_18481" d="M524.77 1.294a5.8 5.8 0 0 0-3.1-.9 5.865 5.865 0 0 0-1.492.192 8 8 0 0 0-1.451.443.645.645 0 0 0-.116.007 4.844 4.844 0 0 0-3.54 3.266 11.176 11.176 0 0 0-.654 2.783 2.333 2.333 0 0 0 .008.6.619.619 0 0 0 .187.617 3.378 3.378 0 0 0 .77.979c2.479 2.309 5.991 4.269 9.443 2.971a4.552 4.552 0 0 0 3.165-3.687 8.258 8.258 0 0 0-.747-3.979 5.79 5.79 0 0 0-2.473-3.292zm-2.07 2.392a3.085 3.085 0 0 1 1.3 1.29 5.744 5.744 0 0 1 .079 1.97 3.537 3.537 0 0 1-.388 1.9c-.327.424-1.012.334-1.454.193a4.426 4.426 0 0 1-1.482-.921 7.167 7.167 0 0 1-1.34-1.34 2.768 2.768 0 0 1-.293-1.979c.067-.429.162-1.144.687-1.216a.54.54 0 0 0 .415-.41l.014-.007a3.974 3.974 0 0 1 2.462.52zm-4 4.138l-.009-.018zm7.2 2.389a5.841 5.841 0 0 0 .578-.726 2.981 2.981 0 0 1-.578.725z" class="prefix__cls-10" data-name="Path 18481" transform="translate(-504.802 18.707)"/>
                <path id="prefix__Path_18482" d="M579.377-24.447a8.315 8.315 0 0 0-1.142-4.583 3.362 3.362 0 0 0-3.589-1.386.589.589 0 0 0-.294.192 1.3 1.3 0 0 0-.2.028c-.67.156-1.008.723-1.392 1.236-.807 1.078-2.21 1.378-3.444 1.693a13.849 13.849 0 0 0-3.75 1.476 12.624 12.624 0 0 0-3.989 3.8 8.758 8.758 0 0 0-1.555 2.316 51.2 51.2 0 0 0-9.573-6.994q-1.205-.7-2.464-1.295c-.3-.146-.591-.3-.891-.44a33.442 33.442 0 0 0-15.986-3.276 32.24 32.24 0 0 0-15.1 4.634 25.714 25.714 0 0 0-5.781 4.876 35.554 35.554 0 0 0-2.8 2.91 34.942 34.942 0 0 0-5.4 8.518 28.037 28.037 0 0 0-1.574 3.609 40.766 40.766 0 0 0-1.905 8.423c-.663 5.279-.268 10.906 2.442 15.6a42.634 42.634 0 0 0 3.4 4.745 31.018 31.018 0 0 0 2.34 3.319c.445.725.879 1.457 1.369 2.153a11.971 11.971 0 0 0 2.727 2.757 21.94 21.94 0 0 0 3.511 2.034c1.256.607 2.531 1.186 3.84 1.67a15.193 15.193 0 0 0 7.96.921 13.552 13.552 0 0 0 6.422-3.071A11.561 11.561 0 0 0 535 28.549a6.469 6.469 0 0 0 .492-1.051c.236-.353.465-.716.679-1.093a5.994 5.994 0 0 0 5.176 2.187 7.589 7.589 0 0 0 3.7-1.637 43.784 43.784 0 0 0 3.4-2.9 60.929 60.929 0 0 0 6.245-6.707c.894-1.117 1.634-2.419 2.958-3.067a31.292 31.292 0 0 0 3.545-1.711 14.381 14.381 0 0 0 4.905-5.485 14.09 14.09 0 0 0 1.246-3.5 13.911 13.911 0 0 0 .252-1.779c.057-.742-.026-1.5.086-2.238a4.858 4.858 0 0 1 .895-1.9q.723-1.1 1.45-2.193l1.338-2.024a10.843 10.843 0 0 1 1.29-1.72c1.008-1.011 2.452-1.408 3.456-2.45a9.833 9.833 0 0 0 2.014-3.393 25.341 25.341 0 0 0 1.25-10.335zm-21.06 35.079c.24-.393.485-.783.731-1.173 1.047-1.46 2.071-2.937 3.05-4.442.871-1.021 1.729-2.052 2.527-3.125-.025.142-.046.286-.076.424a13.1 13.1 0 0 1-6.232 8.316zM539.545 22a40.711 40.711 0 0 1 2.662-6.521c.5-1.018 1.051-2.1 1.647-3.209a.579.579 0 0 0 .482-.423 21.528 21.528 0 0 1 2.889-5.447q1.6-2.348 3.364-4.585c.163-.161.327-.322.489-.485a46.328 46.328 0 0 0 4.488-5.248q.869-.906 1.764-1.786a5.279 5.279 0 0 0 1.525-2.4c.181-.639.335-1.278.507-1.913a36.529 36.529 0 0 1 2.068-3.64l.09.076a.638.638 0 0 0 .173.181c.075.054.152.1.228.155a19.211 19.211 0 0 0 7.09 3.586 45.4 45.4 0 0 1-3.785 7.159.631.631 0 0 0-.615.25q-4.53 6.048-8.731 12.333a38.683 38.683 0 0 1-4.453 6.017c-1.76 1.773-3.6 3.47-5.4 5.2-1.015.974-2.006 1.984-3.062 2.916a4.154 4.154 0 0 1-3.147 1.39.668.668 0 0 0-.227.005c-.691-.871-.371-2.445-.046-3.611zm30.229-33.615a5.373 5.373 0 0 1 .774.545q-.386-.276-.774-.547zm-13.524-7.44c.694.724 1.364 1.5 2.011 2.317a17.355 17.355 0 0 1 .845 1.829c-.092.148-.178.3-.258.459-.489.973-1 1.927-1.568 2.858a57.811 57.811 0 0 1-3.761 5.366c-2.169 2.794-4.508 5.48-6.541 8.38a.507.507 0 0 0-.159.226c-.37.534-.733 1.074-1.078 1.625a26.446 26.446 0 0 0-2.422 4.848 16.715 16.715 0 0 0-7.1 1.38c-1.156.5-2.012 1.1-2.133 2.439a35.7 35.7 0 0 0 .011 4.5q.084 2.213.311 4.417c.045.441.1.888.159 1.336a12.108 12.108 0 0 1-5.207 6.406 11.788 11.788 0 0 1-6.821 1.622 16.257 16.257 0 0 1-7.4-2.608 27.144 27.144 0 0 1-9.334-10.376 39.434 39.434 0 0 1-4.154-13.329q-.077-.58-.134-1.16a31.126 31.126 0 0 1 1.57-10.216 40.573 40.573 0 0 1 2.367-4.508c5.237-8.75 14.016-15.643 24.377-16.735a33.264 33.264 0 0 1 8.67.33 57.964 57.964 0 0 1 8.095 1.835c.245.076.489.158.733.24a31.975 31.975 0 0 1 8.921 6.517zM535.826 13.4a2.192 2.192 0 0 1 .554-1.447.153.153 0 0 1 .015-.014 5.971 5.971 0 0 0-.569 1.461zm2.291.961a2.908 2.908 0 0 1 3.118-2.666h.159c-.493.935-.954 1.841-1.378 2.708q-1.032 2.11-1.741 3.858c-.027-.4-.065-.78-.1-1.149a10.828 10.828 0 0 1-.058-2.751zm33.81-25.576a3 3 0 0 0-.68-.834 16.523 16.523 0 0 0-2.83-1.783 53.837 53.837 0 0 0-5.839-2.817c.371-.764.6-1.6 1.019-2.362a7.129 7.129 0 0 1 3.262-2.579c1.562-.789 3.132-1.563 4.7-2.344a11.767 11.767 0 0 0 3.524-2.207 3.937 3.937 0 0 0 .487-.648c1.518 4.324 1.548 8.422.062 11.621a8.08 8.08 0 0 1-3.706 3.953zm-35.11 36.372c0 .029.012.058.018.087l-.036-.051zM499.91 10.425c0 .012.005.026.008.039.21.925.451 1.829.717 2.715a20.527 20.527 0 0 1-.725-2.754z" class="prefix__cls-10" data-name="Path 18482" transform="translate(-498.261 31.72)"/>
                <path id="prefix__Path_18483" d="M570.115-9.584a.5.5 0 0 0-.309.407 3.856 3.856 0 0 0-1.224 1.309 7.95 7.95 0 0 0-.7 4.254 6.547 6.547 0 0 0 1.141 3.819 5.582 5.582 0 0 0 3.151 1.9 7.877 7.877 0 0 0 4.081-.037 5.182 5.182 0 0 0 3.033-2.558 7.742 7.742 0 0 0 .81-3.8c0-.15-.007-.3-.019-.453v-.049A5.289 5.289 0 0 0 578.65-8.6a8.037 8.037 0 0 0-8.535-.984zm4.163 8.664a3.364 3.364 0 0 1-1.8-.52 3.352 3.352 0 0 1-1.494-2.11 3.354 3.354 0 0 1 .435-2.549 3.365 3.365 0 0 1 2.864-1.579 3.368 3.368 0 0 1 1.8.521 3.353 3.353 0 0 1 1.494 2.109 3.361 3.361 0 0 1-.435 2.55 3.366 3.366 0 0 1-2.864 1.578z" class="prefix__cls-10" data-name="Path 18483" transform="translate(-526.46 23.071)"/>
                <path id="prefix__Path_18484" d="M526.407 30.685c-1.568-1.449-4.642-3.613-6.983-2.9-2.724 0-4.116 3.28-4.066 5.613a5.812 5.812 0 0 0 5.546 6.848 5.284 5.284 0 0 0 5.953-1.838 8.875 8.875 0 0 0 1.118-4.049 4.005 4.005 0 0 0-.307-2.131 5.316 5.316 0 0 0-1.261-1.543zm-2.466 5.549a3.353 3.353 0 0 1-1.491 1.285 7.782 7.782 0 0 1-2.149-1.04 4.647 4.647 0 0 1-2.183-2.953.763.763 0 0 0-.153-.385 3.43 3.43 0 0 1 .259-.508 3.378 3.378 0 1 1 5.717 3.6z" class="prefix__cls-10" data-name="Path 18484" transform="translate(-505.15 7.668)"/>
            </g>
        </g>
    </g>
</svg>
