<svg xmlns="http://www.w3.org/2000/svg" width="343.255" height="641" viewBox="0 0 343.255 641">
    <g id="prefix__Group_6645" data-name="Group 6645" transform="translate(-911.4 -175.064)">
        <path id="prefix__Path_9901" fill="#fff" d="M1251.875 432.7a13.607 13.607 0 0 0-2.352-3.068c-1.023-.92-2.659-1.636-3.477-2.761-.716-1.023-.614-2.659-1.023-3.886a10.469 10.469 0 0 0-2.045-3.784 12.915 12.915 0 0 0-6.443-4.193 17.3 17.3 0 0 0-9.409.1c-.614.2-3.273 1.329-3.682.92-.818-.818 1.125-2.659 1.534-3.068a10.576 10.576 0 0 0 .818-13.806c-1.636-2.045-4.193-2.863-5.318-5.42a17.639 17.639 0 0 1-1.125-6.545c-.307-4.5-.409-9.716-3.989-12.988-1.739-1.636-3.989-2.454-5.932-3.784a4.62 4.62 0 0 1-2.045-5.318c.92-4.4 3.579-9.409-.307-13.193-1.534-1.534-3.682-2.25-5.522-3.273a4.238 4.238 0 0 1-1.943-1.841c-.511-1.227-.307-2.659-.716-3.886a12.047 12.047 0 0 0-11.147-8.386c-2.864 0-5.318 1.432-7.977 2.454-3.068 1.023-5.523.1-8.488-.818-2.557-.818-5.318-1.329-7.977-.307a10.384 10.384 0 0 0-5.216 4.807 9.663 9.663 0 0 0-.716 7.159 1.645 1.645 0 0 0 .409.716 28.12 28.12 0 0 0-2.864 1.943c-4.6 3.477-9 7.977-11.25 13.4a21.665 21.665 0 0 0-1.432 5.625c-1.636 4.6-2.25 9.92.92 14.011.2.2.307.409.511.614-1.636 3.682-3.272 7.261-5.011 10.84-1.023 2.148-2.147 4.193-3.375 6.238a29.614 29.614 0 0 1-1.943 2.966 17.356 17.356 0 0 1-1.023 1.432 2.231 2.231 0 0 1-.409.511 1.648 1.648 0 0 0-.716-.409l-.307-.307a.884.884 0 0 0-.614-.307h-.1a1.822 1.822 0 0 0-1.636-1.023c-18.408-1.432-36.817-2.863-55.327-4.3q-.614-8.437-.921-16.874v-1.432c0-6.136-.307-12.375-.511-18.511a37.437 37.437 0 0 0 .614-13.5 15.387 15.387 0 0 0 3.477 1.636c2.25.614 12.272-8.9 12.988-10.022a239.286 239.286 0 0 1 22.806 11.659 116.794 116.794 0 0 1 11.965 8.079 62 62 0 0 1 5.523 4.807c.818.818 1.738 1.636 2.557 2.454a4.72 4.72 0 0 0 .716.716l1.534 2.454c.614 1.023 2.557 1.329 3.068 0 .1-.1.1-.307.2-.409a1.233 1.233 0 0 0 .511-.511 116.721 116.721 0 0 1 9.511-13.7 29.973 29.973 0 0 0 4.091-4.807c.716-.716 1.33-1.534 2.046-2.25a1.986 1.986 0 0 0-.307-2.863 1.7 1.7 0 0 0-1.023-1.432c-.1-.1-.2-.2-.307-.2a102.75 102.75 0 0 1-20.965-14.624c-6.545-5.932-11.863-12.784-17.283-19.738-5.829-7.466-12.784-13.806-19.227-20.658-6.443-7.057-11.863-14.931-17.488-22.7-6.648-9.1-21.886-28.328-22.7-27.817a24.042 24.042 0 0 0-5.727-3.988 47.574 47.574 0 0 0-11.045-3.988c-.614-.1-1.125-.307-1.739-.409-.716-.2-1.534-.409-2.25-.614a32.445 32.445 0 0 0-11.761-.2c-10.943 1.841-19.738 8.8-25.874 17.795a42.333 42.333 0 0 0-6.954 14.113A30.658 30.658 0 0 0 987.2 275.1c0 .307.1.614.1.92a44.481 44.481 0 0 0 2.864 14.113 32.363 32.363 0 0 0 5.42 9.511 39.751 39.751 0 0 0 8.284 8.284 15.027 15.027 0 0 0 6.136 2.761l.1.1c3.682 2.352 7.875 3.477 12.068 4.5 4.6 1.125 9.1 2.454 13.5 3.886s8.8 2.966 13.09 4.6c-1.125 2.25-1.841 4.807-1.022 7.261a6.879 6.879 0 0 0 2.557 3.579c1.023.818 1.943 1.636 2.966 2.352a8.545 8.545 0 0 0-.818 1.227 13.624 13.624 0 0 0-2.148 3.988 1.5 1.5 0 0 0 .1 1.329 35.437 35.437 0 0 0-1.125 5.727c-3.17 12.579-3.375 25.669-2.352 38.555.614 7.875 1.534 15.852 2.761 23.624.511 3.375 1.432 6.75 3.682 9.409 2.25 2.557 5.42 3.886 8.488 5.011 7.772 2.864 15.647 5.727 23.829 7.261-2.761 5.625-1.534 13.09 3.579 17.079a4 4 0 0 1 1.023.818c.409.614.2 1.227.1 2.045-.2 1.227-.409 2.557-.614 3.784-.409 2.659-.818 5.318-1.329 7.875-.511 3.068-1.125 6.238-1.739 9.306-.511 2.25-1.125 4.5-1.636 6.852a13.9 13.9 0 0 1-2.863-1.125 4 4 0 0 0-5.114 1.227c-.511.716-.716 1.432-1.534 1.943-.92.511-1.841.614-2.761 1.125a4.27 4.27 0 0 0-2.455 4.807 1.115 1.115 0 0 1-.2 1.125 7.812 7.812 0 0 0-.818 1.125 3.7 3.7 0 0 0-.2 3.273 11.992 11.992 0 0 0 1.943 3.068c.614.818 1.227 1.739 1.841 2.557a1.108 1.108 0 0 0-.1.614v3.273a.923.923 0 0 0 .1.511c-1.227 7.466-3.17 14.829-4.807 22.192-2.045 9.306-3.988 18.613-5.727 27.919a487.574 487.574 0 0 0-7.261 55.839 387.95 387.95 0 0 0 .307 56.657c1.432 19.226 4.6 38.146 8.284 56.964 1.023 5.113 2.045 10.227 3.068 15.443.511 2.761 1.125 5.522 1.636 8.284.409 1.943.409 4.807 2.045 6.238a4.454 4.454 0 0 0 3.579.716 96.667 96.667 0 0 0 3.784 13.909c1.943 5.216 2.864 10.534 3.886 15.954.511 2.659 1.023 5.216 1.738 7.875.2.716.511 1.739.818 2.761a10.683 10.683 0 0 0 .409 1.739v.511a48.093 48.093 0 0 0-4.3 3.375 80.1 80.1 0 0 0-7.466 6.954 1.845 1.845 0 0 0 .409 2.864c6.341 3.375 14.113 2.455 20.147-1.227a29.786 29.786 0 0 0 2.966-2.352.1.1 0 0 0 .1-.1 5.622 5.622 0 0 0 .92-.716c.409.614.716 1.534 1.125 2.045l.614.92a5.617 5.617 0 0 0 .716.92c.1.1.307.2.409.307a10.82 10.82 0 0 0 1.227 1.023 6.931 6.931 0 0 0 7.875-.1c2.352-1.739 2.863-4.807 2.659-7.568a34.616 34.616 0 0 0-1.534-7.875v-.307c-.614-7.466-5.216-22.6-5.727-24.647-.818-7.568-1.841-15.136-2.966-22.6 0-.1 0-.1-.1-.2.1-2.659-1.841-11.965-2.352-15.852-.614-5.318-1.023-10.636-1.33-15.852a307.754 307.754 0 0 1-.2-32.215c.818-18 2.148-35.9 3.477-53.9.409-3.579.818-7.261 1.227-10.84.614-4.807 1.227-9.716 1.841-14.522.2 3.375.511 6.648.818 10.022 1.023 10.636 2.148 21.17 3.068 31.806 1.432 16.772 2.761 33.646 4.5 50.418l.921 12.886c.511 7.057 1.023 14.215 1.534 21.272.307 3.579.511 7.057.818 10.636.1 1.023.2 2.148.409 3.273a.924.924 0 0 0-.1.511c.1 1.125.307 2.25.409 3.477a.974.974 0 0 0 .2.716.532.532 0 0 0 .2.409 1.76 1.76 0 0 0 1.125 1.125 21.527 21.527 0 0 0 2.454.613c.307 2.148.614 4.909.614 5.829.2 3.068.716 6.034 1.125 9.1.921 6.034 1.636 12.17 2.761 18.2a61.72 61.72 0 0 0 2.045 8.591 6.837 6.837 0 0 1-.716 4.4 47.65 47.65 0 0 1-5.114 7.67 25.261 25.261 0 0 1-2.761 2.148 1.819 1.819 0 0 0-.716.818c-.1.1-.2.2-.307.2l-.1.1a.87.87 0 0 0-.307.511c-.1.1-.1.307-.2.409v.1a1.3 1.3 0 0 0-.1.614v.1a1.519 1.519 0 0 0 .1.614c.1.2.1.409.2.511a2.227 2.227 0 0 0 .409.511 1.977 1.977 0 0 0 .921.511 39.088 39.088 0 0 0 11.454 0 51.631 51.631 0 0 0 5.42-1.227 24.932 24.932 0 0 1 5.42-1.432c3.17-.1 4.909 3.068 7.772 3.988 3.068 1.023 5.932-1.227 6.647-4.3a15.489 15.489 0 0 0-.1-5.318c-.307-2.25-.614-4.5-.818-6.75-.511-4.193-.921-8.386-1.227-12.681-.716-8.488-1.023-16.874-1.125-25.363a115.6 115.6 0 0 0-.511-13.295c-.409-3.477-1.023-6.954-1.739-10.329a3.478 3.478 0 0 1-.1-1.023c-.2-2.25-.511-4.5-.716-6.75a320.477 320.477 0 0 1 .2-50.521c2.455-33.851 8.182-67.4 9.715-101.348a267.563 267.563 0 0 0-2.659-54.3 67.624 67.624 0 0 0 9-13.09 165.3 165.3 0 0 0 9.2-20.352c1.943-5.318 4.091-10.738 3.682-16.568-.1-2.045-.409-3.988-.613-6.034a50.351 50.351 0 0 0-1.111-15.624 45.066 45.066 0 0 0-4.5-10.738c-2.148-5.42-4.909-11.147-9-15.34a1.6 1.6 0 0 0-2.147-.2c-.511-2.148.614-4.7 1.227-6.647q1.534-4.449 3.375-8.9c.614-1.636 1.33-3.273 2.045-4.807.1.1.1.2.2.409.921 1.329 2.25 2.148 3.17 3.375a2.429 2.429 0 0 1-.716 2.045c-1.534 1.636-3.477 3.17-3.375 5.727a5.588 5.588 0 0 0 3.988 4.7c.2.1.307.2.511.307.2.2.409.307.614.511a11.2 11.2 0 0 0 6.238 1.636c-1.738 2.659-3.375 5.523-1.636 8.591 1.534 2.659 4.806 2.659 6.954 4.4a4.2 4.2 0 0 0 .1 1.125 15.176 15.176 0 0 0 1.227 4.193 11.792 11.792 0 0 0 4.193 5.011 6.693 6.693 0 0 0 5.216 1.943 11.033 11.033 0 0 0 5.113-.614 12.435 12.435 0 0 1 4.3-.92 9.63 9.63 0 0 1 4.3 1.636c4.3 2.557 9.613 6.647 14.829 3.784a14.947 14.947 0 0 0 1.33-.92 12.662 12.662 0 0 0 2.25-1.841c.921-1.125 1.534-2.557 2.557-3.579l.2-.2a1.408 1.408 0 0 1 .409-.307.531.531 0 0 1 .409-.2l.921-.307c1.534-.307 3.273.2 4.909.307.921.1 1.943.1 2.966.2 2.557.409 5.216.716 7.67-.307 2.557-.409 4.807-1.329 6.034-3.886a10.169 10.169 0 0 0-.406-8.187zM990.988 275.206zm151.051 212.412l1.227-1.227c2.454-2.25 4.909-4.6 7.159-7.057-.2.614-.307 1.227-.511 1.943a94 94 0 0 1-3.477 10.738c-.409 1.125-.92 2.25-1.432 3.375a58.332 58.332 0 0 0-2.966-7.772zm-67.4 258.637zm145.324-329.2c.1.1.1.307.2.511-.2 0-.307-.1-.511-.1a1.407 1.407 0 0 1 .315-.414z" data-name="Path 9901" transform="translate(1.716 1.243)"/>
        <path id="prefix__Path_9902" fill="#1f8c6d" d="M1097.205 508.424l-20.454-10.738-14.42 58.4-5.931 92.86 13.193 94.087 27.613-2.454-8.386-64.736 14.42-86.724 8.386 51.339 9.613 100.121 24.033-6.034-1.227-35.487L1146.4 638l9.613-79.463-5.932-42.748-13.298-35.489-39.578 2.455 8.386 9.818z" data-name="Path 9902" transform="translate(3.289 6.925)"/>
        <path id="prefix__Path_9903" fill="#252759" d="M1066.2 362.082l-18-3.682 1.227 29.351 3.579 28.124 36 13.4-3.579 7.363 6.034 12.17-6.034 31.806 51.646 6.136 16.772-18.306-7.159 24.442-7.466 17.59-34.567-16.363s-8.386 17.079-7.159 18.306 24.033 13.4 24.033 13.4l13.193 3.682 22.7-17.079 13.193-28.124 3.58-19.533-6.034-28.124-10.738-12.17-28.84 7.363-7.159-1.227 4.806-25.669-30.067-3.682-27.613-2.454z" data-name="Path 9903" transform="translate(3.103 4.159)"/>
        <path id="prefix__Path_9904" fill="#f16a4b" d="M1023.922 233.4l-16.261 7.466-13.4 18.1-2.861 25.466s7.363 21.067 11.863 22.5c4.4 1.534 28.022 7.466 28.022 7.466l76.8 30.067 19.227 16.568 7.363 4.5 16.261-18L1130.281 337l-42.85-49.6-32.522-48.066z" data-name="Path 9904" transform="translate(1.815 1.323)"/>
        <path id="prefix__Path_9905" d="M1253.591 434.045a13.61 13.61 0 0 0-2.352-3.068c-1.023-.92-2.659-1.636-3.477-2.761-.716-1.023-.614-2.659-1.023-3.886a10.465 10.465 0 0 0-2.045-3.784 12.915 12.915 0 0 0-6.443-4.193 17.3 17.3 0 0 0-9.409.1c-.613.2-3.272 1.329-3.682.92-.818-.818 1.125-2.659 1.534-3.068a10.576 10.576 0 0 0 .818-13.806c-1.636-2.045-4.193-2.864-5.318-5.42a17.639 17.639 0 0 1-1.125-6.545c-.307-4.5-.409-9.716-3.989-12.988-1.739-1.636-3.989-2.454-5.932-3.784a4.62 4.62 0 0 1-2.045-5.318c.921-4.4 3.579-9.409-.307-13.193-1.534-1.534-3.682-2.25-5.523-3.273a4.238 4.238 0 0 1-1.943-1.841c-.511-1.227-.307-2.659-.716-3.886a12.047 12.047 0 0 0-11.147-8.386c-2.864 0-5.318 1.432-7.977 2.454-3.068 1.023-5.522.1-8.488-.818-2.557-.818-5.318-1.329-7.977-.307a10.385 10.385 0 0 0-5.216 4.807 9.663 9.663 0 0 0-.716 7.159 1.645 1.645 0 0 0 .409.716 28.138 28.138 0 0 0-2.864 1.943c-4.6 3.477-9 7.977-11.25 13.4a21.671 21.671 0 0 0-1.432 5.625c-1.636 4.6-2.25 9.92.92 14.011.2.2.307.409.511.614-1.636 3.682-3.273 7.261-5.011 10.841-1.023 2.148-2.148 4.193-3.375 6.238a29.576 29.576 0 0 1-1.943 2.966 17.316 17.316 0 0 1-1.023 1.432 2.227 2.227 0 0 1-.409.511 1.648 1.648 0 0 0-.716-.409l-.307-.307a.884.884 0 0 0-.614-.307h-.1a1.822 1.822 0 0 0-1.636-1.023c-18.408-1.432-36.817-2.864-55.328-4.3q-.613-8.437-.92-16.874v-1.432c0-6.136-.307-12.374-.511-18.511a37.439 37.439 0 0 0 .614-13.5 15.383 15.383 0 0 0 3.477 1.636c2.25.614 12.272-8.9 12.988-10.022a239.27 239.27 0 0 1 22.806 11.659 116.789 116.789 0 0 1 11.965 8.079 61.971 61.971 0 0 1 5.523 4.807c.818.818 1.739 1.636 2.557 2.454a4.723 4.723 0 0 0 .716.716l1.534 2.454c.614 1.023 2.557 1.329 3.068 0 .1-.1.1-.307.2-.409a1.233 1.233 0 0 0 .511-.511 116.719 116.719 0 0 1 9.511-13.7 29.984 29.984 0 0 0 4.091-4.807c.716-.716 1.33-1.534 2.045-2.25a1.986 1.986 0 0 0-.307-2.864 1.7 1.7 0 0 0-1.023-1.432c-.1-.1-.2-.2-.307-.2a102.743 102.743 0 0 1-20.965-14.624c-6.545-5.932-11.863-12.784-17.283-19.738-5.829-7.466-12.784-13.806-19.226-20.658-6.443-7.056-11.863-14.931-17.488-22.7-6.647-9.1-21.885-28.328-22.7-27.817a24.046 24.046 0 0 0-5.727-3.988 47.574 47.574 0 0 0-11.045-3.988c-.614-.1-1.125-.307-1.738-.409-.716-.2-1.534-.409-2.25-.614a32.443 32.443 0 0 0-11.761-.2c-1.125.2-2.25.409-3.375.716a22.26 22.26 0 0 0-4.807-4.5c-7.057-4.4-15.647-3.682-23.522-2.659-4.7.614-9.613 1.227-14.318.716a30.63 30.63 0 0 1-11.454-3.988 16.2 16.2 0 0 1-7.568-9.1c-1.534-4.5-2.659-9.2-3.989-13.7-1.329-4.6-2.966-9.1-6.238-12.681-3.579-3.886-13.4-11.454-14.113-10.943-4.193-1.943-2.557 3.068-2.352 3.477 2.557 3.988 4.193 3.17 6.647 5.625.1.1 3.886 3.375 3.989 3.477a45.09 45.09 0 0 1 6.545 12.17c1.636 4.807 2.045 9.818 3.375 14.727a21.944 21.944 0 0 0 7.466 11.556c7.875 6.034 18.2 5.932 27.51 5.011 9.2-.818 19.226-2.148 27.612 2.761a39.557 39.557 0 0 0-12.579 9.2 40.463 40.463 0 0 0-13.09-1.739c-.614-.1-1.125-.307-1.739-.409a83.669 83.669 0 0 0-13.4-1.227c-4.3 0-8.693.409-12.886-.307-6.238-1.125-10.943-5.318-14.42-10.431-1.432-4.807-1.841-9.92-3.375-14.727a46.736 46.736 0 0 0-18.818-24.647 1.652 1.652 0 0 0-2.352.511 2.551 2.551 0 0 0-1.227 2.659 5.831 5.831 0 0 0 1.636 2.864c.92 1.125 1.943 2.25 2.863 3.375 2.863 3.375 5.216 3.886 8.079 7.261 2.148 5.318 4.6 14.011 7.056 19.227A44.213 44.213 0 0 0 943 233.8a22.044 22.044 0 0 0 10.125 10.329c10.022 5.113 21.272 5.42 32.215 4.807a53.005 53.005 0 0 1 12.068.409.1.1 0 0 1-.1.1 48.6 48.6 0 0 0-5.42 9.511 53.463 53.463 0 0 0-16.056-2.761c-9.306-.409-18.92.409-27.919-2.557a15.114 15.114 0 0 1-9.2-7.772c-1.943-3.886-2.352-8.181-3.477-12.375v-.1a10.056 10.056 0 0 0-.511-1.636 46.735 46.735 0 0 0-18.825-24.644 5.562 5.562 0 0 0-3.17 0 1.872 1.872 0 0 0-1.33 1.739c.1 1.943 2.045 3.17 3.273 4.4 1.636 1.534 3.17 3.068 4.7 4.7a62.2 62.2 0 0 1 7.67 8.693 28.831 28.831 0 0 1 4.5 10.636 48.452 48.452 0 0 0 2.659 9.306c0 .1.1.2.1.307 1.329 4.6 3.273 9.2 7.466 11.556 5.829 3.273 18.2 5.932 27.51 5.011a103.844 103.844 0 0 1 11.045.92c3.068.511 6.136.92 9.2 1.534a28.74 28.74 0 0 0-.921 10.636c0 .307.1.614.1.92a44.482 44.482 0 0 0 2.864 14.113A32.368 32.368 0 0 0 997 301.1a39.752 39.752 0 0 0 8.284 8.284 15.028 15.028 0 0 0 6.136 2.761l.1.1c3.682 2.352 7.875 3.477 12.068 4.5 4.6 1.125 9.1 2.454 13.5 3.886s8.8 2.966 13.09 4.6c-1.125 2.25-1.841 4.807-1.023 7.261a6.877 6.877 0 0 0 2.557 3.579c1.023.818 1.943 1.636 2.966 2.352a8.55 8.55 0 0 0-.818 1.227 13.626 13.626 0 0 0-2.148 3.988 1.5 1.5 0 0 0 .1 1.329 35.45 35.45 0 0 0-1.125 5.727c-3.17 12.579-3.375 25.669-2.352 38.555.614 7.875 1.534 15.852 2.761 23.624.511 3.375 1.432 6.75 3.682 9.409 2.25 2.557 5.42 3.886 8.488 5.011 7.772 2.864 15.647 5.727 23.829 7.261-2.761 5.625-1.534 13.09 3.579 17.079a4 4 0 0 1 1.023.818c.409.614.2 1.227.1 2.045-.2 1.227-.409 2.557-.614 3.784-.409 2.659-.818 5.318-1.33 7.875-.511 3.068-1.125 6.238-1.738 9.306-.511 2.25-1.125 4.5-1.636 6.852a13.9 13.9 0 0 1-2.864-1.125 4 4 0 0 0-5.114 1.227c-.511.716-.716 1.432-1.534 1.943-.92.511-1.841.614-2.761 1.125a4.27 4.27 0 0 0-2.454 4.807 1.115 1.115 0 0 1-.2 1.125 7.81 7.81 0 0 0-.818 1.125 3.7 3.7 0 0 0-.2 3.273 12 12 0 0 0 1.943 3.068c.614.818 1.227 1.739 1.841 2.557a1.108 1.108 0 0 0-.1.614v3.273a.923.923 0 0 0 .1.511c-1.227 7.466-3.17 14.829-4.807 22.192-2.046 9.306-3.989 18.613-5.727 27.919a487.578 487.578 0 0 0-7.261 55.839 387.949 387.949 0 0 0 .307 56.657c1.432 19.226 4.6 38.146 8.284 56.964 1.022 5.113 2.045 10.227 3.068 15.443.511 2.761 1.125 5.522 1.636 8.284.409 1.943.409 4.807 2.045 6.238a4.455 4.455 0 0 0 3.579.716 96.63 96.63 0 0 0 3.781 13.912c1.943 5.216 2.864 10.534 3.886 15.954.511 2.659 1.023 5.216 1.739 7.875.2.716.511 1.739.818 2.761a10.657 10.657 0 0 0 .409 1.739v.511a48.11 48.11 0 0 0-4.3 3.375 80.1 80.1 0 0 0-7.466 6.954 1.845 1.845 0 0 0 .409 2.864c6.34 3.375 14.113 2.454 20.147-1.227a29.826 29.826 0 0 0 2.966-2.352.1.1 0 0 0 .1-.1 5.622 5.622 0 0 0 .92-.716c.409.614.716 1.534 1.125 2.045l.613.921a5.634 5.634 0 0 0 .716.92c.1.1.307.2.409.307a10.836 10.836 0 0 0 1.227 1.023 6.931 6.931 0 0 0 7.875-.1c2.352-1.739 2.864-4.807 2.659-7.568a34.6 34.6 0 0 0-1.534-7.875V797c-.614-7.466-5.216-22.6-5.727-24.647-.818-7.568-1.841-15.136-2.966-22.6 0-.1 0-.1-.1-.2.1-2.659-1.841-11.965-2.352-15.852-.614-5.318-1.023-10.636-1.33-15.852a307.753 307.753 0 0 1-.2-32.215c.818-18 2.148-35.9 3.477-53.9.409-3.579.818-7.261 1.227-10.84.614-4.807 1.227-9.716 1.841-14.522.2 3.375.511 6.647.818 10.022 1.023 10.636 2.148 21.17 3.068 31.806 1.432 16.772 2.761 33.646 4.5 50.418l.92 12.886c.511 7.057 1.023 14.215 1.534 21.272.307 3.579.511 7.057.818 10.636.1 1.023.2 2.148.409 3.273a.922.922 0 0 0-.1.511c.1 1.125.307 2.25.409 3.477a.973.973 0 0 0 .2.716.531.531 0 0 0 .2.409 1.76 1.76 0 0 0 1.125 1.125 21.521 21.521 0 0 0 2.454.614c.307 2.148.614 4.909.614 5.829.2 3.068.716 6.034 1.125 9.1.921 6.034 1.636 12.17 2.761 18.2a61.732 61.732 0 0 0 2.045 8.591 6.838 6.838 0 0 1-.716 4.4 47.657 47.657 0 0 1-5.114 7.67 25.276 25.276 0 0 1-2.761 2.148 1.819 1.819 0 0 0-.716.818c-.1.1-.2.2-.307.2l-.1.1a.869.869 0 0 0-.307.511c-.1.1-.1.307-.2.409v.1a1.3 1.3 0 0 0-.1.614v.1a1.521 1.521 0 0 0 .1.614c.1.2.1.409.2.511a2.227 2.227 0 0 0 .409.511 1.977 1.977 0 0 0 .92.511 39.086 39.086 0 0 0 11.454 0 51.647 51.647 0 0 0 5.42-1.227 24.932 24.932 0 0 1 5.42-1.432c3.17-.1 4.909 3.068 7.773 3.988 3.068 1.023 5.932-1.227 6.647-4.3a15.486 15.486 0 0 0-.1-5.318c-.307-2.25-.614-4.5-.818-6.75-.511-4.193-.921-8.386-1.227-12.681-.716-8.488-1.023-16.874-1.125-25.363a115.572 115.572 0 0 0-.511-13.295c-.409-3.477-1.023-6.954-1.738-10.329a3.478 3.478 0 0 1-.1-1.023c-.2-2.25-.511-4.5-.716-6.75a320.449 320.449 0 0 1 .2-50.521c2.454-33.851 8.182-67.4 9.715-101.348a267.554 267.554 0 0 0-2.659-54.3 67.627 67.627 0 0 0 9-13.09 165.339 165.339 0 0 0 9.2-20.351c1.943-5.318 4.091-10.738 3.682-16.567-.1-2.045-.409-3.988-.614-6.034a50.351 50.351 0 0 0-1.125-15.647 45.055 45.055 0 0 0-4.5-10.738c-2.148-5.42-4.909-11.147-9-15.34a1.6 1.6 0 0 0-2.148-.2c-.511-2.148.614-4.7 1.227-6.647q1.534-4.449 3.375-8.9c.614-1.636 1.33-3.273 2.045-4.807.1.1.1.2.2.409.921 1.329 2.25 2.148 3.17 3.375a2.429 2.429 0 0 1-.716 2.045c-1.534 1.636-3.477 3.17-3.375 5.727a5.588 5.588 0 0 0 3.989 4.7c.2.1.307.2.511.307.2.2.409.307.614.511a11.2 11.2 0 0 0 6.239 1.636c-1.739 2.659-3.375 5.522-1.636 8.591 1.534 2.659 4.807 2.659 6.954 4.4a4.194 4.194 0 0 0 .1 1.125 15.176 15.176 0 0 0 1.227 4.193 11.792 11.792 0 0 0 4.193 5.011 6.693 6.693 0 0 0 5.216 1.943 11.032 11.032 0 0 0 5.113-.614 12.434 12.434 0 0 1 4.3-.92 9.631 9.631 0 0 1 4.3 1.636c4.3 2.557 9.613 6.647 14.829 3.784a14.941 14.941 0 0 0 1.33-.92 12.668 12.668 0 0 0 2.25-1.841c.921-1.125 1.534-2.557 2.557-3.579l.2-.2a1.41 1.41 0 0 1 .409-.307.531.531 0 0 1 .409-.2l.921-.307c1.534-.307 3.273.2 4.909.307.921.1 1.943.1 2.966.2 2.557.409 5.216.716 7.67-.307 2.557-.409 4.807-1.329 6.034-3.886a9.354 9.354 0 0 0-.088-8.278zM930.422 199.134c-.1-.1-.1-.2-.2-.2l.2.2zm62.278 77.622v-.1c.106-.002.106-.002 0 .1zm17.283 23.829c-6.238-4.193-11.25-10.636-12.886-18.1v-.409a35.489 35.489 0 0 1-.614-4.6 53.444 53.444 0 0 1 .716-6.954c.1-.614.2-1.125.307-1.739a34.46 34.46 0 0 1 4.7 6.136 32.587 32.587 0 0 0 6.443 12.886c.614.716 2.557.818 2.863 1.023 2.045 1.023 3.886-2.148 1.841-3.17-3.375-1.636-3.784-6.136-4.5-9.511a20.185 20.185 0 0 0-5.829-10.84 10.836 10.836 0 0 0-1.227-1.023 13.322 13.322 0 0 0-1.841-1.534c-.307-.2-.511-.409-.818-.614a41.125 41.125 0 0 1 4.6-10.125c.2.2.409.307.614.511 4.4 3.988 7.261 9.409 11.045 13.806a9.827 9.827 0 0 0 4.5 5.42 1.956 1.956 0 0 0 2.25-.409 1.77 1.77 0 0 0 1.432-2.25c-2.557-6.443-5.318-13.295-9.92-18.408a23.023 23.023 0 0 0-2.148-2.454 25.271 25.271 0 0 0-2.761-2.148 26.978 26.978 0 0 1 10.738-6.443c1.432 2.352 2.863 5.011 3.784 6.852 1.739 3.682 4.193 9.818 5.932 10.636a1.938 1.938 0 0 0 2.659-1.227 34.6 34.6 0 0 0-.92-5.523c.1-.409-3.579-6.954-6.239-11.556 7.875-.409 15.852 1.023 22.6 5.523a29.657 29.657 0 0 1 9.715 10.431c2.659 5.011 3.375 10.84 3.784 16.465.2 2.454.307 5.011.307 7.568-.2 1.125-.511 2.25-.818 3.375a65.232 65.232 0 0 1-3.375 10.431 21.3 21.3 0 0 1-6.648 8.386 34.9 34.9 0 0 1-10.022 4.807 50.828 50.828 0 0 1-8.693 1.943c-7.761-.822-15.226-2.867-21.567-7.162zm32.419 15.238c-2.25-.716-4.5-1.329-6.75-1.943-.818-.307-1.534-.614-2.352-.92a1.52 1.52 0 0 0 1.33-.614 47.449 47.449 0 0 0 21.067-8.386c7.363-5.42 10.636-14.727 12.068-23.522a55.358 55.358 0 0 0 .614-12.988c3.068 3.682 6.136 7.261 9.2 10.943 6.034 7.159 11.965 14.42 18.1 21.476a108.849 108.849 0 0 0 9.715 9.716c.307.307.613.511.92.818 7.67 9.2 15.238 18.306 22.908 27.408 3.068 3.682 6.341 7.057 10.636 9.2a44.282 44.282 0 0 0 8.079 2.761c-4.4 4.6-8.59 9.306-12.784 14.215-1.739-2.148-3.375-4.3-5.113-6.443a23.984 23.984 0 0 0-4.5-4.6 44.152 44.152 0 0 0-5.932-3.682c-8.284-4.7-17.079-8.284-25.772-11.965-3.068-1.329-6.136-2.557-9.2-3.784-13.697-6.543-27.708-12.986-42.23-17.69zm11.25 13.806s1.023-2.148 1.023-2.25a6.44 6.44 0 0 1 .409-.92q4.755 1.841 9.511 3.988c6.852 2.966 13.4 5.829 20.147 9-1.534 1.636-3.273 3.068-4.807 4.7-.716.716-1.841 2.352-2.864 2.25-.716-.1-1.329-.818-1.841-1.329-.818-.716-1.534-1.432-2.352-2.148a7.984 7.984 0 0 1-1.636-1.534 11.158 11.158 0 0 0-2.454-4.6 8.422 8.422 0 0 0-2.25-1.636c-.2-.1-.511-.2-.716-.307a7.533 7.533 0 0 0-5.625-.511c-.405.001-6.337-3.885-6.541-4.703zm15.136 26.692c-.409 1.841-.818 3.784-1.125 5.727-3.068 0-6.034 0-9.1-.2a14.48 14.48 0 0 1-2.045-.409c.716-3.886.614-7.977 1.023-11.965.307-3.375 1.023-8.079 3.784-10.534a2.566 2.566 0 0 1 .716-.409 4.187 4.187 0 0 1 3.989 1.227c1.125 2.148 1.534 5.625 1.739 6.954.511 3.166.818 6.439 1.023 9.609zm9.613 136.631a5.793 5.793 0 0 1-.307-1.841 1.3 1.3 0 0 1 .1-.614 2.028 2.028 0 0 0 2.147-1.841c.1-2.454 3.989-.818 5.011-.2a3.55 3.55 0 0 0 2.864.614c1.023-.307 1.636-1.023 2.761-.92 2.148.307 4.5 1.636 6.341 2.659a18.96 18.96 0 0 1 1.943 1.125 24.011 24.011 0 0 1 2.966 2.659c1.227 1.329 2.352 2.761 3.477 4.193-.1.2-2.148 5.318-3.17 7.67-.409 1.023-3.682 5.625-3.272 5.625-.614 0-19.533-13.193-20.352-14.215a17.061 17.061 0 0 1-1.227-1.636 4.284 4.284 0 0 1-.409-1.023 1.939 1.939 0 0 0 1.126-2.255zm-2.042 254.748zm31.806 51.134c-.2 2.761-.511 5.523-.716 8.386a6.882 6.882 0 0 1-2.045.1c-1.33-.2-1.841-1.329-2.659-2.352a5.219 5.219 0 0 0-2.147-1.534c-.1-.1-.307-.2-.409-.307a1.42 1.42 0 0 0-1.125-.2 1.985 1.985 0 0 0-1.636.511c-3.579 3.273-8.488 6.238-13.4 5.318a36.393 36.393 0 0 0 5.932-7.772c1.227-.1 2.557-.511 3.682-.716 2.25-.409 4.4-.818 6.647-1.023h1.841c1.944-.203 4.092.002 6.035-.407zm-7.67-34.158c0 .1 2.761 13.09 3.477 16.363.409 4.193.818 8.488 1.125 12.681-4.193-.2-8.284-.307-12.477-.511-1.023 0-1.841.1-2.148-.92s-.511-2.148-.716-3.17c-.511-2.454-1.023-4.909-1.534-7.261q-2.762-13.653-4.6-27.613c.92-.2 1.841-.307 2.864-.511 3.579-.614 7.159-1.227 10.738-1.943 0 .1.1.2.1.307.921 4.502 2.046 7.98 3.171 12.582zm28.737-4.5v-7.261a37.788 37.788 0 0 0 13.5-4.6c1.432-.716 2.761-1.534 4.091-2.352a47.774 47.774 0 0 1 .409 7.159c-.1 4.5 1.125 19.738 1.227 22.806 0 1.33 0 2.659.1 3.886-.307 4.7-.614 9.409.2 14.113-.511 0-1.125.1-1.534.1-1.33 0-2.761.1-4.091.1-2.761.1-5.42.1-8.182.2a64.337 64.337 0 0 1-1.943-10.022c-.511-3.989-1.227-7.977-1.943-11.965-.709-4.183-1.118-8.069-1.834-12.16zm22.192 47.964a8.8 8.8 0 0 1-1.636-.1c-.1 0-.2-.1-.307-.1-.409-1.023-.818-2.148-1.227-3.17-.716-1.636-1.841-3.068-3.784-2.761-1.841.307-3.068 1.943-4.5 2.966a15.26 15.26 0 0 1-3.068 1.841 32.558 32.558 0 0 1-8.8 1.636 53.586 53.586 0 0 0 6.852-9 .1.1 0 0 1 .1-.1 53.937 53.937 0 0 0 14.625-.409c.721 3.167 1.337 6.133 1.746 9.201zm-1.024-189.602c-2.148 15.34-4.5 30.783-5.625 46.328a352.049 352.049 0 0 0-.2 44.078c.1 4.4.307 8.8.818 13.193.1 1.329.2 2.761.307 4.091.2 2.352.307 4.6.511 6.954.1 1.636 1.023 4.909-.2 6.238-1.125 1.227-3.477 2.045-5.011 2.659a34.618 34.618 0 0 1-5.523 1.739 36.484 36.484 0 0 1-8.182.921c-2.557-20.147-4.909-40.4-6.954-60.543-2.148-21.272-3.886-42.646-5.522-64.02-.716-10.125-1.636-20.352-5.011-29.965-.2-3.17-.307-5.318-.307-6.034.1-1.739-6.136-1.534-6.341.1a1.767 1.767 0 0 0-1.329 1.636q-3.221 32.368-6.545 64.736c-1.125 10.841-2.25 21.681-2.761 32.624a258.606 258.606 0 0 0 .511 32.112 279.472 279.472 0 0 0 4.091 30.476 91.449 91.449 0 0 1-19.738 1.739h-1.125l-.1-.2c-.2-.409-.511-.92-.614-1.227a53.84 53.84 0 0 1-2.25-9.1c-1.023-5.727-1.636-11.659-2.25-17.488-1.125-9.306-2.045-18.511-2.864-27.817-1.943-22.192-3.17-44.487-3.068-66.781a439.557 439.557 0 0 1 4.3-59.111c2.659-19.124 6.034-38.351 11.25-56.964v-.1c.1-.1.1-.2.2-.2.1-.2.307-.409.409-.614 5.625 3.682 11.352 7.363 16.976 11.045 6.136 3.989 12.272 8.284 18.92 11.659 5.42 2.659 11.25 4.7 17.284 4.6a18.231 18.231 0 0 0 6.647-.716c.818-.307 1.534-.614 2.352-.921a35.891 35.891 0 0 0 9.306-5.113c5.719 29.548 1.833 60.226-2.362 89.986zm14.115-182.138a60.054 60.054 0 0 1 7.159 11.045c5.011 16.158 3.477 34.056-3.17 49.5a85.81 85.81 0 0 1-4.3 8.693 60.572 60.572 0 0 1-5.318 6.034c-2.045 2.352-3.886 4.7-5.932 7.057-3.784 4.3-8.079 8.488-13.7 10.227a14.575 14.575 0 0 1-9.1 0c-3.273-1.023-6.239-2.966-9.2-4.7-5.625-3.375-11.352-6.647-16.977-10.022a60.051 60.051 0 0 0 5.318-11.659c.614.614 1.227 1.125 1.841 1.739 5.625 4.6 12.375 7.261 19.227 9.306a24.925 24.925 0 0 0 7.159 2.557 1.728 1.728 0 0 0 2.864-.2c.1-.1.2-.307.307-.409 1.432-.614 2.352-1.943 3.375-3.17a60.125 60.125 0 0 0 6.852-11.25 129.088 129.088 0 0 0 4.807-12.375c1.432-4.3 3.375-8.9 3.068-13.5a1.3 1.3 0 0 0 .1-.614 7.747 7.747 0 0 0-.1-1.534v-1.227a1.854 1.854 0 0 0-2.557-1.636h-.921c-1.125.2-1.943 1.329-2.761 2.148-1.125 1.023-2.148 2.045-3.273 3.068l-12.583 11.951c-8.181-.511-16.465-.92-24.646-1.432-4.4-.2-9.1-.2-13.5-1.125a21.662 21.662 0 0 0-6.647-2.454c2.966-8.9 5.625-17.9 6.136-27.2a18.237 18.237 0 0 0-.614-7.056c-.716-1.943-2.148-3.477-2.966-5.318-1.329-3.375-1.125-7.568 1.636-10.125a1.808 1.808 0 0 0 .511-.818v-.1a1.817 1.817 0 0 0-.409-3.579 66.329 66.329 0 0 1-16.159-2.352 63.535 63.535 0 0 1-16.772-7.057c-2.147-1.329-4.193-2.966-5.011-5.523a49.906 49.906 0 0 1-1.534-8.693c-.92-6.238-1.739-12.579-2.148-18.92a96.828 96.828 0 0 1 .614-19.636 26.546 26.546 0 0 0 11.25 1.023c.511 6.238 1.023 12.374 1.432 18.613.2 3.273.511 6.443.716 9.716.1 1.636.2 3.273.409 4.807a14.291 14.291 0 0 0 .511 4.193c1.023 2.557 4.7 2.148 6.954 2.352l9.511.92c6.341.614 12.579 1.227 18.92 1.841 6.648.614 13.193 1.227 19.84 1.943a75.532 75.532 0 0 0-2.557 16.568 43.184 43.184 0 0 0 .1 9.613c.614 3.579 3.989 2.863 6.545 2.148 6.545-1.636 13.09-3.17 19.635-4.807 3.17-.716 6.238-1.636 9.409-2.25 1.432-.307 2.761-.409 3.989.614a20.512 20.512 0 0 1 2.66 3.065zm-57.986 56.248a88.312 88.312 0 0 0 11.658 1.227c7.363.307 14.727.307 22.09.307 1.125 2.761 2.352 9.409 2.659 9.715a88.667 88.667 0 0 1-5.42 8.284c-.1 0-.2-.1-.307-.1-4.3-2.045-18.408-7.363-18.817-7.67-4.6-3.17-5.216-4.909-9.613-8.488a30.186 30.186 0 0 0-2.25-3.278zm37.226-3.579l1.227-1.227c2.454-2.25 4.909-4.6 7.159-7.057-.2.614-.307 1.227-.511 1.943a93.977 93.977 0 0 1-3.477 10.738c-.409 1.125-.92 2.25-1.432 3.375a58.314 58.314 0 0 0-2.966-7.775zm27.1-99a57.842 57.842 0 0 0-5.727 8.386c-1.841 2.966-3.579 5.932-5.114 9-2.966 5.932-5.216 12.17-5.523 18.817-.1 0-.2.1-.307.1a37.4 37.4 0 0 0-9.716 2.761c-1.023.409-2.148.92-3.17 1.329-4.091.818-8.182 1.534-12.272 2.352v-.714l.307-2.761c.307-2.045.614-4.091.921-6.034.511-2.966 1.023-5.829 1.636-8.8 5.011-1.227 8.488-5.522 10.943-9.92 2.761-5.216 5.318-10.534 7.977-15.749a33.735 33.735 0 0 0 8.284 1.534c.614.1 1.227.2 1.943.307a25 25 0 0 0 6.75-.409c1.125-.1 2.148-.307 3.272-.409zm-6.545-3.988a18.308 18.308 0 0 1-7.466-.1 14.291 14.291 0 0 1-5.932-3.886 12.958 12.958 0 0 1-3.068-6.545 16.479 16.479 0 0 1 .1-5.011 12 12 0 0 1 .511-1.125 36.35 36.35 0 0 1 9.2-11.659c1.534-1.33 3.068-2.557 4.7-3.784.614-.307 1.125-.716 1.738-1.023 2.557-1.432 5.113-3.17 7.977-3.886a1.614 1.614 0 0 0 .818-.511c3.988 2.454 8.079 5.625 7.67 10.84-.511 5.829-4.807 10.534-5.318 16.465a11.486 11.486 0 0 0 1.329 6.647c-3.669 2.044-8.069 2.862-12.259 3.578zm11.557 4.6a1.9 1.9 0 0 0-1.227-1.636 45.818 45.818 0 0 0 6.34-2.045c.614.409 1.227.92 1.841 1.329a1.8 1.8 0 0 1 .511.409c-.2.307-.511.614-.716.92a.357.357 0 0 0-.2.1c-1.023.307-1.943.716-2.966 1.125a6 6 0 0 1-2.557.511c-.1 0-.307-.1-.409-.1h-.1l-.307-.2a.1.1 0 0 1-.1-.1l-.1-.1v-.2zm0 .1zm-3.17-1.125c-.1 0-.1 0-.2-.1a.376.376 0 0 0 .307-.1c-.004.102-.104.102-.104.205zm73.429 48.169a4.373 4.373 0 0 1-4.091 3.886c-2.863.2-5.522-1.023-8.386-1.125-2.455-.1-5.114.511-6.75 2.454a18.976 18.976 0 0 0-2.045 3.784 7.775 7.775 0 0 1-6.034.92c-2.25-.716-3.886-2.761-5.727-4.193a8.827 8.827 0 0 0-6.75-2.454c-2.966.307-5.216 2.25-7.977 3.068s-4.193-.614-4.7-3.17c-.511-2.352-.511-4.7-1.432-6.954a12.939 12.939 0 0 0-4.6-5.625 11.951 11.951 0 0 0-3.068-1.432 8.535 8.535 0 0 0-1.227-.409 1.5 1.5 0 0 0 .307-.511 32.955 32.955 0 0 1 1.943-4.193c-.1-2.864-3.17-3.477-5.42-3.477h-.511c-1.636-.409-3.375-.307-5.011-.614-.818-1.125-1.33-2.761-.307-3.886a12.143 12.143 0 0 0 1.636-.818 4.812 4.812 0 0 0 2.352-5.829 7.276 7.276 0 0 0-2.148-3.068 14.05 14.05 0 0 1-2.864-2.659c-1.227-1.841-.307-4.4.614-6.341a9.916 9.916 0 0 0 6.443.511c2.761-.614 5.113-2.045 7.67-3.068a11.694 11.694 0 0 1 3.17 5.829.615.615 0 0 0 .1.409v.307a6.19 6.19 0 0 1 0 1.943c-.1 2.352 3.477 2.352 3.579 0v-1.739a1.742 1.742 0 0 0-.1-.716 21.429 21.429 0 0 0-3.477-9.818 23.728 23.728 0 0 0-4.091-4.909 51.088 51.088 0 0 1-4.807-4.6 7.819 7.819 0 0 1-1.534-2.659 12.794 12.794 0 0 1 .818-3.273 40.624 40.624 0 0 1 3.17-6.75c1.125-2.045 2.25-4.193 2.25-6.647 0-2.25-1.125-4.3-2.25-6.136a34.341 34.341 0 0 0-9.306-9.511 6.684 6.684 0 0 0-2.966-1.432 8.954 8.954 0 0 0-3.272.716 19 19 0 0 0-5.42 3.068 2.986 2.986 0 0 1 .2-.92 5.859 5.859 0 0 1 1.023-1.943 6.129 6.129 0 0 1 3.886-2.454c1.739-.307 3.579.409 5.216.92a16.782 16.782 0 0 0 5.011 1.534c2.557.307 4.6-.818 6.545-2.557l.511-.511c1.636-.716 3.477-1.534 4.909-.1a17.951 17.951 0 0 1 2.966 4.807c.92 1.943 1.636 3.988 1.023 6.136a1.908 1.908 0 0 0 1.739 2.352 23.216 23.216 0 0 1 5.011.818 4.23 4.23 0 0 1 .716 1.125 10.63 10.63 0 0 1 .716 3.579c.1 5.216-2.045 10.943 1.329 15.545a14.14 14.14 0 0 0 5.42 3.988c.92.409 2.045.92 2.966 1.432a10.162 10.162 0 0 1 2.148 9.409c-1.023 3.579-2.046 7.159.614 10.227 1.841 2.148 4.7 3.068 6.75 5.011a4.651 4.651 0 0 1 1.227 2.148 8.506 8.506 0 0 1-.409 1.534c-1.329 3.068-11.045 9.613-4.7 12.681a.316.316 0 0 1 .2.1 5.065 5.065 0 0 0 2.659 1.329c4.193.92 8.488-.818 12.681-.409a7.768 7.768 0 0 1 4.193 1.534c1.534 1.227 1.636 3.068 2.045 4.807a6.769 6.769 0 0 0 2.761 4.3 7.918 7.918 0 0 0 1.636.716c.715 1.226 1.431 2.249 1.226 3.987zm-24.238-18.92c-.2 0-.307-.1-.511-.1.1-.1.1-.2.2-.307.209.102.311.202.311.411z" data-name="Path 9905"/>
    </g>
</svg>
