<svg xmlns="http://www.w3.org/2000/svg" width="63.494" height="63.286" viewBox="0 0 63.494 63.286">
    <defs>
        <style>
            .prefix__cls-2{fill:#030504}
        </style>
    </defs>
    <g id="prefix__Group_8478" data-name="Group 8478" transform="translate(-185.263 -30.074)">
        <path id="prefix__Path_10109" fill="#cf699f" d="M2169.526 723.113c-12.061 8.59-16.093 23.246-13.033 29.855s7.332 17.171 19.093 22.238 19 2.5 34.039-9.02 9.913-27.57-.811-42.58-27.228-9.082-39.288-.493z" data-name="Path 10109" transform="translate(-1970.249 -684.322)"/>
        <g id="prefix__Group_8477" data-name="Group 8477" transform="translate(189.632 31.073)">
            <path id="prefix__Path_18287" d="M2204.425 746.229a13.153 13.153 0 0 1-1.932-.8 4.486 4.486 0 0 0-2.1-.843.682.682 0 0 0-.288.056h-.044a1.183 1.183 0 0 0-.621.216.927.927 0 0 0-.244.24.856.856 0 0 0-.154.537 1.083 1.083 0 0 0 .224.559v.022a.526.526 0 0 0 .431.438.493.493 0 0 0 .067 0 .537.537 0 0 0 .124.081q1.615.718 3.248 1.392a1.892 1.892 0 0 1-.344.724c-.45.77-.869 1.557-1.246 2.367a1.014 1.014 0 0 0-.14.636.61.61 0 0 0 .056.165 2.227 2.227 0 0 0 .091.611.815.815 0 0 0 .675.611 1.283 1.283 0 0 0 .686-.152 1.216 1.216 0 0 0 .61-.571.636.636 0 0 0 .079-.117 48.461 48.461 0 0 0 2.109-4.561.911.911 0 0 0-.25-1.1 3.738 3.738 0 0 0-1.037-.511z" class="prefix__cls-2" data-name="Path 18287" transform="translate(-2170.833 -722.993)"/>
            <path id="prefix__Path_18288" d="M2192.944 743.027a1 1 0 0 0-1.211-.451.479.479 0 0 0-.291.436 1.635 1.635 0 0 0-.2.71 10.624 10.624 0 0 0 .113 2.625q.363 2.753.758 5.5.4 2.774.826 5.543c.112.724.1 1.88.892 2.231.852.377 1.593-.459 1.639-1.255a10.017 10.017 0 0 0-.394-2.849c-.037-.153-.077-.3-.117-.456a6.739 6.739 0 0 0-.147-1.537c-.188-.995-.367-1.99-.521-2.99s-.29-1.993-.406-2.993c-.114-.983-.155-1.99-.361-2.96-.036-.168-.077-.341-.125-.512a1.88 1.88 0 0 0-.334-.853c-.041-.065-.079-.128-.121-.189z" class="prefix__cls-2" data-name="Path 18288" transform="translate(-2168.859 -722.468)"/>
            <path id="prefix__Path_18289" d="M2186.466 757.772l-.012-.008a1.19 1.19 0 0 0-.574-.294c-.323-.091-.646-.179-.969-.267q-1.518-.412-3.046-.784l-.1-.045q.064-.138.126-.278.128-.29.246-.584.221-.546.408-1.1c.133-.4.252-.8.362-1.208a1.73 1.73 0 0 0 .094-1.111.665.665 0 0 0-.179-.248.523.523 0 0 0-.811-.5 3.282 3.282 0 0 0-.843 1.334l-.767 1.577-1.532 3.153a.507.507 0 0 0 .271.659q3.195 1.094 6.431 2.061a.593.593 0 0 0 .547-.094 1.116 1.116 0 0 0 .546-.107 1.078 1.078 0 0 0 .6-.79.966.966 0 0 0-.054-.5 1.036 1.036 0 0 0-.265-.373 2.241 2.241 0 0 0-.479-.493z" class="prefix__cls-2" data-name="Path 18289" transform="translate(-2165.748 -724.668)"/>
            <path id="prefix__Path_18290" d="M2187.923 730.119a4.03 4.03 0 0 0-1.529.205c-.736.2-4.951 1.938-5.617 2.312a4.047 4.047 0 0 0-1.229.931.982.982 0 0 0-.336.647c-.014.15.538.66.582.811a5.616 5.616 0 0 0 1.115-.156 33.029 33.029 0 0 0 4.6-1.84c2.355-1.009 2.76-1.018 3.052-1.523a.9.9 0 0 0 .052-1.162.978.978 0 0 0-.69-.225z" class="prefix__cls-2" data-name="Path 18290" transform="translate(-2165.844 -719.348)"/>
            <path id="prefix__Path_18291" d="M2201.425 779.466a10.593 10.593 0 0 0-1.226.873 1.5 1.5 0 0 0-.614.973 1.134 1.134 0 0 0 .962 1.275 21.194 21.194 0 0 0 2.868-.782l.023-.009c.213-.1 1.812-.747 1.82-.75a21.052 21.052 0 0 0 2.585-1.463 1.133 1.133 0 0 0-.213-1.583 1.5 1.5 0 0 0-1.121-.258 10.535 10.535 0 0 0-1.486.243c-.584.281-2.983 1.269-3.598 1.481z" class="prefix__cls-2" data-name="Path 18291" transform="translate(-2170.965 -731.327)"/>
            <path id="prefix__Path_18292" d="M2199.722 730.744c-1.831-4.13-6.189-13.642-6.41-14.327a1.146 1.146 0 0 0-1.474-.614c-.281.1-10.742 4.051-13.128 5.109q-2.662 1.09-5.3 2.237-1.529.616-3.067 1.213a83.063 83.063 0 0 0-7.657 3.247c-.742.376-1.373.854-1.333 1.777a8.175 8.175 0 0 0 .5 2.067 14.33 14.33 0 0 0 .528 1.373 36.3 36.3 0 0 0 2.658 6c1.067 2.28 2.018 4.612 2.907 6.966 1.783 4.721 3.322 9.53 5.084 14.259a74.726 74.726 0 0 0 7.43 15.291c.137.206 1.567 1.388 2.093 1.182 4.97-1.953 23.795-9.154 27.164-10.471.892-.348 2.106-.605 2.457-1.613a2.367 2.367 0 0 0-.143-1.542c-.182-.568-.37-1.135-.557-1.7q-1.017-3.079-2.094-6.139-4.35-12.339-9.658-24.315zm7.809 31.8c-1.9.82-5.877 2.5-7.772 3.32-1.146.5-3.651 1.527-3.651 1.527l-8.429 3.086-2.962 1.085-1.482.542c-.211.077-.424.152-.635.232.106-.04.058-.031-.021-.005-.191-.37-.476-.729-.679-1.081-.259-.448-.505-.9-.745-1.361-.381-.73-.737-1.471-1.082-2.219 4.539-2.048 13.651-6.069 13.651-6.069 3.193-1.3 8.488-3.421 11.711-4.643q1.048 2.789 2.095 5.583zm-11.807-29.7c.658 1.426 1.382 2.821 2.039 4.247 1.315 2.846 2.4 5.793 3.5 8.726l3.053 8.14c-3.256 1.23-21.062 8.467-25.689 10.362-1.191-2.911-2.264-5.873-3.384-8.808q-2.279-5.967-4.539-11.94c-.843-2.231-1.639-4.485-2.53-6.7-.133-.33-.277-.654-.426-.975q-.614-2.39-1.325-4.754l.191-.085 2.042-.9 4.084-1.8 5.068-2.227c.394-.149.785-.3 1.179-.448 3.389-1.252 8.955-3.16 12.252-4.645q1.377 3.754 2.756 7.507c.53 1.462 1.083 2.901 1.729 4.302z" class="prefix__cls-2" data-name="Path 18292" transform="translate(-2161.351 -715.733)"/>
        </g>
    </g>
</svg>
