<svg xmlns="http://www.w3.org/2000/svg" id="prefix__Group_6" width="70" height="70" data-name="Group 6" viewBox="0 0 70 70">
    <defs>
        <style>
            .prefix__cls-2{fill:#fff}
        </style>
    </defs>
    <g id="prefix__AEG-ICONOGRAPHY_idea">
        <path id="prefix__Path" fill="#dc7fac" d="M31.185 61.25A31.185 31.185 0 0 0 62.37 30.065C62.37 12.845 47.294 0 30.074 0S0 12.845 0 30.065A31.185 31.185 0 0 0 31.185 61.25z" transform="translate(3.815 4.375)"/>
        <path id="prefix__Shape" d="M4.37 12.364c-1.6 0-2.332-1.078-2.442-3.605-.334-.077-1.9-.553-1.9-.875a12.678 12.678 0 0 1 0-1.751c.086-.6.7-5.888.708-5.941L7.407.5c.078-.117.339-.49.507-.49L7.941 0a.049.049 0 0 1 .036.02 1.606 1.606 0 0 1 .052.942 7.9 7.9 0 0 0 .278 1.758 11.927 11.927 0 0 1 .377 2.434 8.5 8.5 0 0 0 .234 1.566 8.662 8.662 0 0 1 .213 1.34c0 .31-1.393.747-1.881.875a5.642 5.642 0 0 1-.695 2.519 2.417 2.417 0 0 1-2.185.91zM3.128 2.948l-.077.657c-.125 1.068-.244 2.076-.316 2.6A2.692 2.692 0 0 1 4.6 8.583a2.661 2.661 0 0 1 1.564-2.064 6.6 6.6 0 0 1-.149-1.462 15.684 15.684 0 0 0-.324-1.75L5.648 3.1l-2.52-.114z" class="prefix__cls-2" transform="translate(30.586 40.416)"/>
        <path id="prefix__Shape-2" d="M11.817 19.8c-.094 0-.189 0-.282-.005h-.4c-5.3-.2-8.344-1.771-10.193-5.251a8.611 8.611 0 0 1-.896-4.893 11.774 11.774 0 0 1 1.64-4.9C3.469 1.777 6.216 0 9.033 0v2.651c-1.875 0-3.765 1.289-5.058 3.447-1.445 2.418-1.713 5.228-.682 7.158 1.155 2.171 2.95 3.658 7.954 3.859h.288c.084 0 .169.007.253.007a4.763 4.763 0 0 0 3.869-1.993l.078-.122a10.221 10.221 0 0 0 1.47-7.656c-.56-3.084-6.154-4.47-7.621-4.673-.091-.007-.183-.01-.275-.01s-.184 0-.276.01V0h.044a8.168 8.168 0 0 1 .875.061 20.112 20.112 0 0 1 4.562 1.315 11.7 11.7 0 0 1 3.349 2.082 6.107 6.107 0 0 1 1.968 3.42A12.783 12.783 0 0 1 17.9 16.6a7.375 7.375 0 0 1-6.083 3.2z" class="prefix__cls-2" data-name="Shape" transform="translate(24.926 23.327)"/>
        <path id="prefix__Path-2" d="M6.244.008a3.553 3.553 0 0 0-1.558.245L3.234.621a14.613 14.613 0 0 0-2.914.971c-.569.3-.332 1.339.341 1.269a5.031 5.031 0 0 0 .823-.122l.716-.228c.472-.149.954-.289 1.426-.455l1.426-.49A3.684 3.684 0 0 0 6.489.918a.551.551 0 0 0-.245-.875z" class="prefix__cls-2" data-name="Path" transform="translate(17.04 34.694)"/>
        <path id="prefix__Path-3" d="M.957 5.974c.551-.158.787-.709 1.085-1.155a3.089 3.089 0 0 1 .184-.28l.087-.122c.14-.2-.087.1 0 0l.438-.525c.324-.368.639-.744.954-1.129A6.3 6.3 0 0 0 4.816 1.2.95.95 0 0 0 3.425.129a6.274 6.274 0 0 0-1.269 1.277c-.376.438-.744.875-1.094 1.33a7.472 7.472 0 0 0-.743 1.138c-.289.586-.543 1.409 0 1.934a.674.674 0 0 0 .656.175z" class="prefix__cls-2" data-name="Path" transform="translate(37.945 16.68)"/>
        <path id="prefix__Path-4" d="M.366 3.649A.079.079 0 0 0 .454 3.6a.656.656 0 0 0 .184 0A2.494 2.494 0 0 0 1 3.6a5.057 5.057 0 0 0 .613-.21c.5-.175.726-.3 1.181-.473s.8-.3 1.2-.429l.63-.192a2.389 2.389 0 0 0 .945-.464A1.076 1.076 0 0 0 4.811 0a3.649 3.649 0 0 0-1.592.639c-.385.219-.761.446-1.138.682A9.476 9.476 0 0 0 .909 2.2a3.159 3.159 0 0 0-.525.5 4.883 4.883 0 0 1-.307.5c-.192.2 0 .612.289.5z" class="prefix__cls-2" data-name="Path" transform="translate(46.971 24.272)"/>
        <path id="prefix__Path-5" d="M.263 1.528l.21.166.262.106a7.56 7.56 0 0 0 .744.271c.4.14.814.219 1.216.332s.805.227 1.207.359l.6.192.262.088c.131.053.114.044-.061 0a1.094 1.094 0 0 0 .315.131l-.5-.289a1.75 1.75 0 0 0 .525.306 1.111 1.111 0 0 0 1.345-.79A1.234 1.234 0 0 0 5.574.925a6.44 6.44 0 0 0-.7-.21C4.4.575 3.92.452 3.439.338a11.226 11.226 0 0 0-1.6-.306C1.19-.029.508-.064.088.522a.875.875 0 0 0 .175 1.006z" class="prefix__cls-2" data-name="Path" transform="translate(46.987 33.472)"/>
        <path id="prefix__Path-6" d="M.148.806L.2.85l.053.07.149.289.385.814.411.8c.21.4.42.875.919.963a.805.805 0 0 0 .583-.075.761.761 0 0 0 .341-.446 1.068 1.068 0 0 0-.158-.919l-.3-.394-.612-.805a8.041 8.041 0 0 0-.648-.8 1.024 1.024 0 0 0-1-.32.446.446 0 0 0-.2.735z" class="prefix__cls-2" data-name="Path" transform="translate(44.915 40.678)"/>
        <path id="prefix__Path-7" d="M2.487 0a2.424 2.424 0 0 0-.875.726q-.371.42-.7.875a6.247 6.247 0 0 0-.5.875c-.228.438-.551.98-.35 1.479a.875.875 0 0 0 .49.543.875.875 0 0 0 .753 0 1.312 1.312 0 0 0 .569-.779c.053-.149.1-.3.14-.437s.114-.306.175-.455l.105-.254v-.106s.07-.175 0-.061a.534.534 0 0 0 0-.105l.105-.21c.07-.14.14-.289.219-.429s.158-.263.227-.4a2.406 2.406 0 0 0 .246-.553.56.56 0 0 0-.149-.534.525.525 0 0 0-.534-.14z" class="prefix__cls-2" data-name="Path" transform="translate(22.556 40.897)"/>
        <path id="prefix__Path-8" d="M6.16 1.707a3.911 3.911 0 0 0-1.348-.77C4.427.771 4.042.639 3.64.508a12.313 12.313 0 0 0-1.2-.341A3.3 3.3 0 0 0 .77.062a1.05 1.05 0 0 0-.761.875 1.068 1.068 0 0 0 .508 1.05 3.246 3.246 0 0 0 1.3.437c.4.088.814.149 1.225.236s.779.175 1.173.245a4.55 4.55 0 0 0 1.374.166.875.875 0 0 0 .735-.5.8.8 0 0 0-.164-.871z" class="prefix__cls-2" data-name="Path" transform="translate(17.465 24.788)"/>
        <path id="prefix__Path-9" d="M3.609 5.827a1.207 1.207 0 0 0 .35-.954A4.611 4.611 0 0 0 3.828 4a9.38 9.38 0 0 0-.341-1.2 9.721 9.721 0 0 0-.621-1.33A2.511 2.511 0 0 0 1.518.043 1.146 1.146 0 0 0 .477.262 1.234 1.234 0 0 0 0 1.2c-.053.569.385 1.094.648 1.558s.368.7.56 1.041.367.683.534 1.041c.236.508.446 1.006 1.041 1.181a.875.875 0 0 0 .826-.221z" class="prefix__cls-2" data-name="Path" transform="translate(26.946 16.048)"/>
        <path id="prefix__Shape-3" d="M28.827 58.716h-.1a30.25 30.25 0 0 1-3.884-.254c-5.511-.72-10.5-3.17-15.242-7.491A27.729 27.729 0 0 1 .639 35.432a27.533 27.533 0 0 1-.245-10.561 1.938 1.938 0 0 1 .071-.435c.022-.091.044-.185.06-.282L.554 24a31.887 31.887 0 0 1 2.677-8.6 33.511 33.511 0 0 1 9.763-11.687l.158-.105C17.044 1.146 21.924 0 28.508 0c1.175 0 2.449.035 3.894.108a25.413 25.413 0 0 1 16.712 7.14 22.779 22.779 0 0 1 5.477 7.115l.244.478a30.982 30.982 0 0 1 3.327 8.42 30.441 30.441 0 0 1-2.809 19.25 29.815 29.815 0 0 1-26.526 16.205zM14.6 5.865C5.763 12.758 4.623 16.845 3.521 20.8c-.077.276-.152.547-.23.818a29.691 29.691 0 0 0-.621 5.119 29.341 29.341 0 0 0 .595 8.181 24.99 24.99 0 0 0 7.673 14.3 26.08 26.08 0 0 0 14.271 6.615c1.176.159 5.1.228 6.187.228a23.451 23.451 0 0 0 7.035-1.024 20.336 20.336 0 0 0 5.831-2.937 29.566 29.566 0 0 0 8.693-10.784 27.728 27.728 0 0 0 2.555-17.565 30.984 30.984 0 0 0-2.931-8.54A25.753 25.753 0 0 0 47.478 8a23.058 23.058 0 0 0-15.19-6.038c-.659-.034-1.328-.052-1.99-.052-6.036 0-11.61 1.42-15.693 4z" class="prefix__cls-2" data-name="Shape" transform="translate(6.658 5.037)"/>
        <path id="prefix__Rectangle" fill="none" d="M0 0H70V70H0z"/>
    </g>
</svg>
