<svg xmlns="http://www.w3.org/2000/svg" width="224" height="385.499" viewBox="0 0 224 385.499">
    <defs>
        <style>
            .prefix__cls-1{fill:#fff;stroke:#1f8c6d;stroke-width:2px}.prefix__cls-9{fill:#030504}.prefix__cls-11{stroke:none}.prefix__cls-12{fill:none}
        </style>
    </defs>
    <g id="prefix__Group_8601" data-name="Group 8601" transform="translate(-849 -1137.501)">
        <g id="prefix__Group_8596" data-name="Group 8596">
            <g id="prefix__Rectangle_4674" class="prefix__cls-1" data-name="Rectangle 4674">
                <path d="M0 0H220V326H0z" class="prefix__cls-11" transform="translate(849 1192)"/>
                <path d="M1 1H219V325H1z" class="prefix__cls-12" transform="translate(849 1192)"/>
            </g>
            <g id="prefix__Rectangle_4676" class="prefix__cls-1" data-name="Rectangle 4676">
                <path d="M0 0H220V326H0z" class="prefix__cls-11" transform="translate(849 1192)"/>
                <path d="M1 1H219V325H1z" class="prefix__cls-12" transform="translate(849 1192)"/>
            </g>
            <path id="prefix__Rectangle_4677" fill="#1f8c6d" d="M0 0H217V326H0z" data-name="Rectangle 4677" transform="translate(856 1185)"/>
        </g>
        <text id="prefix__Enterprising_Community_Girl_Challenge" fill="#fff" data-name="Enterprising ‘Community’ Girl Challenge" font-family="Arial-Black, Arial Black" font-size="24px" font-weight="800" transform="translate(867 1389)">
            <tspan x="13.51" y="26">Enterprising </tspan><tspan x="13.334" y="57">‘Community’ </tspan><tspan x=".936" y="88">Girl Challenge</tspan>
        </text>
        <path id="prefix__Path_18295" d="M.109 30.943c.918 12.292 11.324 18.474 17.1 19.124s16.282 7.922 24.571 1.7 14.642-14.234 12.946-29.908S33.281-1.086 18.622.131-.809 18.651.109 30.943z" class="prefix__cls-1" data-name="Path 18295" transform="rotate(59 -521.496 1426.701)"/>
        <text id="prefix___3" fill="#1f8c6d" data-name="3" font-family="Arial-Black, Arial Black" font-size="32px" font-weight="800" transform="translate(935 1152)">
            <tspan x="15.828" y="35">3</tspan>
        </text>
        <g id="prefix__Group_8542" data-name="Group 8542" transform="translate(892 1224)">
            <path id="prefix__Path_18496" fill="#fff" d="M1028.668 215.347c.037.206 4.673 103.708-66.307 135.712v.023l-.024-.011-.024.011v-.023c-71.561-30.715-68.844-134.284-68.811-134.49 8.883 5.11 21.83 7.318 35.441 5.179 14.551-2.287 26.246-8.97 31.973-17.153l.039-.028v-.035l.024.017.024-.018v.035l.039.027c5.878 8.078 17.695 14.549 32.286 16.572 13.649 1.893 26.552-.548 35.34-5.818z" data-name="Path 18496" transform="translate(-890.972 -204.532)"/>
            <path id="prefix__Path_18497" fill="#696a6a" d="M956.01 206.846s-22.5 78.731 1.346 145.822c0 0-68.162-17.454-68.094-133.741 0 0 39.88 18.673 66.748-12.081z" data-name="Path 18497" transform="translate(-889.262 -205.47)" style="isolation:isolate;mix-blend-mode:multiply" opacity="0.19"/>
            <g id="prefix__Group_8541" data-name="Group 8541" transform="translate(2.51)" style="mix-blend-mode:overlay;isolation:isolate" opacity="0.5">
                <path id="prefix__Path_18498" fill="#c4c4c3" d="M1028.668 215.347c.037.206 4.673 103.708-66.307 135.712v.023l-.024-.011-.024.011v-.023c-71.561-30.715-68.844-134.284-68.811-134.49 8.883 5.11 21.83 7.318 35.441 5.179 14.551-2.287 26.246-8.97 31.973-17.153l.039-.028v-.035l.024.017.024-.018v.035l.039.027c5.878 8.078 17.695 14.549 32.286 16.572 13.649 1.893 26.552-.548 35.34-5.818z" data-name="Path 18498" transform="translate(-893.482 -204.532)"/>
            </g>
            <path id="prefix__Path_18499" d="M1026.924 240.663l-.015-1.967-.122.124c.01-.478.024-.991.039-1.533.033-1.134.067-2.362.065-3.609h.03c.059-1.348.042-2.863-.05-4.768l-.172-5.324.108-.635-.514-.286-.6-.184-1.366 1.07c-.478.425-.873.769-1.248 1.065-.324.24-.472.343-.686.487l-.01-.012-.247.183a4.713 4.713 0 0 1-.8.456c-.089.039-.179.083-.271.131-.417.2-.847.355-1.168.475a1.76 1.76 0 0 0-.967.6 1.037 1.037 0 0 0-.412.4l-.093.041a6.194 6.194 0 0 0-1.326.334l-.227.076a7.57 7.57 0 0 1-1.548.259h-.1l-.1.023a16.048 16.048 0 0 1-2.461.353c-.3.032-.595.053-.874.071l.12-.019-4.594-.3-.246-.023h-.174l-1.968-.128c-.23-.064-.407-.115-.545-.158l.036-.238a28.106 28.106 0 0 1-2.787-.544l-2.254-.65c-.268-.087-.584-.181-.911-.279a12.806 12.806 0 0 1-2-.7c-.41-.206-1.074-.5-1.911-.87-1.225-.54-2.829-1.249-4.548-2.093a69.422 69.422 0 0 1-8.323-4.741l-2.58-1.736.024-.039c-1.262-.815-2.157-1.494-2.948-2.094-.481-.365-.944-.716-1.444-1.064l-.314-.34-.143-.123c-.084-.056-.16-.108-.228-.156l.06-.08c-1.889-1.5-2.632-1.931-3.179-2.018a17.787 17.787 0 0 0-1.958-1.72l.081-.087-2.168-2.058-.556.4a1.542 1.542 0 0 0-.253.244l-1.415 1.524c-.454.505-.923.959-1.283 1.309a6.341 6.341 0 0 0-.736.783c-.361.294-1.07.876-1.164.983a35.728 35.728 0 0 1-3.553 2.466l-.359.228.064.1a11.321 11.321 0 0 1-1.534.846c-.256.127-.535.265-.838.421l-3.122 1.341a17.2 17.2 0 0 1-2.638.9l-3.129.908.239.05-.423.085c-.8.162-1.629.33-2.363.5l.012.071c-.47.058-1 .091-1.476.121l-.732.011c-.343 0-.676.009-.981.018l-.016-.123c-1.686.109-2.083.156-2.358.446-.072.013-.161.026-.272.04a2.812 2.812 0 0 0-1.484-.148c-.206 0-.594.027-1.1.061a33.321 33.321 0 0 1-6.215.016l-.036.186-.242-.005a31.169 31.169 0 0 1-3.249-.4c-.949-.147-1.828-.27-2.607-.339l-.124-.058-.255-.073a4.445 4.445 0 0 0-.785-.049c-.745-.08-1.905-.265-2.975-.434-.91-.145-1.751-.277-2.22-.331a31.063 31.063 0 0 0-4.5-1.18c-1.091-.244-2.491-.556-3.245-.777l.048-.14-4.912-1.436c-2.006-.634-3.077-.918-3.89-1.1l-3.181-1.078-2.91-.907-.228-.065a1.156 1.156 0 0 0-1.278.148 1.013 1.013 0 0 0-.189 1.1l.013.09c.1.724.235 1.651.353 2.322l-.1.374.036.184c.055.286.131 1.188.221 2.233.16 1.877.4 4.659.775 7.112l-.046.008c.266 1.716.468 3.7.663 5.621.353 3.476.6 5.7 1.047 6.766l.516 2.823.3-.046.009.079c-.256.356-.153 1.118.13 3.218.03.222.064.47.094.712l-.105-.043.535 3.545c1.031 6.838 2 13.3 3.349 19.592l.566 2.652-.057.029.871 3.784.031-.845c.152.449.311.962.655 2.147.111.4.149.611.177.556a1.074 1.074 0 0 0 .037.583 6.463 6.463 0 0 0 .249.839 17.39 17.39 0 0 0 .777 2.174c.12.292.239.583.351.876l.2-.061.049.116a3.906 3.906 0 0 0 .432.839c.661 1.786 2.095 4.969 3.286 7.612.725 1.611 1.353 3 1.541 3.507.73 1.4 1.356 2.858 2.08 4.543l.451 1.048.169-.066c.055.106.137.273.253.531-.053.465.272 1.222.965 2.834.379.886.808 1.883 1.008 2.506.013.048.028.1.047.149l.231-.074-.153.1c.114.169.43.8.775 1.465a19.662 19.662 0 0 0 1.179 2.138 2.829 2.829 0 0 0 .281.84l.768 1.353a76.713 76.713 0 0 0 6.81 10.567l.146.182.221.077.419.537c.328.51.658 1.021 1.067 1.589a5.84 5.84 0 0 0 .656.628 6.041 6.041 0 0 1 1.151 1.313l.1-.064.047.048c4.686 5.646 10.4 10.68 15.932 15.55 2 1.761 3.993 3.517 5.935 5.3l.074-.076c.14.114.3.25.469.388.19.168.509.436 1.068.882l.075-.092c.662.607 1.324 1.216 2.031 1.8l.193.12a7.284 7.284 0 0 1 .727.447c.424.275.939.607 1.466.9.051.029.123.062.179.092l-.117.219a11.922 11.922 0 0 0 1.544.768l.143-.31a3.274 3.274 0 0 0 .914.2h.085l.182.141a5.061 5.061 0 0 0 .423.291l.2.125h.241a8.164 8.164 0 0 0 1-.093l.058.318a3.277 3.277 0 0 0 1.028-.2l.036-.018a.754.754 0 0 0 .432-.648v-.142c2.524-.557 4.472-2.357 5.917-3.711.825-.773 1.611-1.523 2.417-2.284l.386.288 1.1-1.206-.262-.238c.5-.479 1.025-.967 1.523-1.443l.39.323c.643-.629 1.353-1.344 2.046-2.044 1.022-1.032 2.013-2.032 2.7-2.663l-.12-.152c.416-.4.622-.661.617-.943.249-.246.49-.489.737-.734l.948-.7.576.4.585-.538a2.247 2.247 0 0 0 .4-.465l2.246-2.227c.134-.107.368-.322.578-.521.12-.112.224-.212.274-.254l-.03-.04.027-.027.058.049c.244-.268.447-.5.6-.7l1.841-1.826-1.2.753 2.656-3 .022.017.34-.424.015-.018.142-.161-.033.022c.154-.191.3-.376.415-.53l.261.235.311-.311c.225-.225.474-.48.637-.629l.306-.041.257-.852.227-.279-.036-.03.6-.741-.138.305.908-1.165.351-.261a6.705 6.705 0 0 0 1-.946l-.087-.092.181-.2.269.181.922-1.316-.375-.261.4-.514h.443l.245-.332-.233-.251.051-.065.268.2-.112-.1.132.1-.015-.02.034.03c.033-.032.037-.058.065-.089l.083-.09c.131-.171.247-.337.368-.514l-.3.656.637-.851a2.321 2.321 0 0 0 .623-.448l-.067-.094.144.1c.7-.879 1.239-1.667 1.715-2.387l-.073-.049 1.414-2.032.031-.04a4.927 4.927 0 0 0 .94-1.161l.182-.41c.252-.352.509-.7.754-1.057l.06-.076-.822 3.062 4.038-7.569-.163-.092.006-.01-.152-.109c.083-.1.182-.225.305-.389l.142 1 1.642-2.93-.481-.3a1.216 1.216 0 0 0 .517-.5l.2.152a3.916 3.916 0 0 0 .562-.719 6.838 6.838 0 0 1 .657-.87l-.14-.112.055-.095.1.039c.076-.179.57-1 .9-1.543.171-.283.312-.52.441-.739l.118-.07-.043-.056.14.078c.023-.039.051-.087.081-.143l.719-1.282-.12-.066c.225-.344.438-.689.648-1.044.317-.532.661-1.114 1.141-1.806l1.394-2.007-.557.187.09-.157a1.6 1.6 0 0 0 .314-.521l.457-.933-.261-.126.018-.04c.478-.061.8-.612 1.269-2.057l.242-.779.122.053.914-1.977a34.517 34.517 0 0 0 1.664-3.863c.223-.517.445-1.2.6-1.678h.016l1.122-3.276c.505-1.451.931-2.971 1.346-4.526l.395-1.266c.3-.96.522-1.729.7-2.411a20.321 20.321 0 0 0 .657-2.934l-.048-.01.634-3.5.4-1.773a33.615 33.615 0 0 0 .493-3.705 56.968 56.968 0 0 0 .819-8.874l.064-1.269-.142-.1c.061-1.6.065-3.18.049-5.29zm-55.16-24.541c.438.344.877.688 1.279.98a30.188 30.188 0 0 0 3.334 2.442c.446.322 1.047.676 1.477.921l-.008.015.548.333c.68.413 1.359.825 2.049 1.22l.3.209c1.328.811 2.744 1.561 4.2 2.31l.964.559c.851.494 1.539.87 2.161 1.171a16.115 16.115 0 0 0 2.684 1.253l.013-.029 3.991 1.761a33.162 33.162 0 0 0 4.354 1.529 23.581 23.581 0 0 0 4.338 1.266 52.38 52.38 0 0 0 5.235.733l.445.046.124-.154a25.6 25.6 0 0 0 5.4-.2l1.9-.283-.179-.136a23.251 23.251 0 0 0 4.44-1.2l.009.025a10.223 10.223 0 0 0 1.074-.429l.635-.288.046 1.272c.024.829.021 1.631-.024 2.495a12.924 12.924 0 0 1 .014 1.663h-.015v.246l-.066 1.063-.08.756c-.136 1.245-.189 1.755.066 2.05a1 1 0 0 0 .2.506c0 .064.009.126.014.186a7.3 7.3 0 0 0-.1 1.567 7.157 7.157 0 0 1-.1 1.606l-.043.176.027.168c.032.2.021 1.181.012 1.893a27.41 27.41 0 0 0 .041 2.782c-.035.357-.064.689-.089 1l-.578-1.913.305 6.331c-.036.193-.067.365-.1.51l-.253-.005c-.084 1.809-.139 2.367-.2 3.035l-.058.613-.207 1.369c-.049.324-.094.715-.139 1.114a11.8 11.8 0 0 1-.288 1.818c-.138.452-.309 1.2-.524 2.141-.281 1.229-.641 2.8-1.109 4.5a74.068 74.068 0 0 1-2.922 8.752l-1.13 2.779-.045-.016c-.48 1.247-.914 2.178-1.3 3-.29.623-.553 1.19-.8 1.8l-.25.361-.1.2c-.018.053-.046.128-.08.211l-.093-.04c-1.03 2.113-1.25 2.92-1.2 3.441a14.774 14.774 0 0 0-1.163 2.233l-.1-.055-1.732 3a19.839 19.839 0 0 0-1.39 2.524c-.316.444-.776 1.256-.82 1.343-.671 1.068-1.014 1.579-1.4 2.151-.3.454-.633.945-1.165 1.772l.1.07a10.543 10.543 0 0 1-.747 1.084c-.225.3-.477.642-.754 1.041l-.187.238c-1.211 1.54-1.507 1.985-1.745 2.342a24.69 24.69 0 0 1-1.789 2.288l-1.989 2.406.422-.165c-.656.745-1.375 1.57-1.955 2.343l.057.048c-.422.451-.965.952-1.465 1.411-.284.262-.562.518-.808.755l-.1-.08c-1.151 1.219-1.394 1.509-1.382 1.914-.036.049-.082.111-.143.187-.375.073-.681.417-1.124.917-.242.231-.627.7-1.284 1.512a38.668 38.668 0 0 1-3.476 3.921l.125.145-.142.168c-.479.534-1.145 1.171-1.83 1.829-.8.772-1.616 1.559-2.235 2.265l-.115.064-.217.173a4.39 4.39 0 0 0-.471.592c-.347.385-.837.907-1.355 1.459-.868.924-1.694 1.8-2.093 2.293a26.63 26.63 0 0 0-3.6 3.376c-.644.663-1.464 1.506-1.975 1.979l-.1-.114-3.629 3.419c-1.545 1.422-2.286 2.205-2.826 2.777l-.528.411a6.247 6.247 0 0 1-2.994 1.464 5.213 5.213 0 0 1-2.712-.341l-.235-.272-.2-.074a14.007 14.007 0 0 1-2.68-1.933l-.283-.245c-1.231-1.064-2.613-2.259-3.96-3.314l.028-.036c-1.578-1.217-3.34-2.828-4.9-4.249a28.763 28.763 0 0 0-4.342-3.6l-2.131-1.8-.2.222-.035-.035c-.031-.407-.541-.912-1.873-2.233-.211-.209-.466-.462-.7-.7l.093-.031-.918-.918a88.348 88.348 0 0 1-13.111-16.391l-1.3-2.138.072-.061-1.065-1.9-.045.023-.228-.345a15.512 15.512 0 0 1-1.227-2.154c-.169-.365-.24-.524-.249-.457a1 1 0 0 0-.118-.571 6.062 6.062 0 0 0-.367-.785l-1.263-2.722-.193.072-.075-.157a3.688 3.688 0 0 0-.4-.7c-.739-1.93-2.39-5.711-3.538-8.341-.514-1.177-.911-2.086-1.078-2.488-.858-1.63-1.587-3.264-2.524-5.395l-.167.067c-.054-.1-.133-.261-.246-.507a6.468 6.468 0 0 0-.736-2.3 19.68 19.68 0 0 1-1.044-2.882l-.462.092.349-.172c-.086-.172-.391-1.08-.593-1.681a18.868 18.868 0 0 0-.688-1.88 2.636 2.636 0 0 0-.083-.889 78.17 78.17 0 0 1-2.067-9.209c-.232-1.253-.468-2.527-.723-3.805l-.046-.231-.164-.171-.248-2.418a5.027 5.027 0 0 0-.25-.835 4.591 4.591 0 0 1-.29-1.616h-.116l-.015-.07c-.366-2.585-.766-5.2-1.168-7.829-1.045-6.825-2.125-13.883-2.641-20.8l-.108.007-.071-.567c-.021-.246-.071-.649-.171-1.337l-.111.015-.183-2.539-.053-.235a20.372 20.372 0 0 1-.343-2.319c0-.038-.008-.068-.013-.1l.248-.031-.1-1.442-.333.012a3.24 3.24 0 0 0-.2-.818l.109-.266c3.023.965 5.98 1.887 8.9 2.733l-.058.473 1.56.321.079-.354c.657.185 1.315.369 1.969.545l-.084.507c1.191.314 2.594.623 3.864.9.98.216 1.88.413 2.528.582l.065-.183a3.694 3.694 0 0 0 .729.119.711.711 0 0 0 .322-.071l2.132.638-.007.325-.222.022.221.036v.1l-1.846.231 4.934.407 2.4.407.09.018.056.01v.027c.1.009.168.009.259.017l2.91.493-1.481-.631h.1v-.008l4.322.2v.008h.129l.456.021-.088-.03c.357-.008.661-.02.91-.039v.355l.454.022c.3.014.626.025.839.044l.24.216.786-.386.371-.017v-.049l1.736-.152.211-.005.509.1a3.373 3.373 0 0 0 .716.056c.188 0 .423-.007.724-.022v-.119l.275-.023.064.312.534-.1c.354-.063.707-.127 1.058-.211l-.085-.358.813.008.1.094.493-.089h.074v.021c.042 0 .061-.017.1-.02h.059l.072-.012c.3-.054.552-.113.791-.177a1.734 1.734 0 0 0 .97.185l.01-.106.037.164a21.011 21.011 0 0 0 2.832-.742l.3-.087a9.2 9.2 0 0 0 1.114-.366l-.03-.074.935-.308.06-.014c1.235-.217 1.416-.35 1.534-.438l.212-.158c.159-.058.322-.1.482-.164l.836-.3.111-.039.2-.068-2.656 2.622 6.187-3.9.4-.243c.325-.2.65-.395.959-.62l-.192-.278-.015-.03c.123-.051.271-.114.469-.2l-.13-.3.064-.035.147.173-.4 1.227 2.767-1.967-.29-.459h.01a1.3 1.3 0 0 0 .651-.227l.11.212a3.485 3.485 0 0 0 .845-.44 6.147 6.147 0 0 1 .913-.517l-.081-.162.086-.065.071.073c.08-.075.266-.212.5-.387.3-.227.674-.508.993-.77.228-.169.429-.323.616-.471l.127-.031-.018-.057.118-.095.043.053.109-.085.045.042 1-.917-.1-.108c.243-.192.487-.371.731-.59l.024-.023.9 2.634.209-2.325a1.687 1.687 0 0 0 .4.369l.769.652.193-.218.025.019c-.063.5.452.935 1.671 1.68l.693.41-.08.1zm-41.247 7.459l.013.382-1.329-.453c.438.028.876.053 1.316.072zm52.346 110.085l.134-.123a.506.506 0 0 1-.067.183zm5.25-6.508c.283-.3.561-.607.842-.911l.255.2zm12.044-12.875l.061-.081v.122zm6.482-10.015l.037-.06.173.067.025.177z" class="prefix__cls-9" data-name="Path 18499" transform="translate(-890.514 -205.221)"/>
            <path id="prefix__Path_18500" fill="#267b5a" d="M1015.628 311.321a23.625 23.625 0 0 1-3.194-.557 3.342 3.342 0 0 0-1.741-3.094l-7.482-3.5.2-1.19c4.837-.688 7.907-6.7 6.672-11.624-.827-3.3-3.113-5.942-5.421-8.328-1.184-1.225-2.357-2.486-3.545-3.735a14.5 14.5 0 0 0-2.429-6.267 3.815 3.815 0 0 0 .966-2.378q-.062-.453-.122-.907a3.414 3.414 0 0 0-.878-1.506l-.691-.534a3.4 3.4 0 0 0-1.723-.466 3.355 3.355 0 0 0-3.018 1.84 3.808 3.808 0 0 0-1.414-1.812l-3.346-2.365a3.1 3.1 0 0 0-4.184.544l-3.228-.707a5.648 5.648 0 0 0-3.592-.707c-3.609.456-5.217 6.009-.968 6.964a2.591 2.591 0 0 1-.739.186c-1.44.14-3.052-.562-4.386-1.008-2.376-.794-5.4 1.865-4.366 4.366a2.228 2.228 0 0 1-.466 2.652l-1.761.377c-2.571.55-3.078 3.491-1.976 5.374-.656.733-1.308 1.472-1.947 2.219a5.954 5.954 0 0 0-1.1 1.545c-.352.836-.01 1.548-.179 2.31s-.415 1.616-1.387 1.682c-3.319.224-5.074 4.828-1.791 6.612a1.765 1.765 0 0 1 1.143 1.881 3.236 3.236 0 0 0 1.337 2.733l-2.973 4.974a3.334 3.334 0 0 0-.463 1.8l-10.536 9.358a3 3 0 0 0-1.042 2.043 3.668 3.668 0 0 0 .609 4.278c7.2 6.041 16.938 12.13 25.843 5.446 3.357-2.52 5.768-6.114 8.228-9.5a32.9 32.9 0 0 0 7.378 2.161c2.972.567 6.623.986 9.328 2.663l-.2 2.933c-.236 3.425 3.878 4.191 6.051 2.507l17.046-13.215c2.71-2.102.135-5.777-2.513-6.048z" data-name="Path 18500" transform="translate(-911.212 -228.618)"/>
            <path id="prefix__Path_18501" d="M1018.741 311.068c-1.324-2.07-3.336-3.38-5.254-4.839-2.143-1.63-3.644-3.894-5.722-5.579a5.363 5.363 0 0 0-.657-.459c1.609-1.658 3.251-3.324 4.68-5.126a5.732 5.732 0 0 0-2.168-9.165 5.948 5.948 0 0 0-3.29-7.075 5.445 5.445 0 0 0-1.007-.5 5.419 5.419 0 0 0 .037-4.448 5.488 5.488 0 0 0-4.4-3.128c-.387-2.258-.105-4.783-1.787-6.567-1.243-1.318-3.306-1.907-4.75-.713a5.548 5.548 0 0 0-2.433.669l-.143-.154a9.8 9.8 0 0 0-1.5-1.312 12.556 12.556 0 0 0-7.01-3.285 24.347 24.347 0 0 0-6.692.146c-1.63.217-4.2.152-5.2 1.723a7.065 7.065 0 0 0-.776 4.909 5.629 5.629 0 0 0-.915-.076 5.536 5.536 0 0 0-4.4 2.144 5.751 5.751 0 0 0-2.086 4.227 2.688 2.688 0 0 0 .14.929 5.266 5.266 0 0 0-2.712 1.754 4.915 4.915 0 0 0-1.053 2.214 25.766 25.766 0 0 0 .022 2.826 1.526 1.526 0 0 1-.176.635 5.53 5.53 0 0 0-2.037 1.087 3.528 3.528 0 0 0-1.685 1.2c-1.012 1.432-.566 3.284-.332 4.88a1.279 1.279 0 0 1-.014.7 5.508 5.508 0 0 0-1.236.6 4.218 4.218 0 0 0-.424.15 4.051 4.051 0 0 0-1.781 1.5 5.549 5.549 0 0 0-.5 4.875 12.858 12.858 0 0 0 3.423 4.76q.3.29.619.572l-4.759 3.41a21.714 21.714 0 0 0-4.323 3.805c-1.232 1.5-2.291 3.144-3.388 4.744a14.308 14.308 0 0 0-1.449 2.418 1.479 1.479 0 0 0-.334 1.124 3.841 3.841 0 0 0 .04 1.483.669.669 0 0 0 1.1.292 7.14 7.14 0 0 0 .548-.485 1.479 1.479 0 0 0 .827-.416l11.067-11.068c.128-.092.256-.184.382-.278.412-.308 2.375-1.629 2.426-2.53l.575-.575a8.8 8.8 0 0 0 1.612.656 6.431 6.431 0 0 0 5.688-.907 5.091 5.091 0 0 0 2.213-3.984 6.39 6.39 0 0 0 4.942-6.316 6.7 6.7 0 0 0 6.686-5.685 4.589 4.589 0 0 0 4.384-2.177 5.765 5.765 0 0 0 .711-4.146 2.912 2.912 0 0 0-.347-1.5c-.181-.607-.4-1.2-.631-1.767l.08-.078a8.591 8.591 0 0 0 2.84-1.74c1.219-.924 2.409-1.892 3.583-2.871 1.212-1.011 2.4-2.053 3.535-3.152q.8-.772 1.555-1.582c.677.129 1.12 1.049 1.138 1.667a4.709 4.709 0 0 1-1.362 2.848c-.343.418-.691.831-1.042 1.243l-4.028 4.028a1.482 1.482 0 1 0 2.1 2.1l5.122-5.122c1.045-.769 2.356-1.458 2.46.238a9.742 9.742 0 0 1-1.332 4.37 25.165 25.165 0 0 1-2.47 4.147l-.073.073a1.477 1.477 0 0 0-.283.4l-.043.057a.931.931 0 0 0-.007 1.133 1.481 1.481 0 0 0 2.428.509l2.574-2.574c.327-.176.653-.352.981-.524 1.078-.565 3.454-1.586 3.893.281.35 1.492-.841 2.9-1.714 3.946a13.035 13.035 0 0 0-1.457 2.007l-.57.57a1.482 1.482 0 0 0 2.1 2.1l1.823-1.823a2.612 2.612 0 0 1 .511-.394 2.212 2.212 0 0 1 2.378.554c.769.791.236 1.778-.336 2.512-.8 1.031-1.745 1.975-2.617 2.946-3.241 3.611-6.391 7.339-9.83 10.764-2.924 2.912-6.233 5.626-10.17 7.009a20.233 20.233 0 0 1-4.115.576 1.482 1.482 0 0 0-1 .435l-.615.617a9.678 9.678 0 0 0-1.439.683 25.6 25.6 0 0 0-5.062 4.445l-5.524 5.639c-1.157 1.181-3.338 3.437-1.177 4.891 2.013 1.353 3.83-.773 5.083-2.1l5.488-5.788c.6-.63 1.192-1.31 1.8-1.981a10.161 10.161 0 0 0 2.72 1.328 15.624 15.624 0 0 0 4.419.913 3.954 3.954 0 0 1 2.209.68c.773.523 1.523 1.087 2.257 1.662l.063.051 4.371 4.372a1.477 1.477 0 0 0 1.5.36 2.416 2.416 0 0 0 1.347.117 1.311 1.311 0 0 0 1.066-.92c.19-.732-.452-1.35-.842-1.9-1.892-2.662-3.7-5.354-6.419-7.245a7.751 7.751 0 0 0-4.461-1.755 6.577 6.577 0 0 1-4-1.177c1.956-.862 4.163-.617 6.23-1.168a14.252 14.252 0 0 0 5.536-3.26c1.859-1.614 3.618-3.355 5.381-5.073q1.9-1.849 3.756-3.738a6.044 6.044 0 0 0 1.462 1.473c1.194.918 2.4 1.818 3.6 2.73l4.11 3.125c.32.243.64.49.97.72l.6.6a1.469 1.469 0 0 0 1.407.383 1.821 1.821 0 0 1 .8.512c.7.925 2.239.09 1.717-.836a.89.89 0 0 0 .244-1.185zm-49.391-36.085l-1.448-1.448a2.62 2.62 0 0 1 1.112-4.366 6.654 6.654 0 0 1 2.207.689 10.066 10.066 0 0 1 .954.539l8.328 8.328a2.62 2.62 0 0 1 .179 3.507 4.88 4.88 0 0 1-1.546 0 9.044 9.044 0 0 1-4.206-2.462 48.3 48.3 0 0 0-4.141-3.347zm3.517 13.565a11.479 11.479 0 0 1-2.861-1.306l-6.457-6.457-.018-.02a3.393 3.393 0 0 1-.062-.381c-.148-1.443.6-3.54 2.316-3.571a.371.371 0 0 0 .343-.4 2.6 2.6 0 0 1 1.126.663l3.394 3.394 3.756 3.756a5.006 5.006 0 0 1 .372 1.5 7.173 7.173 0 0 1-.021 2.167 1.1 1.1 0 0 1-.271.532 2.678 2.678 0 0 1-.241.17 2.052 2.052 0 0 1-1.376-.048zm-11.817-4.985a2.619 2.619 0 0 1 .848.143 5.428 5.428 0 0 1 1.012.632l3.437 3.437a8.509 8.509 0 0 1 1.858 3.6 3.953 3.953 0 0 1-.035 2.179c-.337.673-1.093-.1-1.5-.426-.909-.725-1.677-1.61-2.586-2.334a14.219 14.219 0 0 0-2.74-1.6 4.109 4.109 0 0 1-2.5-2.339 3.15 3.15 0 0 1 .469-2.624 2.6 2.6 0 0 1 1.737-.668zm-1.958 8.56l4 4a2.618 2.618 0 0 1-1.758 4.469c-1.348-.638-2.395-2.247-3.248-3.284a16.231 16.231 0 0 0-2.083-2.18 6.162 6.162 0 0 1-1.333-1.685 2.6 2.6 0 0 1 .485-1.062.518.518 0 0 0 .422-.44 2.621 2.621 0 0 1 3.511.177zm30.585-26.114l.061.065-8.847 8.846-3.723-3.723a14.126 14.126 0 0 0 2.339.067c.9-.044 1.8-.158 2.693-.283h.139a1.494 1.494 0 0 0 .494-.089 2.228 2.228 0 0 0 1.827-.961c.982-1.95-2.281-2.652-3.523-2.778-1.849-.186-3.749.128-5.565-.227a3.739 3.739 0 0 1-1.1-2.655v-.461h10.155a6.916 6.916 0 0 1 5.05 2.199z" class="prefix__cls-9" data-name="Path 18501" transform="translate(-910.312 -226.69)"/>
        </g>
    </g>
</svg>
