<svg xmlns="http://www.w3.org/2000/svg" id="prefix__Group_5" width="70" height="70" data-name="Group 5" viewBox="0 0 70 70">
    <defs>
        <style>
            .prefix__cls-2{fill:#fff}
        </style>
    </defs>
    <g id="prefix__AEG-ICONOGRAPHY_profile">
        <path id="prefix__Path" fill="#dc7fac" d="M30.747 60.375a30.747 30.747 0 0 0 30.748-30.747C61.495 12.653 46.629 0 29.654 0S0 12.653 0 29.628a30.747 30.747 0 0 0 30.747 30.747z" transform="translate(4.253 5.25)"/>
        <path id="prefix__Shape" d="M16.651 12.967h-.288A3.7 3.7 0 0 1 12.5 9.126a4.929 4.929 0 0 0-.167 1.943.094.094 0 0 0 .026.069s.005.006 0 .007h-.031c-.005 0-.017-.013-.032-.035a4.97 4.97 0 0 1-.51-3.665c.221-.554.886-2.452.163-3.625a1.864 1.864 0 0 0-1.527-.838.707.707 0 0 1 .044.591.918.918 0 0 1-.729.429 5.239 5.239 0 0 1-.669 6.613 5.278 5.278 0 0 1-3.733 1.567h-.024a5.311 5.311 0 0 1-.1-10.622h.028a5.463 5.463 0 0 1 2.973.876 1.533 1.533 0 0 1 .552-.876.619.619 0 0 1 .346-.1 1.042 1.042 0 0 1 .635.288A4.644 4.644 0 0 1 13.361 0a6.506 6.506 0 0 1 3.6 1.243 6.849 6.849 0 0 0-2.147-.385h-.054a3.966 3.966 0 0 0-.9.1h.008a6.025 6.025 0 0 1 3.206 2.552 3.9 3.9 0 0 1 .1 3.126c-.2.312-.382.6-.547.856-1.357 2.094-1.766 2.726.021 5.469zM12.617 1.391a3.208 3.208 0 0 0-1.094.508 3.018 3.018 0 0 1 1.584 1.26 4.177 4.177 0 0 1 .489 2.69 8.168 8.168 0 0 1-.541 2.113 1.281 1.281 0 0 1 .769 1.111 3.658 3.658 0 0 0 .341 1.418c-.127-1.256.424-2.226 1.348-3.675l.464-.735a2.552 2.552 0 0 0-.052-1.981 4.584 4.584 0 0 0-2.432-1.9 1.338 1.338 0 0 1-.876-.814zM5.051 4.23a2.677 2.677 0 0 0 0 5.355h.209a2.73 2.73 0 0 0 2.728-2.672A2.537 2.537 0 0 0 7.56 5.5a3.028 3.028 0 0 1-.26-.53 2.588 2.588 0 0 1-.536-.27 2.866 2.866 0 0 0-1.557-.464h-.155z" class="prefix__cls-2" transform="translate(29.111 17.859)"/>
        <path id="prefix__Shape-2" d="M10.045 21.822a13.3 13.3 0 0 1-3.055-2.377 22.717 22.717 0 0 1-5.24-8.683A44.615 44.615 0 0 1 0 .647a17.725 17.725 0 0 0 6.169 1.33c.142.01.286.015.427.015A6.19 6.19 0 0 0 11.138 0c.035.033 3.556 3.325 6.782 3.325h.058a4 4 0 0 0 2.069-.577.051.051 0 0 1 0 .019 24.606 24.606 0 0 1-.059 3.762 15.248 15.248 0 0 1-2.071 6.806 49.659 49.659 0 0 1-4.3 5.471 12.136 12.136 0 0 1-3.576 3.016zm-7-17.483a30.221 30.221 0 0 0 1.2 5.609 18.752 18.752 0 0 0 5.8 8.75 41.094 41.094 0 0 0 5.626-6.842h.029a12.929 12.929 0 0 0 1.688-5.863 12.913 12.913 0 0 1-6.239-2.555 9.715 9.715 0 0 1-4.725 1.229h-.256a16.231 16.231 0 0 1-3.123-.327z" class="prefix__cls-2" data-name="Shape" transform="translate(23.441 31.176)"/>
        <path id="prefix__Shape-3" d="M28.675 58.606a29.22 29.22 0 0 1-11.866-2.5 29.7 29.7 0 0 1-3.386-1.75 27.15 27.15 0 0 1-10.806-12.8A27.324 27.324 0 0 1 .649 23.965 27.354 27.354 0 0 1 4.6 14.34c.138-.184.28-.4.4-.595 2.05-3.1 6.851-10.362 19.32-13.527h.184A19.55 19.55 0 0 1 27.439 0C33.167 0 38.673 2.375 43.3 4.7a25.02 25.02 0 0 1 12.25 13.063 22.433 22.433 0 0 1 2.11 8.54l.032.551a30.667 30.667 0 0 1-.33 8.9A30.042 30.042 0 0 1 47.251 52a29.4 29.4 0 0 1-18.576 6.606zm-.388-56.078A21.772 21.772 0 0 0 25 2.773l-.052.008C14.237 5.51 11.59 8.765 9.031 11.913c-.174.214-.348.428-.525.642a28.341 28.341 0 0 0-2.625 4.375 28.189 28.189 0 0 0-2.695 7.621 24.662 24.662 0 0 0 1.286 15.908A25.76 25.76 0 0 0 14.78 52.088c1 .6 4.5 2.21 5.5 2.625a22.2 22.2 0 0 0 8.925 1.977c5.438 0 10.8-2.212 16.38-6.763a27.371 27.371 0 0 0 9.248-14.875 30.7 30.7 0 0 0 .726-8.838 24.948 24.948 0 0 0-1.75-8.522C51.781 12.813 47.974 8.948 42.5 6.2a32.333 32.333 0 0 0-14.212-3.671z" class="prefix__cls-2" data-name="Shape" transform="translate(4.549 4.411)"/>
        <path id="prefix__Rectangle" fill="none" d="M0 0H70V70H0z"/>
    </g>
</svg>
