<svg xmlns="http://www.w3.org/2000/svg" width="224" height="385.499" viewBox="0 0 224 385.499">
    <defs>
        <style>
            .prefix__cls-3,.prefix__cls-6{fill:#fff}.prefix__cls-3{stroke-width:2px;stroke:#7e82a8}.prefix__cls-11{fill:#030504}.prefix__cls-13{stroke:none}.prefix__cls-14{fill:none}
        </style>
    </defs>
    <g id="prefix__Group_8603" data-name="Group 8603" transform="translate(-1346 -1137.501)">
        <g id="prefix__Group_8598" data-name="Group 8598">
            <g id="prefix__Rectangle_4682" fill="#fff" stroke="#e3724c" stroke-width="2px" data-name="Rectangle 4682">
                <path d="M0 0H220V326H0z" class="prefix__cls-13" transform="translate(1346 1192)"/>
                <path d="M1 1H219V325H1z" class="prefix__cls-14" transform="translate(1346 1192)"/>
            </g>
            <path id="prefix__Rectangle_4683" fill="#e3724c" d="M0 0H217V326H0z" data-name="Rectangle 4683" transform="translate(1353 1185)"/>
            <g id="prefix__Rectangle_4684" class="prefix__cls-3" data-name="Rectangle 4684">
                <path d="M0 0H220V326H0z" class="prefix__cls-13" transform="translate(1346 1192)"/>
                <path d="M1 1H219V325H1z" class="prefix__cls-14" transform="translate(1346 1192)"/>
            </g>
            <path id="prefix__Rectangle_4685" fill="#7e82a8" d="M0 0H217V326H0z" data-name="Rectangle 4685" transform="translate(1353 1185)"/>
        </g>
        <text id="prefix__Enterprising_Inspired_Girl_Challenge" fill="#fff" data-name="Enterprising ‘Inspired’ Girl Challenge" font-family="Arial-Black, Arial Black" font-size="24px" font-weight="800" transform="translate(1364 1389)">
            <tspan x="13.51" y="26">Enterprising </tspan><tspan x="6.086" y="57">‘Inspired’ Girl </tspan><tspan x="28.65" y="88">Challenge</tspan>
        </text>
        <path id="prefix__Path_18094" d="M1749.024 519.291c1.962 2.125 4.093 4.6 6.4 6.891 2.576 2.557 4.735 5.5 7.792 7.633 1.918 1.337 2.187 3.321.738 4.866a13.331 13.331 0 0 0-.948 1.333c.381 1.04.869 2.144 1.191 3.3 1.333 4.766.367 8.5-2.794 10.6a12.238 12.238 0 0 1-9.92 1.883 57.277 57.277 0 0 1-6.326-2.338c-.874.463-1.835 2.035-3.65 1.576a7.2 7.2 0 0 1-3.558-2.558c-2.8-3.151-5.67-6.249-8.618-9.264a20.409 20.409 0 0 0-5.011-4.251c-1.445-.723-3.474-.589-5.194-.4a32.569 32.569 0 0 1-15.444-1.692c-7.913-3.039-14.3-8.011-17.757-16.125-1.844-4.323-3.629-8.67-4.175-13.36-.735-6.312-.122-12.366 3.031-18.162a42.266 42.266 0 0 1 8.929-11.751 20.426 20.426 0 0 1 6.919-4.131c2.286-.806 4.429-2.019 6.719-2.81 3.169-1.1 6.389-2.072 9.639-2.9a20.63 20.63 0 0 1 8.623-.526c4.051.682 7.572 2.587 11.173 4.344 3.463 1.69 5.721 4.753 8.314 7.421 1.434 1.476 2.776 3.045 4.113 4.612a5.608 5.608 0 0 1 1.2 1.876c1.179 3.942 2.215 7.926 3.405 11.865 1.168 3.867.529 7.661-.6 11.328-1.061 3.474-2.621 6.788-4.191 10.74zm-7.262-4.321c1.157-1.626 2.27-3.014 3.189-4.519a13.176 13.176 0 0 0 2.194-9.041c-.9-6.343-4-11.7-7.435-16.818a18.748 18.748 0 0 0-9.089-7.284c-8.2-2.952-16.2-2.028-23.9 1.92-1.242.637-2.521 1.208-3.724 1.91-2.409 1.4-4.9 2.69-6.458 5.2-1.375 2.221-2.86 4.379-4.375 6.509-2.4 3.377-3.369 7.257-4.143 11.227a13.633 13.633 0 0 0 .181 6.684c.658 2.152 1.334 4.307 2.184 6.387 3.1 7.583 8.382 12.729 16.5 14.768a42.109 42.109 0 0 0 9.174 1.153 5.229 5.229 0 0 0 4.177-1.783 40.714 40.714 0 0 1 5.029-4.461 6.9 6.9 0 0 1 3.807-1.4 3.18 3.18 0 0 0 2.761-1.471c1.946-2.281 3.959-4.505 5.918-6.775 1.124-1.3 2.266-2.528 4.01-2.206zm.381 34.426c5.15-4.424 10.856-7.378 15.3-12.2-.895-1.391-1.629-2.53-2.4-3.731-6.086 3.54-9.812 9.232-15.223 13.541zm-1.378-28.614l-11.7 13.64c.81 1.053 1.409 1.831 2.1 2.732 4.685-4.864 9.754-9.068 13.505-14.665zm9.136 7.052c-5.731 2.609-9.816 6.532-13.464 10.97a7.264 7.264 0 0 0-1.268 2.139 1.649 1.649 0 0 0 .388 1.426 1.6 1.6 0 0 0 1.443.315 12.694 12.694 0 0 0 2.748-1.894c3.781-3.479 7.514-7.01 11.251-10.537.177-.167.226-.471.456-.978zm-.747 21.9c2.841 2.452 6.747 2.556 9.133.506 1.886-1.62 1.9-4.027-.21-7.014z" class="prefix__cls-6" data-name="Path 18094" transform="translate(-265.474 777.311)"/>
        <path id="prefix__Path_18095" d="M1723.167 494.925c-.541 3.328-1.27 5.939-1.308 8.558-.04 2.742-.785 4.718-3.755 5.783-3.13-.944-6.253-2.715-10.014-2.627a17.98 17.98 0 0 0 1.216 8.551c1.018 3 .6 4.031-1.839 4.545a3.756 3.756 0 0 1-4.638-3.266c-.578-3.6-1.037-7.229-1.673-10.824-.759-4.291.964-5.844 5.293-4.761 2.828.707 5.7 1.238 8.757 1.891 1.714-5.228 1.931-10.267 2.063-15.1a5.569 5.569 0 0 1 6.447.146 28.766 28.766 0 0 1 3.079 2.088 34.439 34.439 0 0 0 8 5.591c2.226 1.081 2.656 2.14 1.99 3.605a3.346 3.346 0 0 1-4.124 1.459 51.287 51.287 0 0 1-6.609-3.379 27.07 27.07 0 0 1-2.885-2.26z" class="prefix__cls-6" data-name="Path 18095" transform="translate(-260.982 777.293)"/>
        <path id="prefix__Path_18297" d="M.109 30.943c.918 12.292 11.324 18.474 17.1 19.124s16.282 7.922 24.571 1.7 14.642-14.234 12.946-29.908S33.281-1.086 18.622.131-.809 18.651.109 30.943z" class="prefix__cls-3" data-name="Path 18297" transform="rotate(59 -272.996 1865.924)"/>
        <text id="prefix___5" fill="#7e82a8" data-name="5" font-family="Arial-Black, Arial Black" font-size="32px" font-weight="800" transform="translate(1432 1152)">
            <tspan x="15.828" y="35">5</tspan>
        </text>
        <g id="prefix__Group_8545" data-name="Group 8545" transform="translate(1389 1223.429)">
            <path id="prefix__Path_18502" d="M300.2-80.05c.037.206 4.673 103.709-66.307 135.713v.022l-.024-.011-.024.011v-.023C162.283 24.949 165-78.621 165.032-78.827c8.884 5.11 21.83 7.318 35.442 5.179 14.55-2.287 26.246-8.971 31.973-17.153l.039-.029v-.035l.024.017.024-.018v.035l.039.028c5.878 8.078 17.695 14.549 32.286 16.572 13.649 1.892 26.552-.549 35.341-5.819z" class="prefix__cls-6" data-name="Path 18502" transform="translate(-162.503 90.865)"/>
            <path id="prefix__Path_18503" fill="#696a6a" d="M227.541-88.551s-22.5 78.731 1.346 145.822c0 0-68.162-17.454-68.094-133.741 0 0 39.88 18.67 66.748-12.081z" data-name="Path 18503" transform="translate(-160.793 89.927)" style="isolation:isolate;mix-blend-mode:multiply" opacity="0.19"/>
            <g id="prefix__Group_8543" data-name="Group 8543" transform="translate(2.51)" style="mix-blend-mode:overlay;isolation:isolate" opacity="0.5">
                <path id="prefix__Path_18504" fill="#c4c4c3" d="M300.2-80.05c.037.206 4.673 103.709-66.307 135.713v.022l-.024-.011-.024.011v-.023C162.283 24.949 165-78.621 165.032-78.827c8.884 5.11 21.83 7.318 35.442 5.179 14.55-2.287 26.246-8.971 31.973-17.153l.039-.029v-.035l.024.017.024-.018v.035l.039.028c5.878 8.078 17.695 14.549 32.286 16.572 13.649 1.892 26.552-.549 35.341-5.819z" data-name="Path 18504" transform="translate(-165.012 90.865)"/>
            </g>
            <path id="prefix__Path_18505" d="M298.455-54.734l-.015-1.966-.122.124c.01-.478.024-.991.039-1.532.033-1.134.067-2.362.065-3.609h.03c.058-1.348.042-2.863-.05-4.768l-.172-5.324.108-.634-.515-.286-.6-.184-1.366 1.07c-.478.425-.873.769-1.248 1.065-.324.24-.472.343-.686.488l-.01-.013-.246.184a4.752 4.752 0 0 1-.8.456c-.089.04-.179.083-.271.131-.416.2-.847.355-1.168.475a1.76 1.76 0 0 0-.967.6 1.039 1.039 0 0 0-.412.4l-.093.041a6.153 6.153 0 0 0-1.326.333l-.227.076a7.616 7.616 0 0 1-1.548.259h-.1l-.1.023a16.046 16.046 0 0 1-2.461.353c-.3.032-.595.053-.874.071l.12-.019-4.594-.3-.246-.024h-.174l-1.968-.128c-.23-.064-.407-.115-.545-.158l.036-.237a28.2 28.2 0 0 1-2.787-.544l-2.254-.65c-.268-.087-.584-.181-.911-.279a12.8 12.8 0 0 1-2-.7c-.41-.206-1.074-.5-1.911-.87-1.224-.541-2.829-1.25-4.547-2.093a69.422 69.422 0 0 1-8.323-4.741l-2.58-1.736.024-.039c-1.261-.815-2.157-1.494-2.948-2.093-.481-.365-.944-.716-1.444-1.064l-.314-.34-.143-.123c-.084-.056-.16-.108-.228-.156l.06-.08c-1.889-1.5-2.632-1.931-3.179-2.018a17.765 17.765 0 0 0-1.958-1.72l.08-.087-2.167-2.058-.556.4a1.543 1.543 0 0 0-.253.244L236.182-87c-.453.505-.922.959-1.282 1.309a6.385 6.385 0 0 0-.736.783c-.361.294-1.07.876-1.164.983a35.59 35.59 0 0 1-3.553 2.466l-.359.228.064.1a11.292 11.292 0 0 1-1.534.846c-.257.127-.535.266-.838.421l-3.122 1.341a17.231 17.231 0 0 1-2.638.9l-3.129.908.239.05-.423.085c-.8.162-1.629.33-2.363.5l.013.071c-.47.058-1 .091-1.476.121l-.732.011c-.343 0-.676.009-.981.018l-.015-.123c-1.686.109-2.083.156-2.358.447-.072.012-.161.025-.272.04a2.812 2.812 0 0 0-1.484-.148c-.206 0-.594.027-1.1.061a33.328 33.328 0 0 1-6.216.016l-.035.186-.242-.005a31.151 31.151 0 0 1-3.249-.4c-.949-.146-1.828-.27-2.607-.339l-.124-.058-.255-.073a4.564 4.564 0 0 0-.785-.049c-.745-.08-1.905-.265-2.975-.434-.91-.145-1.751-.277-2.22-.331a31.056 31.056 0 0 0-4.5-1.18c-1.091-.243-2.491-.556-3.245-.777l.048-.14-4.899-1.434c-2.006-.634-3.077-.917-3.89-1.1l-3.181-1.078-2.91-.907-.228-.065a1.156 1.156 0 0 0-1.278.148 1.014 1.014 0 0 0-.189 1.1l.013.09c.1.724.236 1.651.354 2.323l-.1.373.036.185c.055.286.131 1.187.221 2.232.16 1.878.4 4.659.775 7.112l-.046.008c.266 1.716.468 3.7.663 5.621.353 3.477.6 5.7 1.048 6.766l.516 2.823.3-.046c0 .026.007.052.009.078-.256.356-.153 1.118.13 3.218l.095.712-.106-.043.533 3.55c1.031 6.838 2 13.3 3.349 19.592l.566 2.652-.057.029.871 3.785.032-.845c.152.449.311.962.655 2.147.111.4.149.611.177.556a1.073 1.073 0 0 0 .037.583 6.472 6.472 0 0 0 .249.839 17.357 17.357 0 0 0 .777 2.174c.12.291.239.583.351.876l.2-.061.05.116a3.915 3.915 0 0 0 .432.839c.661 1.786 2.094 4.969 3.286 7.612.725 1.611 1.352 3 1.541 3.507.73 1.4 1.356 2.859 2.08 4.543l.451 1.048.169-.066c.055.106.137.273.253.531-.053.465.272 1.222.964 2.835.38.886.809 1.883 1.009 2.505.013.048.028.1.047.15l.231-.074-.153.1c.114.169.43.8.774 1.465a19.743 19.743 0 0 0 1.179 2.138 2.856 2.856 0 0 0 .282.841l.768 1.352a76.719 76.719 0 0 0 6.81 10.567l.146.182.221.077.419.537c.328.51.658 1.021 1.067 1.589a5.857 5.857 0 0 0 .656.628 6.04 6.04 0 0 1 1.151 1.313l.1-.064.046.048c4.686 5.646 10.4 10.681 15.932 15.55 2 1.761 3.993 3.517 5.935 5.3l.074-.076c.14.114.3.25.469.388.19.168.509.436 1.068.882l.076-.092c.662.607 1.324 1.217 2.031 1.8l.193.12a7.275 7.275 0 0 1 .727.447c.424.275.939.607 1.466.9.051.029.123.062.178.092l-.117.219a12 12 0 0 0 1.544.769l.143-.311a3.285 3.285 0 0 0 .914.2c.03 0 .057 0 .085-.005l.181.141a5.026 5.026 0 0 0 .423.291l.2.125h.241a8.283 8.283 0 0 0 1-.094l.058.318a3.276 3.276 0 0 0 1.028-.2l.036-.017a.754.754 0 0 0 .432-.648v-.142c2.524-.557 4.472-2.357 5.917-3.71.825-.773 1.611-1.523 2.417-2.285l.387.289 1.1-1.206-.262-.237c.5-.479 1.025-.968 1.523-1.443l.39.323c.643-.629 1.353-1.344 2.046-2.044 1.023-1.032 2.014-2.032 2.7-2.663l-.12-.152c.416-.4.622-.661.617-.943.249-.246.49-.49.737-.735l.948-.7.576.4.585-.538a2.244 2.244 0 0 0 .4-.465l2.246-2.227c.134-.107.368-.321.578-.52.12-.112.224-.213.274-.255l-.03-.04.027-.027.058.05c.244-.269.447-.5.6-.7l1.841-1.826-1.2.753 2.656-3 .022.017.34-.424.015-.018.142-.161-.033.022c.153-.191.3-.375.415-.529l.262.234.31-.311c.225-.225.474-.48.637-.629l.306-.041.256-.852.228-.279-.036-.03.6-.74-.139.305.909-1.165.351-.261a6.7 6.7 0 0 0 1-.946l-.087-.092.181-.2.269.182.923-1.317-.375-.261.4-.514h.442l.246-.332-.233-.251.051-.065.268.2-.113-.1.132.1-.014-.02.034.03c.033-.031.037-.058.065-.088l.083-.09c.131-.171.247-.337.368-.515l-.3.656.636-.851a2.316 2.316 0 0 0 .623-.448l-.067-.094.144.1c.7-.879 1.239-1.667 1.715-2.387l-.073-.049 1.414-2.032.031-.04a4.947 4.947 0 0 0 .94-1.161l.182-.411c.252-.352.509-.7.754-1.057l.06-.076-.822 3.062 4.037-7.569-.163-.104.006-.009-.152-.11c.083-.1.183-.225.306-.388l.142 1 1.642-2.93-.481-.3a1.216 1.216 0 0 0 .517-.5l.2.152a3.972 3.972 0 0 0 .562-.719 6.71 6.71 0 0 1 .657-.87l-.141-.112.055-.095.1.039c.076-.179.57-1 .9-1.543.171-.283.312-.52.441-.739l.118-.069-.043-.057.14.078c.023-.039.051-.087.081-.143L284.008 1l-.12-.066c.225-.344.438-.689.648-1.044.316-.532.661-1.114 1.142-1.805l1.394-2.008-.557.187.09-.157a1.6 1.6 0 0 0 .314-.521l.457-.933-.262-.126.019-.04c.478-.061.8-.612 1.269-2.057l.242-.779.122.053.914-1.977a34.433 34.433 0 0 0 1.663-3.863c.224-.517.446-1.2.6-1.677h.016l1.122-3.276c.505-1.451.93-2.971 1.346-4.527l.395-1.265c.3-.961.522-1.729.7-2.411a20.373 20.373 0 0 0 .657-2.934l-.048-.01.633-3.5.4-1.773a33.638 33.638 0 0 0 .493-3.706 56.983 56.983 0 0 0 .819-8.874l.064-1.269-.142-.105c.069-1.581.073-3.161.057-5.271zm-55.16-24.541c.438.344.877.688 1.28.98a30.176 30.176 0 0 0 3.334 2.442c.446.323 1.048.676 1.477.922l-.008.015.548.333c.68.413 1.359.825 2.049 1.22l.3.209c1.328.811 2.743 1.561 4.2 2.31l.965.559c.851.494 1.539.87 2.162 1.171a16.046 16.046 0 0 0 2.684 1.253l.012-.029 3.991 1.761a33.069 33.069 0 0 0 4.354 1.529 23.57 23.57 0 0 0 4.338 1.266 52.38 52.38 0 0 0 5.235.733l.446.046.124-.154a25.6 25.6 0 0 0 5.4-.2l1.9-.283-.179-.136a23.255 23.255 0 0 0 4.44-1.2l.009.025a10.1 10.1 0 0 0 1.074-.429l.635-.288.046 1.272c.024.829.021 1.631-.024 2.495a12.913 12.913 0 0 1 .014 1.663h-.015v.246l-.066 1.063-.08.756c-.136 1.245-.189 1.756.066 2.05a1 1 0 0 0 .2.506c0 .064.008.127.013.186a7.291 7.291 0 0 0-.1 1.567 7.142 7.142 0 0 1-.1 1.606l-.043.176.027.168c.032.2.021 1.181.012 1.893a27.426 27.426 0 0 0 .041 2.782c-.035.357-.064.69-.089 1L293.4-47.7l.306 6.331c-.036.193-.067.365-.1.51l-.253-.005c-.084 1.81-.139 2.368-.2 3.035l-.058.613-.207 1.369c-.049.324-.094.716-.139 1.115a11.792 11.792 0 0 1-.288 1.817c-.138.452-.309 1.2-.524 2.141-.281 1.229-.641 2.8-1.109 4.5a74.1 74.1 0 0 1-2.928 8.754l-1.13 2.779-.045-.015c-.481 1.247-.914 2.177-1.3 3-.29.623-.553 1.19-.8 1.8l-.25.361-.1.2c-.018.054-.046.128-.08.211l-.093-.04c-1.03 2.113-1.25 2.92-1.2 3.441a14.737 14.737 0 0 0-1.163 2.232l-.1-.055-1.732 3a19.765 19.765 0 0 0-1.39 2.525c-.316.443-.776 1.256-.82 1.343-.671 1.068-1.014 1.58-1.4 2.151-.3.454-.633.945-1.165 1.772l.1.07a10.54 10.54 0 0 1-.747 1.084c-.225.3-.477.641-.754 1.04l-.187.238c-1.211 1.541-1.507 1.986-1.745 2.342a24.489 24.489 0 0 1-1.788 2.289l-1.989 2.406.422-.165c-.656.745-1.375 1.57-1.955 2.343l.058.048c-.422.451-.965.952-1.464 1.411-.284.262-.562.518-.808.755l-.1-.08c-1.15 1.218-1.393 1.509-1.382 1.913-.036.049-.083.111-.143.187-.375.073-.681.417-1.124.917-.242.231-.627.7-1.284 1.512a38.655 38.655 0 0 1-3.476 3.921l.125.145-.142.168c-.479.534-1.145 1.171-1.83 1.829-.8.773-1.616 1.559-2.235 2.266l-.115.063-.217.173a4.4 4.4 0 0 0-.471.592c-.347.385-.837.908-1.355 1.459-.868.924-1.694 1.8-2.093 2.293a26.63 26.63 0 0 0-3.6 3.376c-.644.663-1.464 1.506-1.975 1.979l-.1-.114-3.629 3.419c-1.545 1.422-2.286 2.205-2.827 2.777l-.528.41a6.248 6.248 0 0 1-2.994 1.464 5.207 5.207 0 0 1-2.712-.341l-.235-.272-.2-.074a14 14 0 0 1-2.68-1.933l-.283-.244c-1.231-1.064-2.613-2.259-3.96-3.314l.028-.037c-1.578-1.217-3.34-2.828-4.895-4.249a28.766 28.766 0 0 0-4.342-3.6l-2.131-1.8-.2.222-.036-.035c-.03-.407-.541-.912-1.872-2.233-.211-.209-.466-.462-.7-.7l.093-.031-.917-.918a88.33 88.33 0 0 1-13.111-16.391l-1.3-2.138.072-.061-1.066-1.9-.045.022-.228-.345a15.512 15.512 0 0 1-1.227-2.154c-.169-.365-.24-.524-.249-.457a1.007 1.007 0 0 0-.118-.57 6.046 6.046 0 0 0-.367-.786l-1.263-2.722-.193.072-.076-.157a3.7 3.7 0 0 0-.4-.7c-.739-1.93-2.39-5.711-3.538-8.341-.514-1.177-.911-2.086-1.079-2.488-.857-1.63-1.586-3.264-2.523-5.395l-.167.067c-.054-.1-.133-.261-.246-.507a6.466 6.466 0 0 0-.736-2.305 19.621 19.621 0 0 1-1.044-2.882l-.462.092.349-.171c-.086-.173-.391-1.081-.593-1.681a18.765 18.765 0 0 0-.688-1.88 2.637 2.637 0 0 0-.083-.889 78.174 78.174 0 0 1-2.066-9.209c-.232-1.252-.468-2.527-.723-3.805l-.046-.231-.164-.171-.248-2.418a5.036 5.036 0 0 0-.25-.835 4.593 4.593 0 0 1-.29-1.616h-.116l-.015-.07c-.366-2.585-.766-5.2-1.168-7.829-1.045-6.825-2.125-13.883-2.641-20.8l-.107.006-.071-.567c-.021-.246-.071-.648-.172-1.336l-.111.015-.183-2.54-.053-.235a20.35 20.35 0 0 1-.343-2.319c0-.038-.008-.068-.012-.1l.247-.031-.1-1.442-.333.013a3.23 3.23 0 0 0-.2-.819l.109-.266c3.023.966 5.98 1.887 8.9 2.733l-.058.473 1.56.322.079-.355c.657.185 1.315.369 1.969.545l-.084.507c1.191.315 2.594.623 3.863.9.98.216 1.879.413 2.528.582l.065-.183a3.7 3.7 0 0 0 .729.12.708.708 0 0 0 .322-.071l2.133.638-.007.325-.221.021.22.036v.1l-1.846.231 4.934.407 2.4.407.09.018.057.01v.027c.1.009.168.009.259.017l2.91.493-1.481-.631h.1v-.008l4.322.2v.008h.129l.456.021-.088-.03c.358-.009.661-.02.91-.039v.355l.454.022c.3.014.626.026.839.045l.24.215.786-.385.371-.017v-.05l1.736-.152.211-.005.509.1a3.372 3.372 0 0 0 .716.056c.188 0 .423-.006.725-.022v-.118l.275-.023.064.312.534-.1c.354-.063.707-.127 1.058-.21l-.085-.359.813.008.1.094.493-.089h.074v.021a.932.932 0 0 0 .1-.02h.059l.072-.012c.3-.054.551-.113.791-.177a1.728 1.728 0 0 0 .97.185l.01-.106.037.164a21 21 0 0 0 2.831-.742l.3-.087a9.379 9.379 0 0 0 1.114-.366l-.03-.075.935-.308.06-.014c1.236-.217 1.416-.35 1.534-.438l.212-.158c.159-.058.322-.1.482-.164l.836-.3.111-.039.2-.068-2.623 2.619 6.187-3.9.4-.243c.325-.2.65-.395.959-.62l-.192-.278-.015-.03c.123-.051.271-.114.469-.2l-.13-.305.063-.035.148.173-.4 1.226 2.767-1.967-.29-.459h.01a1.3 1.3 0 0 0 .651-.227l.11.212a3.485 3.485 0 0 0 .845-.44 6.2 6.2 0 0 1 .913-.517l-.081-.162.086-.065.071.074c.08-.076.266-.212.5-.387.3-.228.675-.509.993-.771.227-.169.429-.323.616-.471l.127-.03-.018-.058.118-.095.043.053.109-.085.045.042 1-.917-.1-.108c.243-.192.487-.371.73-.59l.025-.023.9 2.634.209-2.325a1.686 1.686 0 0 0 .4.369l.769.652.193-.218.025.02c-.063.5.452.934 1.671 1.679l.693.41-.08.1zm-41.247 7.459l.013.383-1.329-.453c.438.027.876.052 1.316.071zM254.394 38.27l.134-.123a.506.506 0 0 1-.067.182zm5.249-6.508c.283-.3.561-.607.842-.911l.254.2zm12.044-12.875l.061-.081v.122zm6.483-10.015l.037-.06.173.066.025.177z" class="prefix__cls-11" data-name="Path 18505" transform="translate(-162.046 90.177)"/>
            <path id="prefix__Path_18506" fill="#656f98" d="M286.729 25.921a6.189 6.189 0 0 0-3.843-4.13c1.7-3.3.505-6.458-2.3-8.573-2.843-2.141-5.873-4.065-8.808-6.077a4.626 4.626 0 0 0-.451-.272c.336-.419.67-.838.994-1.263 3.536-4.644 6.215-10.585 4.551-16.519a16.507 16.507 0 0 0-11.562-11.179 16.556 16.556 0 0 0-7.692-.184 6.186 6.186 0 0 0-5.988-.566 7.2 7.2 0 0 0-2.808 2.244A15.333 15.333 0 0 0 244-18.9c-4.9 2.7-8.263 7.573-10.321 12.655C229.564 3.924 232.9 17 244.86 19.482A21.311 21.311 0 0 0 259.934 17a67.1 67.1 0 0 0 14.559 14.657 5.065 5.065 0 0 0 3.279.932 6.183 6.183 0 0 0 .677.236c.22.09.438.189.662.271a5.314 5.314 0 0 0 1.813.258 5.693 5.693 0 0 0 3.125-.844l1.181-.912a4.375 4.375 0 0 0 1.206-1.877 2.9 2.9 0 0 0 .4-1.472 4.42 4.42 0 0 0-.107-2.328z" data-name="Path 18506" transform="translate(-189.643 63.52)"/>
            <g id="prefix__Group_8544" data-name="Group 8544" transform="translate(39.345 35.602)">
                <path id="prefix__Path_18507" d="M274.631 6c1.385 1.5 2.889 3.247 4.52 4.866 1.819 1.8 3.344 3.883 5.5 5.389a2.14 2.14 0 0 1 .521 3.436 9.35 9.35 0 0 0-.669.941c.268.734.613 1.514.84 2.326.941 3.366.259 6-1.972 7.488a8.642 8.642 0 0 1-7 1.329 40.425 40.425 0 0 1-4.466-1.65c-.617.327-1.3 1.436-2.577 1.112a5.08 5.08 0 0 1-2.513-1.807q-2.968-3.337-6.085-6.54a14.4 14.4 0 0 0-3.538-3 6.951 6.951 0 0 0-3.668-.279 22.994 22.994 0 0 1-10.9-1.2c-5.587-2.146-10.093-5.656-12.537-11.385a34.363 34.363 0 0 1-2.948-9.432 20.874 20.874 0 0 1 2.141-12.823 29.831 29.831 0 0 1 6.3-8.3 14.415 14.415 0 0 1 4.885-2.917c1.614-.569 3.126-1.425 4.743-1.984 2.238-.773 4.511-1.463 6.806-2.046a14.57 14.57 0 0 1 6.088-.371c2.861.481 5.346 1.827 7.889 3.068 2.445 1.193 4.039 3.355 5.87 5.239 1.013 1.042 1.96 2.15 2.9 3.256a3.952 3.952 0 0 1 .848 1.325c.832 2.783 1.564 5.6 2.4 8.377a13.459 13.459 0 0 1-.423 8c-.745 2.45-1.847 4.79-2.955 7.582zM269.5 2.947c.817-1.148 1.6-2.128 2.252-3.191a9.3 9.3 0 0 0 1.548-6.383c-.636-4.479-2.822-8.262-5.249-11.874a13.239 13.239 0 0 0-6.417-5.143 20.474 20.474 0 0 0-16.876 1.356c-.876.449-1.78.853-2.629 1.348-1.7.992-3.46 1.9-4.559 3.674-.971 1.568-2.02 3.091-3.089 4.6a19.691 19.691 0 0 0-2.925 7.927 9.622 9.622 0 0 0 .128 4.719c.465 1.519.942 3.041 1.542 4.509 2.186 5.354 5.918 8.987 11.649 10.427a29.7 29.7 0 0 0 6.477.814 3.693 3.693 0 0 0 2.949-1.259 28.816 28.816 0 0 1 3.551-3.15 4.873 4.873 0 0 1 2.688-.986 2.246 2.246 0 0 0 1.949-1.039c1.374-1.611 2.8-3.181 4.178-4.784.799-.925 1.605-1.793 2.833-1.565zm.269 24.306c3.637-3.123 7.665-5.208 10.8-8.612l-1.7-2.634c-4.3 2.5-6.927 6.518-10.749 9.56zM268.8 7.05l-8.259 9.63 1.484 1.929c3.308-3.434 6.886-6.4 9.535-10.354zm6.45 4.979a26.323 26.323 0 0 0-9.506 7.745 5.137 5.137 0 0 0-.9 1.51 1.161 1.161 0 0 0 .274 1.007 1.129 1.129 0 0 0 1.018.222 8.955 8.955 0 0 0 1.94-1.337c2.67-2.456 5.305-4.95 7.944-7.44.125-.118.16-.333.322-.691zm-.527 15.465a4.985 4.985 0 0 0 6.448.357c1.331-1.144 1.338-2.843-.148-4.952z" class="prefix__cls-11" data-name="Path 18507" transform="translate(-226.937 31.014)"/>
                <path id="prefix__Path_18508" d="M265.757-1.659a44.984 44.984 0 0 0-.924 6.042c-.029 1.936-.555 3.331-2.652 4.083-2.21-.666-4.414-1.917-7.07-1.855a12.682 12.682 0 0 0 .858 6.037c.719 2.121.423 2.846-1.3 3.209a2.652 2.652 0 0 1-3.275-2.306c-.408-2.545-.732-5.1-1.181-7.643-.535-3.03.68-4.126 3.737-3.361 2 .5 4.027.874 6.183 1.335a36.276 36.276 0 0 0 1.457-10.663 3.931 3.931 0 0 1 4.552.1 20.4 20.4 0 0 1 2.176 1.481 24.3 24.3 0 0 0 5.646 3.948c1.572.763 1.876 1.511 1.406 2.545a2.363 2.363 0 0 1-2.912 1.03 36.212 36.212 0 0 1-4.666-2.386 18.965 18.965 0 0 1-2.035-1.596z" class="prefix__cls-11" data-name="Path 18508" transform="translate(-236.319 21.468)"/>
            </g>
        </g>
    </g>
</svg>
