<svg xmlns="http://www.w3.org/2000/svg" width="17.8" height="18.8" viewBox="0 0 17.8 18.8">
    <defs>
        <clipPath id="prefix__clip-path">
            <path id="prefix__Rectangle_4384" d="M0 0H17.8V18.8H0z" data-name="Rectangle 4384" transform="translate(1228.4 900.2)"/>
        </clipPath>
        <style>
            .prefix__cls-1{clip-path:url(#prefix__clip-path)}.prefix__cls-2{fill:#231f20}
        </style>
    </defs>
    <g id="prefix__Icon_x5F_Star1_29_" transform="translate(-1228.4 -900.2)">
        <g id="prefix__Group_6583" data-name="Group 6583">
            <g id="prefix__Group_6582" class="prefix__cls-1" data-name="Group 6582">
                <g id="prefix__Group_6578" class="prefix__cls-1" data-name="Group 6578">
                    <path id="prefix__Path_9844" d="M1235.6 915.5v-1.9c.1-1 .6-1.7 1.4-1.7a1.9 1.9 0 0 1 1.7 1.3 2.2 2.2 0 0 1 .1.8c.1 1.2.2 2.4.3 3.5.1 1-.2 1.4-1.1 1.5a2.031 2.031 0 0 1-2.3-2 7.57 7.57 0 0 0-.1-1.5z" class="prefix__cls-2" data-name="Path 9844"/>
                </g>
                <g id="prefix__Group_6579" class="prefix__cls-1" data-name="Group 6579">
                    <path id="prefix__Path_9845" d="M1246.2 909.3c-.2.3-.4.5-.5.7-.8 1.5-1.1 1.7-2.8 1.4a8.6 8.6 0 0 0-1.6-.1 11.994 11.994 0 0 1-2-.3c-.4-.1-.9-.4-.7-1 .1-.5.3-1.1 1-1.2 1.3-.3 2.7-.5 4-.7a2.47 2.47 0 0 1 2.6 1.2" class="prefix__cls-2" data-name="Path 9845"/>
                </g>
                <g id="prefix__Group_6580" class="prefix__cls-1" data-name="Group 6580">
                    <path id="prefix__Path_9846" d="M1236 910.1a5.2 5.2 0 0 1-3.2.9c-.7-.1-1.4.1-2.2 0a5.851 5.851 0 0 1-1.3-.2c-.8-.3-1.1-.8-1-1.4a1.41 1.41 0 0 1 1.4-1.1 7.57 7.57 0 0 1 1.5.1 3.3 3.3 0 0 0 2.2-.2c1.3-.5 2.4.4 2.6 1.9" class="prefix__cls-2" data-name="Path 9846"/>
                </g>
                <g id="prefix__Group_6581" class="prefix__cls-1" data-name="Group 6581">
                    <path id="prefix__Path_9847" d="M1236.5 903.7a16.156 16.156 0 0 1 0-2.2c.1-.9.6-1.3 1.3-1.3a1.367 1.367 0 0 1 1.4 1.4c.1 1.2.1 2.4.1 3.7a.749.749 0 0 1-.1.5c-.2 1-.4 1.3-1.1 1.3-1.1 0-1.8-.4-1.9-1.4a13.337 13.337 0 0 1 0-2z" class="prefix__cls-2" data-name="Path 9847"/>
                </g>
            </g>
        </g>
    </g>
</svg>
