<svg xmlns="http://www.w3.org/2000/svg" width="30.7" height="32.4" viewBox="0 0 30.7 32.4">
    <defs>
        <clipPath id="prefix__clip-path">
            <path id="prefix__Rectangle_4389" d="M0 0H30.7V32.4H0z" data-name="Rectangle 4389" transform="translate(386.9 44.1)"/>
        </clipPath>
        <style>
            .prefix__cls-1{clip-path:url(#prefix__clip-path)}.prefix__cls-2{fill:#231f20}
        </style>
    </defs>
    <g id="prefix__Icon_x5F_Star1_28_" transform="translate(-386.9 -44.1)">
        <g id="prefix__Group_6589" data-name="Group 6589">
            <g id="prefix__Group_6588" class="prefix__cls-1" data-name="Group 6588">
                <g id="prefix__Group_6584" class="prefix__cls-1" data-name="Group 6584">
                    <path id="prefix__Path_9848" d="M399.4 70.4v-3.3c.1-1.8 1-2.9 2.3-3a3.258 3.258 0 0 1 2.9 2.3 5.9 5.9 0 0 1 .2 1.4c.2 2 .3 4.1.6 6.1.2 1.6-.4 2.4-1.9 2.5a3.422 3.422 0 0 1-3.9-3.5c0-.9-.1-1.7-.1-2.6h-.1z" class="prefix__cls-2" data-name="Path 9848"/>
                </g>
                <g id="prefix__Group_6585" class="prefix__cls-1" data-name="Group 6585">
                    <path id="prefix__Path_9849" d="M417.6 59.8c-.3.5-.7.8-.9 1.2-1.3 2.6-1.9 2.8-4.8 2.3a26.352 26.352 0 0 0-2.8-.2 19.677 19.677 0 0 1-3.5-.5c-.7-.2-1.5-.7-1.3-1.7.2-.9.5-1.8 1.7-2 2.3-.4 4.6-.9 6.9-1.3a4.65 4.65 0 0 1 4.7 2.2" class="prefix__cls-2" data-name="Path 9849"/>
                </g>
                <g id="prefix__Group_6586" class="prefix__cls-1" data-name="Group 6586">
                    <path id="prefix__Path_9850" d="M400 61.2a8.879 8.879 0 0 1-5.4 1.5c-1.2-.1-2.5.1-3.7.1a5.867 5.867 0 0 1-2.3-.4 2.216 2.216 0 0 1-1.7-2.5 2.689 2.689 0 0 1 2.4-2 11.4 11.4 0 0 1 2.6.2 7.437 7.437 0 0 0 3.9-.3c1.9-.8 3.8.8 4.2 3.4" class="prefix__cls-2" data-name="Path 9850"/>
                </g>
                <g id="prefix__Group_6587" class="prefix__cls-1" data-name="Group 6587">
                    <path id="prefix__Path_9851" d="M400.8 50.1c0-1.3-.1-2.5 0-3.8.2-1.5 1-2.3 2.3-2.2a2.519 2.519 0 0 1 2.5 2.4c.1 2.1.2 4.2.2 6.3 0 .3-.1.6-.1.9-.3 1.7-.8 2.3-1.8 2.3-1.9 0-3-.8-3.2-2.4-.1-1.2 0-2.4 0-3.5z" class="prefix__cls-2" data-name="Path 9851"/>
                </g>
            </g>
        </g>
    </g>
</svg>
