<svg xmlns="http://www.w3.org/2000/svg" width="20.6" height="21.8" viewBox="0 0 20.6 21.8">
    <defs>
        <clipPath id="prefix__clip-path">
            <path id="prefix__Rectangle_4369" d="M0 0H20.6V21.8H0z" data-name="Rectangle 4369" transform="translate(1172.4 148.3)"/>
        </clipPath>
        <style>
            .prefix__cls-1{clip-path:url(#prefix__clip-path)}.prefix__cls-2{fill:#231f20}
        </style>
    </defs>
    <g id="prefix__Icon_x5F_Star1_32_" transform="translate(-1172.4 -148.3)">
        <g id="prefix__Group_6565" data-name="Group 6565">
            <g id="prefix__Group_6564" class="prefix__cls-1" data-name="Group 6564">
                <g id="prefix__Group_6560" class="prefix__cls-1" data-name="Group 6560">
                    <path id="prefix__Path_9832" d="M1180.7 166v-2.2c.1-1.2.7-1.9 1.6-2a2.3 2.3 0 0 1 2 1.6 2.769 2.769 0 0 1 .1.9c.1 1.4.2 2.7.4 4.1.1 1.1-.2 1.6-1.3 1.7a2.293 2.293 0 0 1-2.6-2.3 11 11 0 0 0-.2-1.8z" class="prefix__cls-2" data-name="Path 9832"/>
                </g>
                <g id="prefix__Group_6561" class="prefix__cls-1" data-name="Group 6561">
                    <path id="prefix__Path_9833" d="M1192.9 158.9a5.547 5.547 0 0 1-.6.8c-.9 1.7-1.3 1.9-3.2 1.6-.6-.1-1.3-.1-1.9-.2a16.01 16.01 0 0 1-2.3-.3c-.5-.1-1-.4-.9-1.1a1.6 1.6 0 0 1 1.1-1.4c1.5-.3 3.1-.6 4.6-.9a3.02 3.02 0 0 1 3.2 1.5" class="prefix__cls-2" data-name="Path 9833"/>
                </g>
                <g id="prefix__Group_6562" class="prefix__cls-1" data-name="Group 6562">
                    <path id="prefix__Path_9834" d="M1181.2 159.8a5.489 5.489 0 0 1-3.7 1 20.9 20.9 0 0 0-2.5.1 6.8 6.8 0 0 1-1.5-.2c-.9-.3-1.3-.9-1.1-1.7a1.622 1.622 0 0 1 1.6-1.3 9.149 9.149 0 0 1 1.7.1 4.64 4.64 0 0 0 2.6-.2c1.3-.6 2.6.5 2.9 2.2" class="prefix__cls-2" data-name="Path 9834"/>
                </g>
                <g id="prefix__Group_6563" class="prefix__cls-1" data-name="Group 6563">
                    <path id="prefix__Path_9835" d="M1181.7 152.3a20.857 20.857 0 0 1 0-2.5 1.468 1.468 0 0 1 1.5-1.5 1.735 1.735 0 0 1 1.7 1.6c.1 1.4.1 2.8.1 4.2 0 .2-.1.4-.1.6-.2 1.1-.5 1.5-1.2 1.5-1.3 0-2-.5-2.2-1.6a19.223 19.223 0 0 1 0-2.4h.2z" class="prefix__cls-2" data-name="Path 9835"/>
                </g>
            </g>
        </g>
    </g>
</svg>
