<svg xmlns="http://www.w3.org/2000/svg" width="28.7" height="30.4" viewBox="0 0 28.7 30.4">
    <defs>
        <clipPath id="prefix__clip-path">
            <path id="prefix__Rectangle_4414" d="M0 0H28.7V30.4H0z" data-name="Rectangle 4414" transform="translate(0 675.7)"/>
        </clipPath>
        <style>
            .prefix__cls-1{clip-path:url(#prefix__clip-path)}.prefix__cls-2{fill:#231f20}
        </style>
    </defs>
    <g id="prefix__Icon_x5F_Star1_23_" transform="translate(0 -675.7)">
        <g id="prefix__Group_6619" data-name="Group 6619">
            <g id="prefix__Group_6618" class="prefix__cls-1" data-name="Group 6618">
                <g id="prefix__Group_6614" class="prefix__cls-1" data-name="Group 6614">
                    <path id="prefix__Path_9868" d="M11.7 700.3v-3.1c.1-1.7.9-2.7 2.2-2.8a3.132 3.132 0 0 1 2.8 2.2c.1.4.1.9.2 1.3.2 1.9.3 3.8.5 5.7.2 1.5-.3 2.2-1.8 2.4a3.307 3.307 0 0 1-3.7-3.3 19.419 19.419 0 0 0-.2-2.4z" class="prefix__cls-2" data-name="Path 9868"/>
                </g>
                <g id="prefix__Group_6615" class="prefix__cls-1" data-name="Group 6615">
                    <path id="prefix__Path_9869" d="M28.7 690.4c-.3.5-.6.8-.8 1.2-1.3 2.4-1.8 2.7-4.5 2.2a24.629 24.629 0 0 0-2.6-.2 18.814 18.814 0 0 1-3.3-.5c-.7-.2-1.4-.6-1.2-1.6.2-.9.5-1.7 1.6-1.9 2.2-.4 4.3-.9 6.5-1.2a3.947 3.947 0 0 1 4.3 2" class="prefix__cls-2" data-name="Path 9869"/>
                </g>
                <g id="prefix__Group_6616" class="prefix__cls-1" data-name="Group 6616">
                    <path id="prefix__Path_9870" d="M12.3 691.7a7.929 7.929 0 0 1-5.1 1.4c-1.2-.1-2.3.1-3.5.1a7.106 7.106 0 0 1-2.1-.3c-1.2-.5-1.8-1.3-1.6-2.3a2.362 2.362 0 0 1 2.2-1.8 19.273 19.273 0 0 1 2.4.1 7.289 7.289 0 0 0 3.6-.3c2-.8 3.7.7 4.1 3.1" class="prefix__cls-2" data-name="Path 9870"/>
                </g>
                <g id="prefix__Group_6617" class="prefix__cls-1" data-name="Group 6617">
                    <path id="prefix__Path_9871" d="M13 681.3c0-1.2-.1-2.4 0-3.5a2.044 2.044 0 0 1 2.1-2.1 2.241 2.241 0 0 1 2.3 2.2c.1 2 .1 3.9.2 5.9 0 .3-.1.6-.1.9-.2 1.5-.7 2.1-1.7 2.1-1.8 0-2.8-.7-3-2.2-.1-1.1 0-2.2 0-3.3h.2z" class="prefix__cls-2" data-name="Path 9871"/>
                </g>
            </g>
        </g>
    </g>
</svg>
