<svg xmlns="http://www.w3.org/2000/svg" width="40.1" height="42.4" viewBox="0 0 40.1 42.4">
    <defs>
        <clipPath id="prefix__clip-path">
            <path id="prefix__Rectangle_4349" d="M0 0H40.1V42.4H0z" data-name="Rectangle 4349" transform="translate(1350.6 56.7)"/>
        </clipPath>
        <style>
            .prefix__cls-1{clip-path:url(#prefix__clip-path)}.prefix__cls-2{fill:#231f20}
        </style>
    </defs>
    <g id="prefix__Icon_x5F_Star1_36_" transform="translate(-1350.6 -56.7)">
        <g id="prefix__Group_6541" data-name="Group 6541">
            <g id="prefix__Group_6540" class="prefix__cls-1" data-name="Group 6540">
                <g id="prefix__Group_6536" class="prefix__cls-1" data-name="Group 6536">
                    <path id="prefix__Path_9816" d="M1366.9 91.2c0-1.4-.1-2.9 0-4.3.1-2.3 1.3-3.8 3.1-3.9 1.4-.1 3.3 1.3 3.9 3a11.288 11.288 0 0 1 .3 1.8c.2 2.7.4 5.3.7 8 .2 2.2-.5 3.1-2.5 3.3a4.557 4.557 0 0 1-5.2-4.5c0-1.1-.1-2.3-.1-3.4z" class="prefix__cls-2" data-name="Path 9816"/>
                </g>
                <g id="prefix__Group_6537" class="prefix__cls-1" data-name="Group 6537">
                    <path id="prefix__Path_9817" d="M1390.7 77.3a11.566 11.566 0 0 0-1.1 1.6c-1.8 3.4-2.5 3.7-6.2 3.1-1.2-.2-2.5-.2-3.7-.3a22.229 22.229 0 0 1-4.5-.7c-.9-.3-2-.9-1.7-2.2.3-1.2.7-2.4 2.2-2.7 3-.6 6-1.2 9.1-1.7a5.629 5.629 0 0 1 5.9 2.9" class="prefix__cls-2" data-name="Path 9817"/>
                </g>
                <g id="prefix__Group_6538" class="prefix__cls-1" data-name="Group 6538">
                    <path id="prefix__Path_9818" d="M1367.8 79.1a10.942 10.942 0 0 1-7.1 1.9c-1.6-.1-3.2.1-4.9.1a7.887 7.887 0 0 1-3-.5 2.856 2.856 0 0 1-2.2-3.2 3.434 3.434 0 0 1 3.1-2.6 12.968 12.968 0 0 1 3.4.2 9.889 9.889 0 0 0 5.1-.4c2.6-.9 5.1 1.1 5.6 4.5" class="prefix__cls-2" data-name="Path 9818"/>
                </g>
                <g id="prefix__Group_6539" class="prefix__cls-1" data-name="Group 6539">
                    <path id="prefix__Path_9819" d="M1368.8 64.6c0-1.6-.1-3.3 0-4.9.2-2 1.3-3 3-2.9a3.2 3.2 0 0 1 3.2 3.1c.2 2.8.2 5.5.3 8.3a5.02 5.02 0 0 1-.2 1.2c-.3 2.2-1 3-2.4 3-2.5 0-4-1-4.2-3.1a35.313 35.313 0 0 1 0-4.6h.3z" class="prefix__cls-2" data-name="Path 9819"/>
                </g>
            </g>
        </g>
    </g>
</svg>
