<svg xmlns="http://www.w3.org/2000/svg" width="24.5" height="25.8" viewBox="0 0 24.5 25.8">
    <defs>
        <clipPath id="prefix__clip-path">
            <path id="prefix__Rectangle_4409" d="M0 0H24.5V25.8H0z" data-name="Rectangle 4409" transform="translate(1350.2 582.6)"/>
        </clipPath>
        <style>
            .prefix__cls-1{clip-path:url(#prefix__clip-path)}.prefix__cls-2{fill:#231f20}
        </style>
    </defs>
    <g id="prefix__Icon_x5F_Star1_24_" transform="translate(-1350.2 -582.6)">
        <g id="prefix__Group_6613" data-name="Group 6613">
            <g id="prefix__Group_6612" class="prefix__cls-1" data-name="Group 6612">
                <g id="prefix__Group_6608" class="prefix__cls-1" data-name="Group 6608">
                    <path id="prefix__Path_9864" d="M1360.2 603.6V601c.1-1.4.8-2.3 1.9-2.4a2.527 2.527 0 0 1 2.3 1.8c.1.4.1.7.2 1.1.2 1.6.3 3.2.4 4.8.1 1.3-.3 1.9-1.5 2a2.709 2.709 0 0 1-3.1-2.8c-.1-.6-.1-1.2-.2-1.9z" class="prefix__cls-2" data-name="Path 9864"/>
                </g>
                <g id="prefix__Group_6609" class="prefix__cls-1" data-name="Group 6609">
                    <path id="prefix__Path_9865" d="M1374.7 595.1c-.3.4-.5.7-.7 1-1.1 2.1-1.5 2.3-3.8 1.9-.7-.1-1.5-.1-2.2-.2a13.5 13.5 0 0 1-2.8-.4c-.6-.2-1.2-.5-1-1.3.2-.7.4-1.5 1.3-1.6 1.8-.3 3.7-.7 5.5-1a3.405 3.405 0 0 1 3.7 1.6" class="prefix__cls-2" data-name="Path 9865"/>
                </g>
                <g id="prefix__Group_6610" class="prefix__cls-1" data-name="Group 6610">
                    <path id="prefix__Path_9866" d="M1360.7 596.2a6.89 6.89 0 0 1-4.3 1.2c-1-.1-2 .1-3 .1a5.663 5.663 0 0 1-1.8-.3c-1.1-.4-1.5-1.1-1.3-2a2.151 2.151 0 0 1 1.9-1.6 12.753 12.753 0 0 1 2 .1 5.525 5.525 0 0 0 3.1-.3c1.6-.5 3.1.8 3.4 2.8" class="prefix__cls-2" data-name="Path 9866"/>
                </g>
                <g id="prefix__Group_6611" class="prefix__cls-1" data-name="Group 6611">
                    <path id="prefix__Path_9867" d="M1361.3 587.4c0-1-.1-2 0-3a1.729 1.729 0 0 1 1.8-1.8 1.985 1.985 0 0 1 2 1.9c.1 1.7.1 3.4.2 5 0 .2-.1.5-.1.7-.2 1.3-.6 1.8-1.5 1.8-1.5 0-2.4-.6-2.6-1.9a26.158 26.158 0 0 1 0-2.8h.2z" class="prefix__cls-2" data-name="Path 9867"/>
                </g>
            </g>
        </g>
    </g>
</svg>
